<?xml version="1.0" encoding="utf-8"?>
<!-- Generator: Adobe Illustrator 16.0.0, SVG Export Plug-In . SVG Version: 6.00 Build 0)  -->
<!DOCTYPE svg PUBLIC "-//W3C//DTD SVG 1.1//EN" "http://www.w3.org/Graphics/SVG/1.1/DTD/svg11.dtd">
<svg version="1.1" id="Capa_1" xmlns="http://www.w3.org/2000/svg" xmlns:xlink="http://www.w3.org/1999/xlink" x="0px" y="0px"
	 width="648px" height="648px" viewBox="0 0 648 648" enable-background="new 0 0 648 648" xml:space="preserve">
<g>
	<path fill="#02060B" d="M483.914,384.393c-14.154-14.157-43.98-9.419-47.605-8.779c-4.189,0.124-11.047-0.261-16.963-1.635
		c5.936-0.272,12.404-1.267,19.4-3.286c16.826-4.855,28.029-12.165,33.287-21.722c4.643-8.438,2.822-15.381,2.602-16.145
		c-0.572-1.968-2.533-3.195-4.563-2.842l-10.363,1.805l-5.961-5.321c-0.645-0.57-1.439-0.907-2.273-0.992
		c-0.656-1.89-1.736-3.382-3.133-4.354l0.938-0.56l4.18-1.674c0.195-0.078,0.391-0.173,0.574-0.285l5.396-3.243
		c1.766-1.06,2.445-3.282,1.578-5.15l-5.83-12.568c-0.813-1.755-2.771-2.678-4.646-2.208c-3.652,0.927-6.186,2.206-7.582,3.822
		l-3.414,1.093c-0.191,0.065-0.383,0.142-0.566,0.234l-5.82,2.898c-0.154,0.074-0.301,0.164-0.441,0.255l-2.686,1.789
		c-0.225,0.149-0.426,0.315-0.613,0.503c-0.395,0.396-0.947,0.909-1.348,1.256c-0.379,0.131-0.705,0.3-0.971,0.485
		c-2.355-0.948-4.693-1.794-6.895-2.53c-0.434-0.146-0.898-0.297-1.387-0.454c0.896-0.661,1.643-1.203,2.037-1.482
		c1.182-0.576,2.564-1.633,4.441-3.117c1.348-0.505,3.34-1.775,6.484-4.832l3.797-1.377c0.59-0.216,1.127-0.565,1.557-1.026
		l3.527-3.737c0.928-0.307,2.248-0.853,4.152-1.804c0.277-0.14,0.539-0.312,0.777-0.509l5.373-4.479
		c0.369-0.307,0.684-0.679,0.922-1.097c1.818-3.181,3.59-10.587-2.711-15.84c-5.545-4.621-10.092-3.872-12.533-2.315
		c-1.545,0.485-4.408,1.667-6.156,4.158l-2.664,1.288c-0.393,0.19-0.754,0.445-1.066,0.754l-4.332,4.252l-4.381,3.503l-5.375,4.479
		c-0.041,0.037-0.084,0.074-0.127,0.114l-2.938,2.664l-6.639,5.169l-3.568,2.671c-0.111,0.086-0.221,0.177-0.322,0.269l-5.678,5.276
		c-0.836-1.302-1.734-2.593-2.703-3.867c-0.02-0.021-0.039-0.038-0.057-0.056c2.057-2.492,3.99-5.152,5.678-7.965
		c0.58-0.969,0.709-2.108,0.414-3.155c2.158-1.526,4.119-3.557,5.248-6.249c2.848-6.78,3.742-14.174,3.777-14.485
		c0.143-1.182-0.246-2.321-0.998-3.163c1.193-2.58,1.986-5.594,1.986-9.055c0-12.21-3.668-22.443-3.824-22.871
		c-0.158-0.42-0.379-0.806-0.656-1.146c-0.023-0.24-0.064-0.481-0.135-0.722l-2.008-6.793c1.238-1.388,2.467-3.343,2.48-5.668
		c0.014-2.116-1-4.044-2.846-5.428c-2.328-1.748-4.516-2.237-6.363-2.105l-0.412-0.722c-0.023-0.046-0.049-0.092-0.08-0.138
		l-1.49-2.407c6.145-3.523,11.35-9.8,10.852-20.256c-0.244-5.134-2.195-9.33-5.676-12.49l2.953-3.545
		c0.854-1.021,1.146-2.401,0.783-3.682c-0.139-0.479-0.357-0.917-0.646-1.306c5.555-5.361,8.816-13.347,9.703-23.823
		c1.904-6.196,1.475-13.057,0.584-18.325c4.125,1.309,8.336,1.963,12.59,1.963c8.32,0,16.803-2.498,25.105-7.458
		c10.227-6.115,16.57-13.797,16.836-14.117c0.998-1.221,1.191-2.913,0.5-4.328c-0.699-1.416-2.139-2.293-3.729-2.253l-5.594,0.155
		c0.229-2.393,0.756-5.764,1.949-9.748c2.66-8.86,1.984-32.406-17.33-44.667c-7.516-4.769-16.613-6.956-25.621-6.138
		c-10.516,0.95-18.873,5.332-24.17,12.674c-0.174,0.244-0.322,0.502-0.439,0.774c-0.123,0.293-0.23,0.576-0.336,0.863
		c-2.459-0.474-4.908-0.397-7.324,0.276c-5.508,1.543-9.277,5.775-11.105,8.279c-6.201-4.649-13.781-9.152-22.865-12.549
		c-6.424-5.53-21.373-8.329-28.643-7.264c-1.689-14.255-7.311-22.84-15.307-23.61c-1.027-0.776-2.287-1.108-3.568-0.96
		c-0.668,0.085-1.297,0.298-1.865,0.621c-0.561-0.046-1.156-0.071-1.777-0.065c-2.115-0.067-4.15,0.185-6.064,0.754
		c-10.08,2.14-23.211,8.428-28.141,11.542c-2.842,0.959-12.961,5.285-19.826,19.877c-0.99,2.095-1.668,4.139-2.043,6.135
		c-0.17,0.004-0.33,0.015-0.492,0.025c-4.453-6.415-11.523-10.391-20.051-11.226c-7.949-0.79-16.328,1.153-23.748,5.243
		c-1.42-2.045-3.773-3.385-6.443-3.385c-4.32,0-7.836,3.514-7.836,7.837c0,2.053,0.797,3.917,2.092,5.318
		c-11.867,13.856-8.188,33.277-6.307,40.306c-1.338,0.34-3.555,0.171-5.014-0.225c-1.631-0.45-3.371,0.162-4.355,1.539
		c-0.984,1.379-1.006,3.227-0.045,4.621c14.832,21.653,36.736,24.534,47.34,24.534c0.934,0,1.768-0.025,2.516-0.057
		c-0.201,8.899,2.695,18.141,3.492,20.505c0.781,5.253,4.094,13.047,11.576,18.447c-0.064,0.799,0.1,1.617,0.525,2.35
		c1.262,2.165,4.705,7.518,8.994,9.935c-2.68,4.194-3.203,7.82-3.242,8.11c-0.053,0.414-0.043,0.831,0.035,1.242
		c1.299,7.151,2.809,11.916,4.871,15.061c-14.969,15.7-19.949,41.839-20.863,47.371c-0.232-0.023-0.471-0.042-0.715-0.026
		c-22.094-1.464-23.619-0.082-24.852,1.029c-1.199,1.083-1.635,2.774-1.111,4.299c0.318,0.931,4.201,12.016,11.404,23.045
		l-4.752-3.801l-1.443-2.169c-0.568-0.849-1.438-1.451-2.432-1.684c-4.09-0.965-12.604,0.364-15.525,12.323
		c-0.143,0.581-0.156,1.186-0.035,1.769l0.838,4.074c0.248,1.209,1.041,2.24,2.145,2.794l7.195,3.596l5.051,2.472l0.836,0.521
		c-8.047,3.765-10.369,5.731-11.121,7.183c-10.898,0.428-25.414,22.979-25.564,23.217c-4.826,7.572-5.922,11.818-3.789,14.663
		c3.549,4.729,16.066,12.95,27.824,12.398c2.84,0.837,12.855,3.491,25.775,3.491c4.055,0,8.396-0.269,12.893-0.926
		c-0.441,0.736-0.77,1.542-0.947,2.426c-0.729,3.642,0.74,19.811,6.744,33.33c-4.045,1.954-12.186,7.162-11.283,17.084
		c0.904,9.952,5.25,31.745,5.434,32.667c0.215,1.083,0.871,2.008,1.779,2.592c0.029,0.153,0.057,0.305,0.104,0.45l3.414,11.479
		v1.706c0,0.357,0.047,0.711,0.143,1.058l5.328,19.548c-0.145,0.65-0.133,1.341,0.061,2l3.49,12.142
		c0.164,0.556,0.439,1.045,0.793,1.464c-0.15,1.433,0.387,3.167,1.105,5.449c0.688,2.191,1.746,5.343,3.148,9.373
		c2.342,6.745,5.686,16.071,9.938,27.722c7.23,19.817,14.686,39.773,14.76,39.974c0.229,0.615,0.607,1.146,1.078,1.576
		c1.865,6.342,6.061,18.979,10.828,22.52c0,0.371,0.031,0.743,0.137,1.114c0.873,3.058,1.635,5.442,2.75,6.944
		c2.443,6.954,11.607,30.219,24.783,30.214c0.908,0,1.832-0.11,2.781-0.342c13.811-3.419,19.309-23.377,20.305-27.497
		c1.033-0.438,1.881-1.298,2.256-2.438l2.369-7.179c1.295-0.272,2.416-1.164,2.928-2.458l9.854-25.08l6.488-16.381
		c0.029-0.078,0.057-0.157,0.086-0.234l5.982-18.345c1.693-3.85,27.449-62.814,36.932-108.613c0.518,0.074,1.045,0.121,1.586,0.121
		c3.154,0,6.666-1.164,9.719-2.749c0.273,0.061,0.551,0.092,0.834,0.092c0.502,0,1.01-0.092,1.494-0.287
		c5.367-2.148,17.73-7.363,21.689-11.347c2.814-1.727,4.338-3.016,5.133-4.172c0.357-0.04,0.68-0.106,0.963-0.187
		c1.662-0.472,2.625-1.532,3.117-2.268c12.99-16.027,36.035-17.108,36.256-17.119c1.604-0.056,3.023-1.058,3.609-2.551
		C485.402,387.226,485.045,385.528,483.914,384.393z M440.611,280.486L440.611,280.486l-4.904-6.807L440.611,280.486z
		 M244.283,297.204c1.078,1.069,2.148,2.06,3.191,2.966c0.547,0.477,1.098,0.933,1.645,1.379c-1.643-0.521-3.68-1.61-6.295-3.896
		C243.342,297.597,243.838,297.445,244.283,297.204z M251.785,472.193L251.785,472.193l4.939-7.48l-15.922-6.23l15.922,6.23
		L251.785,472.193z M317.148,582.877l-0.23-5.47l0,0L317.148,582.877L317.148,582.877z M387.998,278.154l1.078-2.243l0,0
		L387.998,278.154z"/>
	<path fill="#02060B" d="M290.871,386.331c0.783,0.889,1.896,1.359,3.021,1.359c0.668,0,1.348-0.167,1.967-0.513
		c1.654-0.928,2.438-2.884,1.881-4.696c-0.246-0.818-6.471-19.963-38.035-19.963h-0.258c-0.633,0-1.26,0.153-1.824,0.447
		c-0.352,0.177-0.77,0.356-1.238,0.53c-0.025,0.011-0.051,0.018-0.076,0.029c-0.938,0.339-2.082,0.661-3.4,0.95
		c-0.158,0.033-0.314,0.079-0.467,0.132c-6.746,2.353-10.813,5.986-11.76,10.512c-0.322,1.532,0.273,3.114,1.531,4.051
		c1.256,0.938,2.947,1.065,4.328,0.323C247.598,378.922,272.699,365.789,290.871,386.331"/>
	<path fill="#02060B" d="M327.773,564.406c-7.682,4.036-11.338,4.643-12.838,4.643c-0.502,0-0.996,0.09-1.459,0.271l-0.613,0.242
		c1.668-1.876,2.865-3.213,3.129-3.487l0.898-0.894c0.332-0.332,0.604-0.718,0.799-1.147l6.164-13.196l7.811-12.32
		c1.162-1.826,0.67-4.242-1.109-5.474c-1.783-1.232-4.213-0.836-5.514,0.895l-11.09,14.779c-0.02,0.024-0.035,0.051-0.057,0.074
		l-22.836,31.939c-1.059,1.481-0.994,3.485,0.154,4.893c0.789,0.963,1.941,1.483,3.125,1.483c0.553,0,1.111-0.113,1.643-0.35
		l21.9-9.776c3.441-0.581,7.93-2.371,13.674-5.46c1.957-1.048,2.693-3.48,1.654-5.44C332.17,564.123,329.74,563.373,327.773,564.406
		"/>
	<path fill="#CA5391" d="M220.467,290.97c0,0-29.434,11.641-27.037,13.434c2.391,1.791,5.08,0.895,4.184,10.746
		c-0.895,9.851,5.195,13.537,10.658,5.873c0,0,5.463-4.978,9.045,3.082c3.584,8.06,8.957,11.641,16.123,0.896
		c0,0-1.391-14.829,1.541-18.162c2.934-3.329,0.25-9.598-4.23-13.182C226.273,290.074,224.516,289.176,220.467,290.97"/>
	<path fill="#CA5391" d="M394.643,304.404c0,0,9.914,12.836,5.852,21.195c0,0,10.52,0.29,9.496,11.042
		c-1.018,10.749,2.289,16.811,10.488,13.332c7.451-3.163,0.725-16.035,6.176-15.656c1.084,0.079,2.186,0.093,3.27-0.02
		c0.914-0.099,0.449-1.437,1.885,1.004c2.645,4.507,18.182,1.494,12.537-10.746C438.701,312.313,400.018,302.61,394.643,304.404"/>
	<path fill="#F2D050" d="M289.152,605.318c0,0,10.557,31.284,23.096,28.177c12.539-3.099,17.461-24.988,17.461-24.988l-14.773-3.188
		c0,0-14.777-2.262-17.912-5.834C293.889,595.914,285.309,601.288,289.152,605.318"/>
	<path fill="#F2D050" d="M246.869,413.664c0,0-15.225-5.063-14.33-9.694c0.895-4.636,3.793,1.036,3.793,1.036
		s2.938-6.567,2.707-6.567s-2.914-4.874-2.914-4.874s-11.646,3.979-10.75,13.83c0.898,9.851,5.375,32.24,5.375,32.24
		s40.625,16.048,62.629,15.861c0,0,28.07-1.001,25.486-5.073c-2.586-4.069-32.143-10.339-32.143-10.339s-14.33,2.686-16.568,1.341
		c-2.236-1.341-23.018,1.908-25.164-9.12c0,0-3.941-11.068,1.43-16.871C246.42,415.433,246.42,413.215,246.869,413.664"/>
	<path fill="#F1D3A2" d="M299.273,344.074c0,0,13.18,13.438,6.809,35.245c-6.373,21.805-17.891,24.494-30.494,28.075
		c0,0-0.83,1.854,0,1.822c0.838-0.032,13.375,7.137,11.584,20.567l0.855,0.039v-1.156c0,0,47.41,7.023,63.354-5.109
		c0,0,0.031-10.286,11.125-18.374c0,0-30.73-4.208-34.004-32.566c0,0-0.682-21.151,8.326-29.682l-13.25-14.354
		C323.578,328.581,313.613,325.085,299.273,344.074"/>
	<path fill="#F1D3A2" d="M245.539,427.303c0,0-3.457-10.171,6.994-14.591c0,0,23.893-12.492,30.16,6.769
		c0,0,1.586,10.303-3.459,9.186C274.188,427.544,248.234,436.022,245.539,427.303"/>
	<path fill="#F1D3A2" d="M370.002,405.604c0,0-22.283,4.925-14.496,23.062c0,0,5.102,7.179,13.162,6.39
		c0,0,14.801-17.811,14.117-23.182C382.104,406.499,374.916,403.813,370.002,405.604"/>
	<path fill="#D6A7C6" d="M257.691,367.31c0,0-11.73,2.26-13.066,8.636c0,0,28.664-15.57,49.264,7.713c0,0-5.268-17.205-34.428-17.11
		l19.773-16.577c0,0,18.711-5.069,22.955,5.354c0,0,8.174,7.008,0.832,28.867c-7.342,21.855-31.271,22.157-54.234,20.218
		c0,0-19.381-31.498-12.215-36.872C243.734,362.169,257.691,367.31,257.691,367.31"/>
	<path fill="#B6659C" d="M332.398,359.088c0,0,4.029-19.758,14.33-18.863c10.299,0.896,16.564,2.71,16.564,2.71
		s1.711,10.71,10.707,11.166c0,0,9.893,13.888,26.912,14.783c0,0,1.34,29.105-15.674,32.689c0,0-13.555-0.899-20.211,2.239
		c0,0-18.656-2.471-22.061-13.997c0,0,41.375-7.031,42.715-15.996c0,0,5.906,3.475,6.314,1.284c0.406-2.19-1.672-5.711-10.93-7.532
		C381.066,367.572,341.354,356.006,332.398,359.088"/>
	<path fill="#C45B31" d="M290.898,340.225l7.916-0.895l4.207-9.298c0,0-13.162,3.924-23.014-1.451
		C280.008,328.581,288.359,340.225,290.898,340.225"/>
	<path fill="#C5313C" d="M258.035,307.568c0,0-1.711,10.268-13.604,5.792c0,0-6.838-4.062-5.783,6.476
		c1.057,10.541-15.959,18.6-19.539,14.12c-3.586-4.476-2.92-10.819-5.043-8.991c-2.123,1.827-30.783,11.68-25.406,23.317
		c0,0,29.83,9.711,57.457-3.202c27.623-12.916,31.203-18.87,31.203-18.87s-9.852-5.686-8.061-15.536
		C269.26,310.674,270.094,308.045,258.035,307.568"/>
	<path fill="#C94B42" d="M458.479,336.097l-7.416-6.617c0,0-3.58,17.91-12.535,14.33c-8.961-3.584-9.855-6.269-9.855-6.269
		s-2.719,2.417-0.912,4.79c1.807,2.375,20.617,14.914,23.303,14.016C453.75,355.45,465.895,340.027,458.479,336.097"/>
	<path fill="#C45B31" d="M336.428,328.209c0,0-0.604-4.348-2.539-5.123c-1.938-0.771-1.938-4.356,3.436-3.456
		c5.373,0.894,20.598-4.483,21.494-5.375c0.895-0.896,0,19.701,4.479,25.97C363.297,340.225,344.938,328.28,336.428,328.209"/>
	<path fill="#C45B31" d="M396.432,398.438c0,0,7.166,4.48,3.586,10.746c-3.586,6.27,0,0,0,0s1.791,2.689,4.475,4.479
		c2.686,1.791,8.061,8.955,8.061,8.955s17.91-7.164,20.6-10.745c0,0-2.959-5.972-6.854-7.461c-3.896-1.494-10.166-4.183-5.686-4.183
		c4.479,0,8.145,1.556,8.145,1.556s8.873-16.781,7.975-22.152c0,0-25.076,0.891-31.346-8.958c0,0-2.238-0.446-2.238,3.135
		c0,3.584-3.58,21.789-6.717,23.878C396.432,397.688,395.088,397.99,396.432,398.438"/>
	<path fill="#4A1720" d="M304.188,400.229c0,0,0.896,4.293,0,4.833c-0.895,0.542-8.059,20.247,11.645,21.141
		c19.701,0.896,25.971-14.329,15.223-24.182c0,0,0.896-2.687,0-2.687s-3.918,3.585-3.918,3.585s-12.027,6.382-19.266-1.6
		c-0.467-0.509-1.006-0.956-1.635-1.238C305.438,399.72,304.443,399.459,304.188,400.229"/>
	<path fill="#C88692" d="M277.32,425.309c0,0-15.227-9.438-26.867,1.994h-4.914c0,0,0,9.957,15.891,10.251
		c15.891,0.29,24.844-2.399,22.158-12.245C280.902,415.455,283.588,420.829,277.32,425.309"/>
	<path fill="#C88692" d="M378.521,412.77c0,0-15.229,5.166-9.85,22.283c0,0,18.805-2.583,23.285-15.119c0,0,3.58-11.644-4.48-14.329
		c-8.059-2.686-17.475,0-17.475,0S382.104,408.29,378.521,412.77"/>
	<path fill="#C88692" d="M288.027,428.666c0,0,48.754,4.784,63.357-5.109c0,0,0.145,4.883,1.998,5.109
		c0,0-40.32,11.043-65.355,1.156V428.666z"/>
	<path fill="#D6A7C6" d="M366.877,257.832c0,0-8.059,27.888,18.811,25.138l5.834-12.152c0,0-8.082,3.747-16.137,1.426
		c0,0,14.357-1.695,16.137-5.142c0,0,5.758-21.342-2.055-21.349C381.656,245.741,367.326,253.801,366.877,257.832"/>
	<path fill="#F1D3A2" d="M368.668,326.791c0,0-11.646,20.829,6.717,26.536s23.326-21.547,21.293-35.236L368.668,326.791z"/>
	<path fill="#F1D3A2" d="M275.961,322.158c0,0-6.701-7.196-3.119-13.819c3.584-6.624,26.514-14.683,36.096,0.541
		C308.938,308.879,289.822,327.375,275.961,322.158"/>
	<path fill="#F1D3A2" d="M272.842,304.404c0,0,4.479-1.793,4.479-3.584c0-1.79-15.227-1.79-30.451-23.284
		c0,0-3.578,0.895-3.578,4.479C243.291,282.015,252.244,299.925,272.842,304.404"/>
	<path fill="#F1D3A2" d="M322.098,256.936l6.271,3.584c0,0,14.619,5.371,16.268,3.581c1.643-1.793,7.879-12.744,7.879-12.744
		s-2.654,17.224-10.713,15.429c0,0-8.51,9.405-10.748,10.75c0,0-5.303,18.646-26.16,22.534v2.268c0,0,6.912,2.848,9.148,14.323
		l9.4,0.729l-0.895-1.792c0,0-5.932-5.374-1.176-12.089c4.756-6.719,9.234-10.3,11.92-7.614c2.689,2.685,3.795,4.477,7.717,5.375
		c3.928,0.891,21.42-1.794,23.869-4.928l-2.449,3.134l-0.031,8.51l2.24-3.646c0,0,22.391-12.924,28.213-20.535
		c0,0-19.254,4.926-25.975-6.27c-6.713-11.195-2.238-17.621-2.238-17.621l-4.926,1.6c0,0-1.34-0.549,1.346-2.34
		c2.686-1.79,3.58-3.374,3.58-4.821c0-1.448-12.984-19.673-14.553-15.934c-1.568,3.741-2.461,21.651-8.732,20.755
		C335.084,258.28,322.098,256.936,322.098,256.936"/>
	<path fill="#FFFFFF" d="M325.682,262.307c0,0,5.373,0.127,5.373,4.543c0,4.416-4.477,30.39-28.656,32.18
		C302.398,299.03,322.549,283.355,325.682,262.307"/>
	<path fill="#561824" d="M296.129,278.43c0,0,11.535-6.811,5.766-19.078c0,0,13.455-2.958,13.248,0
		c-0.207,2.958,2.254,16.914-7.484,23.371L296.129,278.43z"/>
	<path fill="#561824" d="M256.725,255.146l10.154,2.331c0,0-5.779,14.684,7.256,21.848l-8.705,5.708
		C265.43,285.033,250.453,277.536,256.725,255.146"/>
	<path fill="#9E6538" d="M229.832,248.855l-1.768-0.623c0,0,4.475-31.596,21.494-47.717l2.975,0.489c0,0-17.941,25.95-18.74,44.748
		C233.793,245.752,235.629,251.074,229.832,248.855"/>
	<path fill="#9E6538" d="M201.361,250.648c0,0,15.057,43.902,41.031,43.008c0,0-18.363-21.942-18.809-42.99
		C223.584,250.667,202.871,249.286,201.361,250.648"/>
	<path fill="#6F292F" d="M250.453,156.632c0,0-5.373-5.269-2.24-20.996c3.137-15.725,27.316-29.158,42.541-22.888
		c0,0,27.764,5.374,13.434,35.824l-3.289-0.896c0,0,0.176-17.464-12.369-18.36c-12.551-0.895-21.959,5.713-20.838,18.979
		C267.691,148.296,253.586,154.392,250.453,156.632"/>
	<path fill="#EFE791" d="M182.996,94.525c0,0-8.666-24.763,5.664-39.988c14.33-15.228,39.506-17.904,49.309-2.237
		c0,0-6.771,4.349-5.43,10.232c1.346,5.884-7.988,6.561-7.988,6.561s-25.146,17.214-19.994,36.929
		C204.557,106.022,188.521,109.889,182.996,94.525"/>
	<path fill="#C88692" d="M226.67,67.522c0,0-15.686,9.801-8.91,24.146c4.033,8.541,7.783,6.839,7.783,6.839l-3.66,20.822
		c0,0-30.996,4.668-49.572-22.45c0,0,8.15,2.265,10.68-2.353c0,0,8.936,12.965,19.168,9.997
		C202.158,104.522,190.801,73.792,226.67,67.522"/>
	<path fill="#20397C" d="M228.283,95.114c0,0-7.383,6.888-10.074-6.546c-2.686-13.435,7.17-19.014,14.33-18.461
		c0,0,1.295-0.793,1.098-1.465c-0.197-0.672-2.439-18.084,10.77-15.2c0,0-0.223,8.258,6.047,10.947c0,0-14.326,0.404-9.854,6.954
		c0.449,0.661,0,1.502,0,1.502S228.953,88.67,228.283,95.114"/>
	<path fill="#EFE791" d="M253.141,69.762c0,0-26.348,12.468-28.846,44.294c0,0,46.754,2.271,76.758-33.1
		c0,0-3.83-2.689-21.619-5.824c-17.787-3.135-17.34-1.79-17.34-1.79S255.379,67.522,253.141,69.762"/>
	<path fill="#EFE791" d="M321.654,56.773c0,0,7.609,20.947,33.135,36.67c25.523,15.724,39.854,6.769,39.854,6.769
		s-3.586-20.6-4.48-20.6c-0.896,0-14.328-23.285-43.883-34.033C346.279,45.579,323.889,39.31,321.654,56.773"/>
	<path fill="#F1D3A2" d="M279.434,168.368c0,0,18.484,10.654,10.426,23.194c0,0,29.936,13.027,62.656,1.811
		c0,0-9.367-15.695,12.123-26.44v-1.397c0,0-23.492-3.517-30.553-23.897c-7.059-20.38,1.002-34.71,11.299-46.8l-25.076-23.021
		l-22.535,22.349l-0.75,2.462c0,0,18.244,20.149,11.584,44.333C301.947,165.14,279.434,168.368,279.434,168.368"/>
	<path fill="#F1D3A2" d="M378.125,201.605c0,0,20.996-1.089,20.098-19.898c-0.574-12.1-13.016-14.932-21.813-15.412
		c-7.123-0.39-14.168,2.172-19.066,7.351c-3.656,3.872-6.316,9.271-3.896,16.12C358.818,204.996,378.125,201.605,378.125,201.605"/>
	<path fill="#F1D3A2" d="M244.184,183.498c0,0,1.5-11.542,15.975-16.07c14.477-4.529,34.199,9.047,28.365,23.306l-36.279,1.722
		C252.244,192.456,249.559,194.247,244.184,183.498"/>
	<path fill="#FFFFFF" d="M389.266,132.452c0,0,3.48,27.615-15.721,30.821c0,0,29.158,7.394,31.842-27.385l-4.475-1.937
		L389.266,132.452z"/>
	<path fill="#C88692" d="M244.184,183.498c0,0,8.061,8.064,8.957,7.165c0.893-0.892,25.096-29.414,35.383,0.071
		c0,0-3.145,8.888-20.158,9.782C251.35,201.412,247.768,203.201,244.184,183.498"/>
	<path fill="#C88692" d="M385.682,186.187c0,0-9.91-15.763-20.176-8.779c-10.27,6.988-12.059,15.943-3.104,21.315
		c8.955,5.374,29.555,5.374,33.135-13.433C395.537,185.291,387.477,187.978,385.682,186.187"/>
	<path fill="#C88692" d="M390.162,79.612c0,0-9.85,4.48-4.48,20.6c0,0-33.246-3.139-47.299-20.6c0,0,25.361,29.105,63.869,29.105
		C402.252,108.717,399.568,87.223,390.162,79.612"/>
	<path fill="#C88692" d="M292.545,93.046l4.479,3.582c0,0,22.389-22.39,22.389-23.285c0,0,22.391,22.39,25.975,21.495
		c0,0,2.684-0.896,2.684-2.685c0,0-21.492-15.375-27.762-31.87c0,0-12.984,22.964-27.764,32.116V93.046z"/>
	<path fill="#C88692" d="M232.539,89.462c0,0,7.166-18.808,17.02-23.284c0,0,4.475,1.79,3.582,3.584
		c-0.896,1.79-2.688,5.371-2.688,7.165C250.453,78.717,238.809,89.462,232.539,89.462"/>
	<path fill="#C88692" d="M262.094,73.343c0,0,2.689-1.791,7.166-0.896c0,0,34.928-11.644,40.303-18.809
		c5.373-7.165,7.162-9.85,8.059-13.431c0.896-3.584,22.391-0.895,28.658,5.372c0,0-15.672-0.447-16.57,4.029
		c-0.895,4.48-7.16-6.269-3.58,13.436c0,0-4.475-3.581-4.475-6.271c0-2.685-3.586-3.581-4.482,1.795
		c-0.893,5.37-12.539,20.595-16.119,22.389c-3.584,1.79,0.895-2.689-4.479-3.584c0,0-4.477,2.685-11.641,1.79
		c-7.166-0.895-12.395-1.79-15.15-1.34C267.02,78.268,262.094,73.343,262.094,73.343"/>
	<path fill="#02060B" d="M290.754,69.313c2.227,0,4.029,1.801,4.029,4.03c0,2.225-1.803,4.03-4.029,4.03
		c-2.225,0-4.031-1.806-4.031-4.03C286.723,71.113,288.529,69.313,290.754,69.313 M290.754,67.522c-3.209,0-5.82,2.612-5.82,5.821
		s2.611,5.82,5.82,5.82c3.213,0,5.82-2.611,5.82-5.82S293.967,67.522,290.754,67.522"/>
	<path fill="#B43885" d="M285.828,73.343c0,2.713,2.211,4.925,4.926,4.925c2.717,0,4.926-2.211,4.926-4.925
		c0-2.714-2.209-4.926-4.926-4.926C288.039,68.417,285.828,70.628,285.828,73.343"/>
	<path fill="#02060B" d="M240.6,95.114c1.459,0,2.635,1.177,2.635,2.636c0,1.454-1.176,2.632-2.635,2.632
		c-1.453,0-2.631-1.179-2.631-2.632C237.969,96.291,239.146,95.114,240.6,95.114 M240.6,93.942c-2.094,0-3.805,1.705-3.805,3.808
		c0,2.094,1.711,3.802,3.805,3.802c2.102,0,3.807-1.708,3.807-3.802C244.406,95.647,242.701,93.942,240.6,93.942"/>
	<path fill="#B43885" d="M237.379,97.75c0,1.772,1.443,3.22,3.221,3.22c1.775,0,3.223-1.447,3.223-3.22
		c0-1.776-1.447-3.224-3.223-3.224C238.822,94.525,237.379,95.973,237.379,97.75"/>
	<path fill="#02060B" d="M208.357,77.199c1.459,0,2.637,1.182,2.637,2.636c0,1.458-1.178,2.637-2.637,2.637
		c-1.453,0-2.629-1.179-2.629-2.637C205.729,78.381,206.904,77.199,208.357,77.199 M208.357,76.028
		c-2.096,0-3.805,1.709-3.805,3.808c0,2.098,1.709,3.807,3.805,3.807c2.1,0,3.809-1.709,3.809-3.807
		C212.166,77.737,210.457,76.028,208.357,76.028"/>
	<path fill="#B43885" d="M205.141,79.835c0,1.776,1.441,3.219,3.217,3.219c1.777,0,3.221-1.443,3.221-3.219
		c0-1.776-1.443-3.22-3.221-3.22C206.582,76.615,205.141,78.06,205.141,79.835"/>
	<path fill="#02060B" d="M220.648,54.721c0.963,1.259,0.799,3.001-0.361,3.886c-1.162,0.884-2.881,0.583-3.838-0.677
		c-0.963-1.26-0.801-2.997,0.359-3.885C217.969,53.161,219.689,53.464,220.648,54.721 M221.582,54.01
		c-1.383-1.819-3.873-2.255-5.547-0.977c-1.674,1.278-1.908,3.797-0.523,5.612c1.387,1.814,3.875,2.25,5.549,0.972
		C222.734,58.341,222.969,55.825,221.582,54.01"/>
	<path fill="#B43885" d="M216.418,53.54c-1.412,1.082-1.611,3.212-0.441,4.748c1.174,1.536,3.281,1.907,4.695,0.825
		c1.42-1.081,1.617-3.213,0.443-4.749c-0.719-0.938-1.787-1.443-2.83-1.443C217.623,52.92,216.971,53.122,216.418,53.54"/>
	<path fill="#02060B" d="M190.449,44.958c1.455,0,2.633,1.183,2.633,2.637s-1.178,2.636-2.633,2.636s-2.637-1.182-2.637-2.636
		S188.994,44.958,190.449,44.958 M190.449,43.789c-2.098,0-3.807,1.708-3.807,3.807s1.709,3.807,3.807,3.807
		s3.807-1.708,3.807-3.807S192.547,43.789,190.449,43.789"/>
	<path fill="#B43885" d="M187.23,47.595c0,1.775,1.443,3.22,3.219,3.22s3.221-1.444,3.221-3.22c0-1.776-1.445-3.22-3.221-3.22
		S187.23,45.819,187.23,47.595"/>
	<path fill="#02060B" d="M369.564,76.58c1.801,0,3.258,1.458,3.258,3.255s-1.457,3.254-3.258,3.254
		c-1.797,0-3.256-1.457-3.256-3.254S367.768,76.58,369.564,76.58 M369.564,75.133c-2.59,0-4.699,2.108-4.699,4.703
		c0,2.592,2.109,4.703,4.699,4.703c2.594,0,4.701-2.11,4.701-4.703C374.266,77.241,372.158,75.133,369.564,75.133"/>
	<path fill="#B43885" d="M365.588,79.835c0,2.193,1.781,3.98,3.977,3.98c2.193,0,3.98-1.787,3.98-3.98
		c0-2.194-1.787-3.977-3.98-3.977C367.369,75.858,365.588,77.642,365.588,79.835"/>
	<path fill="#02060B" d="M352.91,61.652c2.232-0.664,4.637,0.808,5.375,3.284c0.738,2.48-0.475,5.028-2.707,5.692
		c-2.23,0.663-4.641-0.81-5.375-3.289C349.467,64.861,350.676,62.314,352.91,61.652 M352.318,59.658
		c-3.221,0.955-4.975,4.642-3.914,8.219c1.066,3.573,4.547,5.703,7.768,4.748c3.219-0.959,4.973-4.646,3.914-8.219
		C359.02,60.831,355.537,58.698,352.318,59.658"/>
	<path fill="#B43885" d="M352.615,60.654c-2.723,0.811-4.211,3.929-3.313,6.954c0.9,3.024,3.848,4.829,6.572,4.019
		c2.723-0.813,4.211-3.931,3.307-6.956c-0.75-2.534-2.941-4.21-5.236-4.21C353.504,60.46,353.053,60.523,352.615,60.654"/>
	<path fill="#EFE791" d="M393.758,46.789c0,0-1.785,4.164,0,4.164c1.779,0,12.172,5.531,9.213,16.198l4.211,0.818
		c0,0,23.305,7.438,26.43,22.524c3.121,15.089,15.605,12.057,17.873,5.962c0,0-0.422-6.097,2.266-15.051
		c2.256-7.516,1.982-28.925-15.633-40.11c-6.852-4.349-15.018-6.255-23.096-5.526C408.105,36.393,399.436,38.912,393.758,46.789"/>
	<path fill="#20397C" d="M373.545,58.504c0,0,7.662-13.821,20.203-6.655c12.533,7.164,7.164,15.301,7.164,15.301
		s16.119,2.612,12.535,17.836c-3.58,15.225-20.953-5.938-20.953-5.938s-2.781-2.575-2.332-4.811l-11.285-11.645
		C378.877,62.594,374.385,62.025,373.545,58.504"/>
	<path fill="#C88692" d="M402.252,96.525c0,0,12.99-1.688,12.99-10.642c0,0,3.58-12.541-8.064-17.915c0,0,13.883-4.925,22.84,9.405
		c0,0,0.895,4.478,3.58,3.581c0,0,0,5.374,3.584,3.584c3.58-1.792,2.689,3.58,2.689,3.58s-3.273,19.496,9.109,8.408l12.381-0.344
		c0,0-24.18,29.555-53.734,17.016C407.627,113.197,402.252,98.658,402.252,96.525"/>
	<path fill="#02060B" d="M414.906,45.613c2.266,0,4.107,1.84,4.107,4.109c0,2.269-1.842,4.108-4.107,4.108
		c-2.273,0-4.109-1.839-4.109-4.108C410.797,47.453,412.633,45.613,414.906,45.613 M414.906,43.789
		c-3.273,0-5.934,2.661-5.934,5.934s2.66,5.934,5.934,5.934c3.27,0,5.93-2.661,5.93-5.934S418.176,43.789,414.906,43.789"/>
	<path fill="#B43885" d="M409.885,49.722c0,2.767,2.25,5.021,5.021,5.021c2.766,0,5.02-2.253,5.02-5.021s-2.254-5.021-5.02-5.021
		C412.135,44.701,409.885,46.955,409.885,49.722"/>
	<path fill="#02060B" d="M437.67,57.215c0.896,0,1.674,0.248,2.063,0.797c1.207,1.68-3.895,9.956-6.58,9.956
		s-8.061-4.48-7.041-8.308c0.328-1.238,0.994-1.648,1.758-1.648c1.529,0,3.457,1.659,3.889,1.659c0.021,0,0.037-0.003,0.051-0.01
		l1.141,0.372C433.418,58.301,435.803,57.215,437.67,57.215 M437.67,55.425L437.67,55.425c-1.988,0-4.266,0.892-5.559,2.452
		c-0.105-0.06-0.232-0.138-0.34-0.201c-0.957-0.58-2.404-1.458-3.902-1.458h-0.002c-0.813,0-2.773,0.291-3.486,2.983
		c-0.521,1.958,0.063,4.169,1.648,6.228c1.652,2.155,4.631,4.334,7.123,4.334c3.676,0,7.145-6.677,7.287-6.96
		c1.385-2.699,1.629-4.605,0.748-5.834C440.477,55.975,439.227,55.425,437.67,55.425"/>
	<path fill="#C42A29" d="M432.455,58.928l-0.367-0.12c-0.074-0.025-0.15-0.039-0.229-0.042c-0.133-0.071-0.369-0.213-0.551-0.323
		c-0.873-0.53-2.193-1.33-3.439-1.33c-0.75,0-2.088,0.302-2.621,2.315c-0.449,1.684,0.08,3.622,1.492,5.456
		c1.742,2.271,4.5,3.979,6.412,3.979c2.328,0,5.158-3.87,6.496-6.474c1.195-2.335,1.469-3.984,0.809-4.901
		c-0.537-0.75-1.527-1.168-2.787-1.168C435.711,56.32,433.436,57.28,432.455,58.928"/>
	<path fill="#342C7F" d="M395.869,79.835c0,0,7.729-2.909,9.518,2.463c1.791,5.374,5.377,6.269,8.061,2.688
		c0,0-1.121,12.086-12.201,9.179c0,0-5.521-13.888-8.748-15.116C392.498,79.049,395.309,78.268,395.869,79.835"/>
	<path fill="#342C7F" d="M378.877,62.594c0,0,9.494-3.581,12.18,0.895c2.691,4.48-0.895,10.75-0.895,10.75
		S379.23,65.275,378.877,62.594"/>
	<path fill="#FFFFFF" d="M391.957,55.433c0,2.473-2.006,4.476-4.48,4.476s-4.479-2.003-4.479-4.476c0-2.477,2.004-4.48,4.479-4.48
		S391.957,52.956,391.957,55.433"/>
	<path fill="#FFFFFF" d="M405.387,73.343c0,2.472-2.002,4.48-4.475,4.48c-2.475,0-4.48-2.008-4.48-4.48
		c0-2.474,2.006-4.48,4.48-4.48C403.385,68.863,405.387,70.869,405.387,73.343"/>
	<path fill="#02060B" d="M440.344,71.998l1.764,3.135l4.529,2.686l-3.635,2.689l0.074,2.685l-3.162-1.352l-3.182,1.352l-0.447-3.581
		l-2.236-2.688l4.479-2.685L440.344,71.998 M440.344,70.208c-0.539,0-1.049,0.244-1.393,0.661l-1.617,1.997l-4.207,2.522
		c-0.449,0.269-0.756,0.722-0.844,1.235c-0.092,0.521,0.055,1.047,0.389,1.447l1.902,2.285l0.381,3.062
		c0.072,0.558,0.398,1.05,0.887,1.33c0.275,0.159,0.582,0.24,0.891,0.24c0.24,0,0.479-0.05,0.705-0.145l2.477-1.055l2.455,1.055
		c0.225,0.095,0.467,0.145,0.707,0.145c0.352,0,0.705-0.106,1.004-0.311c0.506-0.343,0.803-0.92,0.787-1.529l-0.049-1.754
		l2.883-2.131c0.484-0.356,0.758-0.93,0.725-1.532c-0.027-0.598-0.355-1.142-0.873-1.45l-4.119-2.442l-1.531-2.717
		c-0.291-0.517-0.816-0.856-1.41-0.906C440.439,70.208,440.391,70.208,440.344,70.208"/>
	<path fill="#402A7D" d="M439.648,71.436l-1.721,2.116l-4.34,2.606c-0.227,0.132-0.379,0.358-0.426,0.616
		c-0.043,0.258,0.027,0.524,0.199,0.725l2.064,2.484l0.418,3.323c0.037,0.279,0.199,0.524,0.441,0.666
		c0.139,0.077,0.295,0.12,0.447,0.12c0.121,0,0.24-0.024,0.354-0.074l2.828-1.203l2.809,1.203c0.113,0.05,0.234,0.074,0.354,0.074
		c0.178,0,0.352-0.053,0.502-0.156c0.252-0.173,0.4-0.459,0.393-0.768l-0.063-2.218l3.264-2.41c0.238-0.18,0.373-0.464,0.359-0.765
		c-0.014-0.3-0.178-0.572-0.436-0.726l-4.328-2.565l-1.645-2.925c-0.145-0.258-0.41-0.429-0.703-0.454
		c-0.029-0.001-0.055-0.001-0.076-0.001C440.074,71.104,439.818,71.223,439.648,71.436"/>
	<path fill="#FFFFFF" d="M370.463,140.961c0,7.663-7.021,13.88-15.674,13.88c-8.656,0-15.672-6.217-15.672-13.88
		c0-7.668,7.016-13.884,15.672-13.884C363.441,127.078,370.463,133.293,370.463,140.961"/>
	<path fill="#FFFFFF" d="M299.564,142.412c1.043,7.597-5.068,14.708-13.645,15.883c-8.572,1.175-16.371-4.03-17.412-11.628
		c-1.039-7.596,5.068-14.703,13.645-15.878C290.73,129.61,298.523,134.815,299.564,142.412"/>
	<path fill="#9E6538" d="M348.07,155.63c0,0,18.529,3.188,22.25-9.996c0,0,14.473,3.833,13.572,7.417
		C382.998,156.632,368.668,172.543,348.07,155.63"/>
	<path fill="#C88692" d="M237.914,162.898c0,0,6.27,10.748,10.746,8.958c4.48-1.794,5.096-4.376,5.096-4.376
		S238.809,162.006,237.914,162.898"/>
	<path fill="#C88692" d="M393.748,162.006c0,0-6.271,1.791-6.271,3.581c0,1.791,4.48,2.688,4.48,2.688l4.475-5.377L393.748,162.006z
		"/>
	<path fill="#0081BE" d="M335.533,118.122c0,0,13.436-15.225,32.24-7.164c18.809,8.061,21.492,21.495,21.492,21.495l11.646,1.5
		c0,0,0-18.519-9.855-22.994c0,0-28.053-6.716-39.549-16.792C351.508,94.166,341.803,95.733,335.533,118.122"/>
	<path fill="#94C9E0" d="M389.266,132.452c0,0,2.691,22.389-6.268,26.865c0,0,17.02,3.896,17.914-25.365L389.266,132.452z"/>
	<path fill="#C88692" d="M400.912,133.952c0,0-0.895-15.83-9.855-22.994h12.938c0,0,4.979,14.038,1.393,24.931L400.912,133.952z"/>
	<path fill="#9E6538" d="M267.469,147.677c0,0,4.48,14.33,17.91,11.64c13.436-2.685,15.52-11.64,15.52-11.64l3.289,0.896
		c0,0-8.059,15.225-25.973,17.91c0,0-12.535-2.685-17.016-0.895c0,0-8.955-2.688-10.746-8.955
		C250.453,156.632,262.094,144.987,267.469,147.677"/>
	<path fill="#C88692" d="M230.75,139.616l-4.477,3.581c0,0-6.27-17.91-1.795-27.764h12.316
		C236.795,115.433,229.854,123.496,230.75,139.616"/>
	<path fill="#FFFFFF" d="M226.273,143.197c0,0,2.686,21.494,28.654,21.494c0,0-7.631-9.404-8.516-10.747
		c0,0,0.008,6.719,1.801,7.613c0,0-13.434-2.685-17.463-21.94L226.273,143.197z"/>
	<path fill="#94C9E0" d="M248.213,161.557c0,0-2.256-0.445-1.801-7.611c0,0-2.299-11.478,0.871-22.308
		c0,0-10.264,0.814-16.533,7.979C230.75,139.616,234.334,158.421,248.213,161.557"/>
	<path fill="#0081BE" d="M305.979,119.018c0,0-17.016-15.225-35.824-7.166c-18.805,8.06-22.871,19.786-22.871,19.786
		s-9.369,0.814-16.533,7.979c0,0-2.238-12.539,6.045-24.183c0,0,15.898,2.24,46.35-16.566l6.131-3.753
		C289.275,95.114,305.533,104.241,305.979,119.018"/>
	<path fill="#02060B" d="M321.084,176.52c-3.832,0-6.859-1.189-9.01-3.538c-4.131-4.525-3.434-11.665-3.402-11.967
		c0.051-0.491,0.494-0.859,0.982-0.795c0.49,0.049,0.85,0.492,0.797,0.984c-0.008,0.067-0.639,6.655,2.951,10.575
		c1.834,2.006,4.508,3.004,7.914,2.952c3.619-0.054,6.396-1.144,8.256-3.243c3.254-3.679,2.68-9.326,2.674-9.386
		c-0.053-0.487,0.303-0.93,0.795-0.984c0.496-0.045,0.93,0.297,0.988,0.786c0.029,0.266,0.674,6.479-3.107,10.763
		c-2.203,2.498-5.426,3.797-9.582,3.853C321.254,176.52,321.168,176.52,321.084,176.52"/>
	<path fill="#02060B" d="M340.512,52.407c0.891,0,1.67,0.248,2.063,0.796c1.207,1.68-3.895,9.957-6.584,9.957
		c-2.686,0-8.061-4.476-7.043-8.309c0.332-1.237,0.996-1.648,1.76-1.648c1.527,0,3.457,1.66,3.889,1.66
		c0.021,0,0.039-0.004,0.053-0.012l1.139,0.376C336.26,53.493,338.645,52.407,340.512,52.407 M340.512,50.617L340.512,50.617
		c-1.988,0-4.271,0.892-5.563,2.455c-0.102-0.063-0.234-0.141-0.34-0.205c-0.955-0.581-2.406-1.459-3.902-1.459l0,0
		c-0.811,0-2.77,0.291-3.488,2.979c-0.52,1.958,0.064,4.172,1.648,6.231c1.654,2.155,4.631,4.331,7.123,4.331
		c3.676,0,7.143-6.674,7.291-6.957c1.385-2.7,1.629-4.606,0.746-5.837C343.313,51.165,342.064,50.617,340.512,50.617"/>
	<path fill="#850C5C" d="M335.297,54.124l-0.369-0.125c-0.074-0.024-0.152-0.038-0.225-0.042c-0.137-0.07-0.373-0.212-0.559-0.322
		c-0.873-0.53-2.193-1.33-3.438-1.33c-0.75,0-2.088,0.3-2.621,2.313c-0.445,1.686,0.082,3.62,1.492,5.457
		c1.744,2.271,4.502,3.983,6.412,3.983c2.328,0,5.156-3.874,6.498-6.478c1.191-2.335,1.469-3.985,0.813-4.901
		c-0.543-0.75-1.533-1.167-2.789-1.167C338.551,51.512,336.273,52.471,335.297,54.124"/>
	<path fill="#02060B" d="M206.881,60.637c0.74,0.265,1.313,0.701,1.477,1.267c0.502,1.758-6.18,7.118-8.412,6.327
		c-2.229-0.796-5.367-6.103-3.385-8.983c0.641-0.931,1.313-1.077,1.943-0.85c1.27,0.454,2.379,2.398,2.74,2.527
		c0.016,0.006,0.031,0.01,0.047,0.006l0.836,0.651C203.027,60.28,205.328,60.084,206.881,60.637 M207.41,59.152L207.41,59.152
		c-1.65-0.587-3.811-0.524-5.346,0.392c-0.066-0.082-0.15-0.185-0.221-0.269c-0.623-0.77-1.564-1.922-2.811-2.368
		c-0.672-0.237-2.385-0.577-3.775,1.444c-1.008,1.472-1.178,3.478-0.475,5.661c0.736,2.275,2.566,4.968,4.631,5.703
		c3.055,1.086,7.91-3.433,8.115-3.623c1.945-1.829,2.713-3.339,2.344-4.623C209.576,60.435,208.701,59.611,207.41,59.152"/>
	<path fill="#C42A29" d="M195.908,58.797c-0.869,1.267-1,3.032-0.371,4.971c0.773,2.403,2.559,4.638,4.143,5.205
		c1.934,0.687,5.43-1.688,7.307-3.457c1.688-1.585,2.402-2.873,2.127-3.829c-0.223-0.785-0.924-1.422-1.967-1.793
		c-1.633-0.581-3.803-0.458-5.104,0.623l-0.271-0.209c-0.053-0.042-0.113-0.078-0.174-0.103c-0.092-0.099-0.246-0.287-0.363-0.432
		c-0.57-0.697-1.43-1.75-2.467-2.122c-0.201-0.071-0.469-0.139-0.775-0.139C197.377,57.512,196.609,57.786,195.908,58.797"/>
	<path fill="#02060B" d="M259.461,81.222c0.615,0,1.543,0.69,2.781,1.616c0.781,0.592,1.709,0.797,2.686,0.797
		c2.34,0,4.969-1.189,6.613-1.189c0.504,0,0.914,0.11,1.197,0.392c1.611,1.618-2.385,4.271-2.385,4.271s1.572,4.61,0,7.842
		c-0.453,0.92-1.045,1.249-1.66,1.249c-1.535,0-3.225-2.059-3.225-2.059s-2.369,3.559-4.064,3.559c-0.283,0-0.547-0.099-0.777-0.329
		c-1.615-1.614-4.84-3.23-6.352-4.844c-1.508-1.614,4.588-4.037,4.588-4.037C258.273,83.012,258.467,81.222,259.461,81.222
		 M259.461,79.608c-0.654,0-1.256,0.262-1.689,0.75c-0.889,0.991-1.059,2.714-0.633,7.112c-1.92,0.875-4.275,2.271-4.658,3.963
		c-0.176,0.79,0.051,1.588,0.615,2.196c0.902,0.966,2.236,1.866,3.529,2.735c1.074,0.726,2.189,1.476,2.861,2.149
		c0.523,0.522,1.186,0.798,1.918,0.798c1.6,0,3.164-1.429,4.26-2.739c0.814,0.638,1.887,1.243,3.029,1.243
		c0.768,0,2.195-0.284,3.111-2.159c1.336-2.739,0.814-6.153,0.398-7.91c1.023-0.836,2.363-2.205,2.516-3.727
		c0.09-0.867-0.213-1.691-0.842-2.322c-0.574-0.576-1.359-0.867-2.336-0.867c-0.955,0-2.023,0.276-3.152,0.566
		c-1.178,0.308-2.396,0.624-3.461,0.624c-0.742,0-1.287-0.153-1.719-0.472C261.709,80.422,260.621,79.608,259.461,79.608"/>
	<path fill="#850C5C" d="M258.371,80.896c-0.633,0.708-0.885,2.071-0.373,7.081c-1.498,0.644-4.377,2.069-4.729,3.637
		c-0.119,0.527,0.029,1.052,0.42,1.464c0.838,0.899,2.135,1.774,3.385,2.619c1.109,0.747,2.252,1.518,2.98,2.243
		c0.375,0.371,0.836,0.566,1.35,0.566c1.547,0,3.244-1.908,4.15-3.097c0.732,0.69,1.918,1.6,3.139,1.6
		c0.707,0,1.693-0.297,2.385-1.706c1.377-2.816,0.598-6.46,0.211-7.869c0.885-0.662,2.482-2.048,2.625-3.496
		c0.064-0.629-0.143-1.206-0.607-1.669c-0.418-0.418-1.01-0.629-1.766-0.629c-0.854,0-1.871,0.261-2.945,0.542
		c-1.229,0.317-2.5,0.647-3.668,0.647c-0.912,0-1.633-0.209-2.203-0.633c-1.426-1.072-2.373-1.781-3.264-1.781
		C259.033,80.415,258.654,80.582,258.371,80.896"/>
	<path fill="#B099C1" d="M254.037,66.178c0,0,4.756,4.727,9.539,3.704c0,0,3.604,0.774,7.33-0.57
		c3.729-1.344,32.783-12.313,33.93-13.993c1.143-1.681,11.889-11.531,10.994-19.591c-0.895-8.06-4.479-22.701-14.777-20.306
		C290.754,17.817,241.949,43.339,254.037,66.178"/>
	<path fill="#9CC49D" d="M280.902,41.998c0,0,15.227-0.896,17.912,4.479c0,0-4.477-20.6,0.895-25.974l1.344-5.081
		C301.053,15.422,278.215,8.859,280.902,41.998"/>
	<path fill="#B881AF" d="M280.902,41.998c0,0-15.223,1.791-20.598,10.745c0,0-0.895-22.389,4.479-25.97
		c5.371-3.581,28.658-14.641,36.27-11.351C301.053,15.422,279.559,8.414,280.902,41.998"/>
	<path fill="#BDCAE5" d="M260.305,52.743c0,0-7.164,4.48-6.268,13.436c0,0-14.33-6.27-7.168-21.495
		c7.168-15.224,17.914-17.91,17.914-17.91S260.752,29.012,260.305,52.743"/>
	<path fill="#A54C8E" d="M260.305,52.743c0,0,0.23,18.591,10.414,15.564c10.184-3.024,20.035-7.614,20.035-7.614
		s-9.852-3.47-9.852-18.695C280.902,41.998,262.988,44.683,260.305,52.743"/>
	<path fill="#02060B" d="M298.814,47.373c-0.436,0-0.818-0.319-0.885-0.762c-0.148-0.966-3.566-23.763,2.865-32.034
		c0.301-0.385,0.867-0.46,1.256-0.156c0.389,0.304,0.459,0.867,0.158,1.259c-5.961,7.661-2.545,30.43-2.508,30.659
		c0.076,0.488-0.266,0.944-0.75,1.019C298.906,47.366,298.861,47.373,298.814,47.373"/>
	<path fill="#342C7F" d="M240.6,72.843c0,0-11.641,1.396-13.43,14.83c-1.795,13.434,1.842,6.27,1.842,6.27
		S238.809,75.03,240.6,72.843"/>
	<path fill="#342C7F" d="M250.453,64.387c0,0-3.584-1.791-5.373-3.584c-1.789-1.79-4.48,6.269-6.271,6.269h-3.611
		c0,0,4.51,4.063,5.402,4.269C241.498,71.552,245.975,64.387,250.453,64.387"/>
	<path fill="#FFFFFF" d="M240.766,54.056c1.313,0.69,1.404,3.099,0.205,5.375s-3.238,3.56-4.549,2.869
		c-1.314-0.692-1.406-3.099-0.205-5.374C237.416,54.651,239.453,53.366,240.766,54.056"/>
	<path fill="#FFFFFF" d="M229.076,72.533c2.041,1.454,2.111,4.854,0.156,7.593c-1.953,2.738-5.191,3.775-7.23,2.32
		c-2.041-1.458-2.111-4.854-0.16-7.592C223.801,72.115,227.037,71.074,229.076,72.533"/>
	<path fill="#6F292F" d="M332.848,121.703c0,0,17.631-19.808,37.473-8.56s21.637,22.888,13.572,39.904c0,0,1.961-2.735-13.572-7.413
		c0,0,5.963-13.632-11.055-19.003c-17.018-5.375-22.377,12.984-22.377,12.984s-1.111,2.82-2.803-0.605
		C332.398,135.586,331.504,123.943,332.848,121.703"/>
	<path fill="#C88692" d="M283.588,321.419c0,0,1.791-14.329,16.121-15.225c14.334-0.896,11.643,12.536,11.643,12.536
		s-5.373,16.123-23.283,9.851c-17.914-6.266-13.434-11.641-13.434-11.641S280.902,321.419,283.588,321.419"/>
	<path fill="#C88692" d="M364.639,304.34c0,0-1.346,2.75-2.236,3.646c-0.898,0.894-2.689,3.581-2.689,3.581l0.895,1.793
		c0,0,21.496-11.644,32.244-29.554C392.852,283.805,367.326,304.727,364.639,304.34"/>
	<path fill="#C88692" d="M368.668,326.791c0,0,20.598-8.061,26.869,4.479c0,0,6.271-16.123-8.061-34.928
		c0,0-8.955,9.853-12.539,9.853C374.938,306.194,371.357,320.524,368.668,326.791"/>
	<path fill="#C88692" d="M246.869,277.536c0,0-3.578,1.79-3.578,4.476c0,2.689,17.908,20.599,29.551,22.39l-2.688,4.478
		c0,0-39.404-11.644-42.09-59.108c0,0,8.955,4.48,16.119,4.48C244.184,254.251,241.945,271.714,246.869,277.536"/>
	<polygon fill="#C88692" points="327.473,300.82 335.533,305.299 337.324,301.715 331.055,297.235 	"/>
	<path fill="#C88692" d="M340.012,303.509c0,0-6.27,10.746-5.375,12.536c0.896,1.79,16.121-0.898,16.121-0.898l0.627-11.638H340.012
		z"/>
	<path fill="#C88692" d="M353.756,303.509c0,0-0.582,9.85,0,10.296c0.582,0.45,8.936-1.344,6.996-12.536
		C360.752,301.27,354.963,301.715,353.756,303.509"/>
	<path fill="#C88692" d="M332.848,264.101c0,0,0.895,9.854-1.793,13.435c0,0,10.748-4.479,10.748-10.75
		C341.803,266.786,333.742,264.996,332.848,264.101"/>
	<path fill="#C88692" d="M322.098,256.936c0,0,19.705,5.372,22.391,4.48c2.689-0.896,7.166-19.705,6.27-22.39
		c-0.896-2.688,12.539,15.434,13.881,15.328c1.344-0.103,6.719-9.058,6.719-9.058s-5.375-14.33-8.061-14.33
		c-2.689,0,1.342,9.518,1.342,9.518s2.688,7.048-2.686,3.468c-5.375-3.582-13.436-13.602-15.225-13.965c0,0,0,22.919-1.791,23.815
		C343.148,254.697,322.098,256.936,322.098,256.936"/>
	<path fill="#FFFFFF" d="M272.842,257.477c0,0-8.059,3.043-4.477,11.999c3.584,8.954,9.602,12.535,23.16,9.849
		c13.559-2.685,10.873-19.703,8.184-19.703C297.023,259.622,272.842,257.477,272.842,257.477"/>
	<path fill="#9E6538" d="M263.885,283.805c0,0,6.17-6.27,10.25-4.48c4.082,1.792,13.934,5.375,21.994-0.895
		c0,0,8.732,0.521,11.529,4.293C307.658,282.723,286.273,302.61,263.885,283.805"/>
	<path fill="#4A1720" d="M233.793,249.771c0,0,58.395,14.121,109.174,2.583l1.076-26.313l-15.229-19.705l32.234-4.521
		c0,0,5.383,8.478,9.414,19.485c4.029,11.01-0.449,13.697-0.449,13.697s-0.904,5.166,5.371,3.928
		c6.271-1.244,22.865-12.749,22.865-12.749l-2.713-9.185l-6.07-10.687l-2.719-4.38c0,0-18.523,6.56-22.109,1.005
		c0,0-8.955-3.757-10.746-8.232c0,0-32.807,13.658-64.316-2.13c0,0-6.268,11.219-33.668,9.358l-3.375-0.919
		c0,0-18.836,25.95-18.74,44.748c0,0,1.881,2.677-0.805,2.677c-2.688,0-3.156,0.426-3.156,0.426L233.793,249.771z"/>
	<path fill="#DF9D60" d="M299.264,215.292c0,0-0.895,6.271,1.789,5.375c2.688-0.896,10.746-8.061,9.85-8.061
		c-0.895,0-0.895-1.794-3.578-1.794C304.633,210.812,299.264,215.292,299.264,215.292"/>
	<path fill="#B099C1" d="M317.58,235.272c-0.707-2.827-4.971-1.955-4.467,0.916c0.012,0.05,0.023,0.099,0.031,0.148
		c0.893,4.48,3.58,8.064,5.373,4.48c1.791-3.582-0.896-5.375-0.896-5.375L317.58,235.272z"/>
	<path fill="#A2C26E" d="M267.447,217.992l-10.723,9.39c0,0-5.939,1.354-2.969-4.696c2.969-6.05,10.129-10.819,10.129-10.819
		S271.008,213.968,267.447,217.992"/>
	<path fill="#FAE68A" d="M278.652,229.986c0,0-5.311-0.142-2.873,3.555c2.436,3.694,6.914,6.38,6.914,6.38s6.158-0.312,3.078-4.187
		C282.693,231.861,278.652,229.986,278.652,229.986"/>
	<path fill="#CA5391" d="M385.682,205.887l-9.602,9.896c0,0-2.143-0.418-2.535-2.92c-0.398-2.497,9.453-8.806,9.453-8.806
		L385.682,205.887z"/>
	<path fill="#9E6538" d="M387.477,211.99l-3.541,2.25c0,0-3.039-1.5-2.438,0l0.605,1.496l-4.475,3.585c0,0,2.684,10.622,5.369,9.789
		c2.684-0.83,10.75-5.31,10.75-5.31S391.957,210.929,387.477,211.99"/>
	<path fill="#9E6538" d="M332.398,208.742l15.672,18.559l12.223,12.62c0,0-3.266-16.121,2.109-13.436l5.371,2.687l-8.061-25.115
		L332.398,208.742z"/>
	<path fill="#9E6538" d="M254.928,208.244c0,0-6.268,10.359-4.475,12.511c1.791,2.151,8.818-9.178,10.23-8.888
		C262.094,212.156,254.928,208.244,254.928,208.244"/>
	<path fill="#9E6538" d="M270.906,214.633c0,0,3.436,4.462,0,8.605c-3.438,4.144-9.707,4.144-8.813,7.728
		c0.895,3.581,15.227,8.145,15.227,8.145l-0.895-3.669c0,0-6.271-7.801,0.895-7.929c7.166-0.13,15.764,9.886,13.705,11.598
		c-2.063,1.707,0.309,4.122,0.309,4.122l24.771,2.52c0,0-8.336-10.311-3.857-12.996c4.477-2.686,11.539,0.018,11.143,12.996
		c0,0,12.143,2.289,13.037-1.769c0.896-4.062,0-19.255,0-19.255s-11.371-15.257-15.535-13.917c-4.168,1.344-4.787,1.118-4.787,1.118
		s-11.578,15.048-14.211,13.683c-2.631-1.366-8.293-9.883-2.777-13.683c5.516-3.803,5.07-4.563,5.07-4.563h-4.291
		c0,0-3.322-3.716-5.113-1.925c-1.791,1.789-17.016,10.766-21.941,7.175C272.842,212.617,270.314,213.08,270.906,214.633"/>
	<path fill="#4A1720" d="M223.584,250.667c0,0,1.791,6.178,0,6.224c-1.791,0.045-13.43,0.941-13.43,0.941
		s8.055,26.869,32.238,35.825c0,0-15.672-21.753-16.119-36.179C226.273,257.477,225.824,250.221,223.584,250.667"/>
	<path fill="#B6659C" d="M391.521,209.92l4.016,7.07c0,0,5.375-3.938,1.789-6.624C393.748,207.681,391.521,209.92,391.521,209.92"/>
	<path fill="#B6659C" d="M374.75,242.278l-7.873,15.554c0,0,22.389-12.536,23.285-9.851c0.895,2.686,1.359,19.121,1.359,19.121
		s11.182-5.686,11.182-17.33c0-11.641-3.586-21.495-3.586-21.495S378.592,245.083,374.75,242.278"/>
	<path fill="#B6659C" d="M391.521,270.819l-5.834,12.15c0,0,9.906-1.726,12.563-8.06c2.662-6.329,3.492-13.395,3.492-13.395
		S396.457,270.37,391.521,270.819"/>
	<path fill="#FFFFFF" d="M327.473,300.82c0,0-6.725,5.99-6.049,9.263c0.674,3.277,10.24,5.925,10.24,5.925s4.764-9.813,3.869-10.708
		L327.473,300.82z"/>
	<path fill="#7DAC38" d="M318.518,258.73c0,0,2.686,19.7-8.955,25.075l6.543,3.478c0,0,12.264-6.163,9.576-24.976L318.518,258.73z"
		/>
	<path fill="#7DAC38" d="M252.533,281.286l3.939-2.856c0,0-6.873-10.873-1.969-22.454c0,0-7.404-0.924-7.969,0.914
		C245.975,258.73,244.768,274.288,252.533,281.286"/>
	<path fill="#95BA61" d="M309.563,283.805c0,0-27.367,25.971-53.09-5.375l-3.939,2.856c0,0,11.352,15.954,23.893,15.954
		c0,0,2.688,3.58,4.477,2.685c1.791-0.895,8.957-2.685,11.643-0.895c2.688,1.79,9.854,0,9.854,0s12.633-6.029,13.707-11.747
		L309.563,283.805z"/>
	<path fill="#B6003E" d="M306.875,403.813c0,0-8.061,9.433,0,14.122c0,0,8.955-9.646,25.973-4.271c0,0,0.895-8.955-3.584-10.746
		C329.264,402.918,316.279,410.53,306.875,403.813"/>
	<path fill="#C6455E" d="M308.666,420.829c0,0-0.896-7.165,12.537-8.06c13.434-0.896,14.914,9.036,1.189,10.787
		C308.666,425.309,308.666,420.829,308.666,420.829"/>
	<path fill="#DF9D60" d="M427.777,400.229c0,0,9.854-16.12,8.955-20.599c0,0,30.898-5.821,44.334,7.613
		c0,0-25.078,0.896-39.404,18.805c0,0-0.836,1.794-3.553,0C435.393,404.259,427.332,402.469,427.777,400.229"/>
	<path fill="#DF9D60" d="M426.883,402.918c0,0-5.371,3.581-1.791,4.476c3.58,0.896,8.061,4.479,8.061,4.479s4.479-2.689,4.479-3.584
		C437.631,407.394,426.883,402.918,426.883,402.918"/>
	<path fill="#DF9D60" d="M336.428,328.209c0,0,16.119-2.313,15.227-4.105c-0.896-1.789,11.643,16.121,11.643,16.121l-23.285-1.79
		L336.428,328.209z"/>
	<path fill="#DF9D60" d="M267.469,337.54c0,0,11.645-7.164,12.539-8.959c0,0,6.266,8.063,8.955,8.063
		c2.686,0,1.936,3.581,1.936,3.581s-19.85,1.333-23.43,3.354V337.54z"/>
	<path fill="#C45B31" d="M400.912,413.664c0,0-5.375,5.375-2.689,9.85c2.689,4.476,12.332-0.896,12.332-0.896L400.912,413.664z"/>
	<path fill="#F2D050" d="M269.26,487.998c0,0-21.492,6.269-23.285,5.371c-1.791-0.891,28.66,80.603,28.66,80.603l35.824-50.15
		C310.459,523.822,273.289,496.504,269.26,487.998"/>
	<polygon fill="#F2D050" points="241.498,476.354 249.631,475.458 256.725,464.713 236.125,456.653 	"/>
	<polygon fill="#2F2D2A" points="250.453,476.354 260.305,462.024 236.125,454.36 236.125,456.653 256.725,464.713 249.631,475.458 
		241.498,476.354 	"/>
	<path fill="#2F2D2A" d="M271.053,474.564c0-0.897,6.268-3.584,6.268-3.584l2.334-4.476l14.68,0.894v0.521L271.053,474.564z"/>
	<path fill="#B6659C" d="M294.016,480.9c0,0,45.916-14.49,57.908-23.016c0,0,5.113,2.954-28.951,48.788
		C322.973,506.673,294.873,484.312,294.016,480.9"/>
	<path fill="#B6659C" d="M339.117,520.237l20.596,16.121c0,0,27.807-62.615,37.189-110.119l-4.154,8.817c0,0-1.24-3.031-5.719,2.342
		C382.553,442.769,339.117,520.237,339.117,520.237"/>
	<path fill="#B6659C" d="M314.043,562.328l6.266-13.432l7.957-12.538l25.402,18.536l-3.807,0.272c0,0-24.18,17.91-34.926,17.91
		v-4.186l3.582-2.083l-3.582-0.896L314.043,562.328z"/>
	<path fill="#B6659C" d="M312.248,590.093l34.93-18.808l-9.854,25.076C337.324,596.362,312.248,590.988,312.248,590.093"/>
	<path fill="#C5313C" d="M399.117,330.376c-0.855,0.25-3.58,26.804-22.834,25.045c0,0,21.939,22.772,61.348,11.4
		c39.406-11.371,33.135-32.866,33.135-32.866l-12.287,2.141c0,0-6.152,20.684-9.246,18.005
		c-3.096-2.682-10.295-11.014-21.473-11.772c0,0-2.223,18.931-12.521,11.772c-10.297-7.161-8.383-17.209-7.996-18.005
		C407.627,335.3,406.732,328.134,399.117,330.376"/>
	<path fill="#C94B42" d="M188.66,348.286c0,0,1.559-13.227,16.451-18.254c14.893-5.031,6.748-6.945,6.748-6.945
		s-5.205,10.841-13.307,4.14c-8.104-6.702,0.414-19.326-7.873-21.074c-8.291-1.75-29.785,27.804-27.1,31.388
		C166.27,341.121,177.91,349.18,188.66,348.286"/>
	<path fill="#C94B42" d="M241.039,311.636c0,0-3.125-0.069-2.23,4.41c0.896,4.479,1.229-3.641,2.855-1.819
		C243.291,316.045,247.748,313.497,241.039,311.636"/>
	<path fill="#D6A7C6" d="M381.063,367.572l-13.541-13.471c0,0-32.773-11.166-35.516,6.737c-2.742,17.896,2.631,41.182,31.287,38.495
		c28.66-2.685,26.869-19.682,22.389-25.513c0,0-24.98-7.364-42.715,9.748C342.967,383.568,352.711,365.814,381.063,367.572"/>
	<path fill="#C88692" d="M301.271,343.58c0,0,5.379-3.398,6.387-6.061c1.008-2.666,10.305-8.725,13.715-7.487
		c3.414,1.238,4.582-0.397,7.133,6.69c2.549,7.087,8.322,6.213,8.322,6.213l3.619-2.739c0,0-3.449,1.256-4.182-2.491
		c-0.732-3.75-3.348-11.436-3.348-11.436s-0.07-4.852-2.76-4.852c-2.686,0-12.531-2.521-16.115-1.708
		c-3.584,0.814,1.078,6.186-7.521,8.871c0,0-2.441,7.164-4.627,11.644c0,0-2.6,1.789-4.186,0
		C296.129,338.436,297.459,346.039,301.271,343.58"/>
	<path fill="#B6659C" d="M240.299,370.003c0,0,14.629-0.475,20.006-3.931c5.375-3.458,18.93-15.41,18.93-15.41
		s18.266-5.313,22.955,4.665c0,0-4.271-16.811-22.182-12.374c-17.914,4.437-16.123,4.376-16.123,4.376s-0.236-1.203,0.777-3.255
		c1.018-2.06-0.045-4.744-1.754-3.849c-1.709,0.896-10.375,4.731-10.375,4.731s-3.889,8.329-7.908,7.62
		c-4.025-0.707-13.875,1.083-14.771,5.559c-0.895,4.479,2.938,37.916,18.934,46.277c0,0,7.938,2.087,11.518-0.599
		C260.305,403.813,236.863,390.375,240.299,370.003"/>
	<path fill="#C88692" d="M318.107,504.783l5,5c0,0,27.951-40.145,33.402-53.129c0,0-0.457-2.792-2.656-2.293
		c-2.199,0.499-4.885,8.789-38.023,17.181v-6.185l35.373-20.798l11.646-7.161c0,0,22.492,1.192,31.396-17.315
		c0,0,2.678-3.21,2.656,6.156l-4.154,8.817c0,0-3.506-3.485-9.092,7.487l-44.539,77.694l20.596,16.121l-6.045,18.536l-25.402-18.536
		l-11.094,14.778l-0.641-48.427L318.107,504.783z"/>
	<path fill="#C88692" d="M316.736,573.077l0.604,14.273l29.834-16.064l6.494-16.392l-3.807,0.272
		C349.861,555.167,327.045,571.733,316.736,573.077"/>
	<polygon fill="#C88692" points="266.574,458.444 271.053,474.564 277.32,470.98 279.654,466.504 294.338,467.398 312.248,459.338 	
		"/>
	<polygon fill="#C88692" points="316.736,592.759 316.736,603.254 331.951,606.211 335.203,596.362 	"/>
	<polygon fill="#FFFFFF" points="299.709,598.157 316.736,603.254 316.736,592.759 311.352,590.988 299.709,595.505 	"/>
	<path fill="#FFFFFF" d="M317.34,587.35c0,0-27.566,11.697-32,9.012c-4.438-2.686-9.811-21.494-9.811-21.494
		s35.822-44.882,36.719-50.65c0,0-34.928-26.369-40.299-38.014l-26.959,4.083l-3.492-12.143c0,0,39.404-1.874,70.75-16.162
		c31.346-14.284,50.602-24.584,50.602-24.584l-47.018,27.959v6.185l-24.629,8.842c0,0,21.098,20.468,25.328,22.326l0.641,48.427
		l-22.834,31.94l22.398-10L317.34,587.35z"/>
	<polygon fill="#FFFFFF" points="260.305,462.024 250.453,476.354 271.049,474.564 266.574,458.444 290.148,458.903 288.9,456.653 
		262.988,452.173 232.539,442.324 236.125,454.36 	"/>
	<path fill="#C88692" d="M314.936,605.318c0,0,15.223,1.896,14.773,3.188c-0.445,1.29-6.713,22.39-19.25,21.242
		C310.459,629.749,315.832,607.108,314.936,605.318"/>
	<path fill="#C88692" d="M289.152,605.318c0,0-1.98-3.582,1.602-3.582c3.58,0,6.27-2.252,6.27-2.252l-2-2.723l-8.246,2.723
		C286.777,599.484,288.441,605.318,289.152,605.318"/>
	<path fill="#C88692" d="M270.154,441.424c0,0,13.205-1.469,15.561-10.137c0,0,28.648,13.566,67.668-1.358l7.873,5.749
		l-39.363,20.976c0,0-27.52,1.238-30.895-2.293c-3.377-3.527,30.656,0.053,25.281-3.527c-5.377-3.584-23.367-3.228-28.252-7.437
		C283.145,439.189,275.08,455.309,270.154,441.424"/>
	<path fill="#C88692" d="M237.914,398.438c0,0-1.789,3.938-1.789,5.998c0,2.063,11.643,9.228,14.328,6.542
		c2.688-2.688-1.334,0-11.414-12.54H237.914z"/>
	<path fill="#C45B31" d="M230.75,350.974l15.225-4.48c0,0,0.895,1.792-2.684,3.584c-3.586,1.791-12.541,3.581-12.541,3.581V350.974z
		"/>
	<path fill="#C5313C" d="M370.002,310.083c0,0-12.08,1.487-6.705,21.187C363.297,331.27,372.23,319.346,370.002,310.083"/>
	<path fill="#D6A7C6" d="M423.709,316.212c0,0-12.76-2.343-9.719,1.878c3.041,4.225,10.207,7.805,11.998,5.119
		C427.777,320.524,426.801,316.377,423.709,316.212"/>
	<path fill="#D6A7C6" d="M437.631,321.419c0,0-11.246,2.176-6.52,6.911C435.838,333.06,440.316,325,437.631,321.419"/>
	<path fill="#D6A7C6" d="M413.521,332.102c0,0-3.654,8.124,1.717,9.019C420.613,342.014,424.342,332.042,413.521,332.102"/>
	<path fill="#D6A7C6" d="M221.879,294.78c-0.41-0.918-5.461,0.666-3.67,4.25C220.004,302.61,225.543,303.067,221.879,294.78"/>
	<path fill="#D6A7C6" d="M224.479,312.464c0,0-8.922,2.562-4.012,7.996C225.375,325.896,226.273,314.255,224.479,312.464"/>
	<path fill="#D6A7C6" d="M211.859,298c0,0-13.078,1.925-9.186,6.403c2.645,3.037,7.207,1.126,9.865-0.417
		c1.668-0.97,2.508-3.015,1.809-4.81C213.982,298.241,213.26,297.586,211.859,298"/>
	<path fill="#B13785" d="M212.984,312.464c0,0-5.697-3.478-4.713,8.559c0,0,4.498-2.791,6.322-0.75
		C216.418,322.315,215.818,312.464,212.984,312.464"/>
	<path fill="#B13785" d="M231.355,317.177c0,0-0.605,7.824-2.396,8.719c-1.789,0.895,4.48,0.895,4.48-0.896
		s0.477-19.702,7.85-16.121c7.375,3.582,15.225,5.325,14.432-0.47c-0.793-5.799-5.496,2.886-18.365-10.409
		c0,0-2.023,6.942-4.313,8.014C230.75,307.09,234.646,316.522,231.355,317.177"/>
	<path fill="#B13785" d="M433.35,336.641c0,0,1.594,5.374,8.758,3.584c7.166-1.79,8.246-16.598,1.885-16.358
		c0,0,4.389,9.6-3.225,12.53C440.768,336.397,436.234,338.428,433.35,336.641"/>
	<path fill="#C88692" d="M391.957,401.125c0,0-6.518,0.896-3.709,2.689C391.057,405.604,392.852,402.914,391.957,401.125"/>
	<path fill="#C88692" d="M395.834,401.125c0,0-1.234,1.181-1.213,3.28c0.021,2.095-2.711,6.092,0,6.779c0,0-1.797,6.875,0.006,6.469
		c1.805-0.407,4.775-2.668,2.848-8.256C397.475,409.396,401.506,402.914,395.834,401.125"/>
	<path fill="#E2A869" d="M401.809,295.445l-6.271,5.824c0,0,11.041,4.029,10.895,2.24
		C406.281,301.715,401.809,295.445,401.809,295.445"/>
	<path fill="#E2A869" d="M405.387,292.759c0.895,0,7.166,11.642,7.166,11.642s6.604-4.911,6.436-4.695
		c-0.166,0.219-6.797-12.236-6.797-12.236L405.387,292.759z"/>
	<path fill="#E2A869" d="M415.242,284.701c0,0,7.16,10.745,8.057,11.641c0.898,0.899,6.268-4.476,6.268-4.476l-8.953-11.645
		L415.242,284.701z"/>
	<polygon fill="#E2A869" points="425.092,276.64 434.195,290.188 438.527,285.596 429.566,272.243 	"/>
	<path fill="#E2A869" d="M438.438,266.85c0,0-3.994,0.916-5.088,3.563l9.652,13.392l5.375-4.48L438.438,266.85z"/>
	<path fill="#E2A869" d="M432.258,308.879l2.686,4.48c0,0-5.791-2.688-5.582-2.239C429.566,311.566,432.258,308.879,432.258,308.879
		"/>
	<polygon fill="#E2A869" points="434.943,307.09 443.002,319.63 447.482,316.94 440.768,304.188 	"/>
	<path fill="#E2A869" d="M445.689,302.61l6.268,12.537l5.396-3.238l-5.832-12.568C451.521,299.341,445.689,300.82,445.689,302.61"/>
	<path fill="#C42C31" d="M401.809,295.445l3.578-2.686c0,0,0.895-0.894,7.166,11.642l-6.121-0.892L401.809,295.445z"/>
	<path fill="#C42C31" d="M412.191,287.47c0,0,5.736,11.56,6.797,12.236c0.234,0.148,4.529-3.263,4.529-3.263l-8.275-11.743
		L412.191,287.47z"/>
	<polygon fill="#C42C31" points="420.613,280.221 425.092,276.64 434.195,290.188 429.566,291.866 	"/>
	<path fill="#C42C31" d="M433.35,270.413l-3.783,1.83c0,0,8.064,13.354,8.961,13.354c0.895,0,4.475-1.791,4.475-1.791
		L433.35,270.413z"/>
	<path fill="#C42C31" d="M438.438,266.85l9.939,12.475c0,0,3.58-6.269-1.789-10.745C441.213,264.101,438.438,266.85,438.438,266.85"
		/>
	<polygon fill="#C42C31" points="445.689,302.61 440.768,304.188 447.482,316.94 451.957,315.147 	"/>
	<polygon fill="#C42C31" points="434.943,307.09 432.258,308.879 434.943,313.359 443.002,319.63 	"/>
	<path fill="#C42C31" d="M191.344,283.805l9.854-9.851l-1.793-2.688c0,0-7.943-1.875-10.688,9.362l0.838,4.073L191.344,283.805z"/>
	<path fill="#E2A869" d="M196.719,288.281c0.895-0.896,8.955-10.746,8.955-10.746l-4.477-3.582l-9.854,9.851l-1.789,0.896
		L196.719,288.281z"/>
	<polygon fill="#C42C31" points="196.719,288.281 201.953,290.843 210.154,281.12 205.674,277.536 	"/>
	<polygon fill="#E2A869" points="201.953,290.843 206.488,293.67 212.105,290.074 214.594,290.843 218.482,288.281 210.154,281.12 	
		"/>
	<polygon fill="#C88692" points="297.023,482.623 315.83,499.639 314.936,476.354 	"/>
	<path fill="#B6659C" d="M313.145,563.227c-0.896,0.896-14.33,16.118-14.33,16.118l16.121-6.269v-4.186l3.582-2.083l-3.582-0.896
		l-0.898-3.584L313.145,563.227z"/>
</g>
</svg>
