<?xml version="1.0" encoding="utf-8"?>
<!-- Generator: Adobe Illustrator 21.0.0, SVG Export Plug-In . SVG Version: 6.00 Build 0)  -->
<svg version="1.1" id="Capa_1" xmlns="http://www.w3.org/2000/svg" xmlns:xlink="http://www.w3.org/1999/xlink" x="0px" y="0px"
	 viewBox="0 0 648 648" style="enable-background:new 0 0 648 648;" xml:space="preserve">
<style type="text/css">
	.st0{fill:#C10032;}
	.st1{fill:#CA5391;}
	.st2{fill:#E1ABB7;}
	.st3{fill:#CF6B75;}
	.st4{fill:#E7C5A4;}
	.st5{fill:#B099C1;}
	.st6{fill:#F6F5F4;}
	.st7{fill:#83B0DB;}
	.st8{fill:#FBE434;}
	.st9{fill:#02060B;}
</style>
<path class="st0" d="M382.7,451.2c0-0.1-0.1-0.3-0.1-0.4c-0.1-0.3-0.2-0.6-0.3-0.8c-0.1-0.1-0.1-0.3-0.2-0.4
	c-0.1-0.2-0.3-0.5-0.4-0.7c-0.1-0.1-0.2-0.3-0.3-0.4c-0.2-0.2-0.4-0.4-0.5-0.5s-0.2-0.2-0.4-0.3c-0.2-0.2-0.4-0.3-0.7-0.4
	c-0.1-0.1-0.3-0.2-0.4-0.2c-0.3-0.1-0.6-0.3-1-0.3c-0.1,0-0.1-0.1-0.2-0.1c-0.4-0.1-0.8-0.1-1.3-0.1s-1,0.1-1.5,0.2
	c-2.8,0.8-6.8,2.6-8.7,6.9c0,0-2.1-3.8-5.5-6c-0.3-0.2-0.7-0.4-1-0.5c-0.1,0-0.2-0.1-0.3-0.1c-0.2-0.1-0.5-0.2-0.7-0.2
	c-0.1,0-0.2-0.1-0.3-0.1c-0.2,0-0.5-0.1-0.7-0.1c-0.1,0-0.2,0-0.3,0c-0.3,0-0.6,0-0.8,0H357c-0.3,0-0.6,0.1-1,0.2
	c-0.1,0-0.1,0-0.1,0c-0.3,0.1-0.5,0.2-0.7,0.3c-0.1,0-0.2,0.1-0.2,0.1c-0.2,0.1-0.4,0.2-0.6,0.3c-0.1,0-0.1,0.1-0.2,0.1
	c-0.2,0.2-0.5,0.3-0.7,0.5c0,0-0.1,0-0.1,0.1c-0.2,0.2-0.5,0.4-0.7,0.7c0,0.1-0.1,0.1-0.1,0.2c-0.1,0.2-0.3,0.4-0.4,0.6
	c-0.1,0.1-0.1,0.2-0.2,0.3c-0.1,0.2-0.2,0.4-0.3,0.6c0,0.1-0.1,0.2-0.1,0.3c-0.1,0.3-0.2,0.5-0.3,0.8v0.1c-0.1,0.3-0.1,0.6-0.1,1
	c0,0.1,0,0.2,0,0.3c0,0.2,0,0.5,0,0.7c0,0.1,0,0.2,0,0.3c0,0.2,0.1,0.5,0.2,0.7c0,0.1,0.1,0.2,0.1,0.3c0.1,0.3,0.2,0.7,0.4,1
	c0.7,1.3,1.7,2.8,3.1,4.3c0.4,0.4,0.8,0.9,1.2,1.3c0.1,0.1,0.2,0.3,0.3,0.4c0.3,0.3,0.6,0.7,0.9,1c0.1,0.1,0.2,0.3,0.4,0.4
	c0.3,0.3,0.6,0.7,0.9,1c0.1,0.1,0.2,0.3,0.4,0.4c0.3,0.4,0.6,0.7,0.9,1.1c0.1,0.1,0.2,0.2,0.3,0.4c0.3,0.4,0.6,0.8,0.9,1.2
	c0.1,0.1,0.2,0.2,0.3,0.3c0.3,0.4,0.6,0.8,0.9,1.2l0.1,0.1c1.3,1.7,2.6,3.3,3.7,4.7c0.1,0.1,0.2,0.3,0.3,0.4
	c0.2,0.2,0.3,0.4,0.5,0.6c0.1,0.2,0.3,0.3,0.4,0.5s0.3,0.3,0.4,0.5s0.3,0.3,0.4,0.5c0.1,0.1,0.2,0.2,0.3,0.4
	c0.1,0.1,0.2,0.3,0.3,0.4c0.1,0.1,0.1,0.2,0.2,0.3c0.1,0.1,0.2,0.2,0.3,0.3c0.1,0.1,0.1,0.1,0.2,0.2s0.1,0.1,0.2,0.2
	c0,0,0.1,0,0.1,0.1h0.1c0.3-0.5,12.5-16.3,13-25.8C382.8,452,382.8,451.6,382.7,451.2z"/>
<path class="st1" d="M463.1,259.3c-21.3,0-38.6,17.3-38.6,38.6c0,21.3,17.3,38.6,38.6,38.6c21.3,0,38.6-17.3,38.6-38.6
	C501.7,276.6,484.4,259.3,463.1,259.3z M488.7,313c0.8-19.2-11.3-29.2-11.3-29.2l9.2-7.2C503,293.3,488.7,313,488.7,313z"/>
<path class="st2" d="M486.7,276.6l-9.2,7.2c0,0,12,10,11.3,29.2C488.7,313,503,293.3,486.7,276.6z"/>
<path class="st3" d="M415.5,299.7c-3.8-11.5,7.4-16.1,7.4-16.1c0-3.8,10.7-17.7,10.7-17.7c-10.7,1.7-20,15.4-26.1,22.3
	s1.8,17.7,1.8,17.7c7.4,14.3,15.2,13.3,15.2,13.3l-4.7-15.6C417.1,303,415.5,299.7,415.5,299.7z"/>
<g>
	<path class="st4" d="M539.9,251.8c-103.1,19.1-124.9-71-124.9-71c-15.7-36.2,4.4-82.9,4.4-82.9c-24.3-2.6-59.1-21.5-59.1-21.5
		c-9.6,19.7-22.4,33.5-22.4,33.5c28,34.4,36.4,64.5,35.6,89c0,1.4-0.1,2.7-0.2,4.1c0,0.3,0,0.5-0.1,0.8c-0.1,1.1-0.2,2.2-0.3,3.3
		c0,0.3-0.1,0.7-0.1,1c-0.2,1.3-0.4,2.6-0.6,3.9c0,0.2-0.1,0.4-0.1,0.6c-0.2,1.1-0.4,2.2-0.6,3.3c-0.1,0.3-0.1,0.6-0.2,0.9
		c-0.3,1.2-0.6,2.4-0.9,3.6c0,0.1,0,0.2-0.1,0.3c-0.3,1.1-0.6,2.2-1,3.3c-0.1,0.3-0.2,0.6-0.3,0.8c-0.7,2.3-1.5,4.5-2.4,6.7
		c-0.1,0.2-0.2,0.5-0.3,0.7c-0.4,1-0.8,2-1.3,3c0,0.1,0,0.1-0.1,0.2c-0.5,1-0.9,2-1.4,3c-0.1,0.2-0.2,0.4-0.3,0.6
		c-0.4,0.9-0.9,1.8-1.3,2.6c-0.1,0.1-0.1,0.2-0.2,0.3c-0.5,0.9-1,1.9-1.5,2.8c-0.1,0.2-0.2,0.3-0.3,0.5c-0.5,0.8-0.9,1.6-1.4,2.3
		c-0.1,0.1-0.1,0.2-0.2,0.3c-0.5,0.8-1.1,1.7-1.6,2.5c-0.1,0.1-0.1,0.2-0.2,0.3c-0.5,0.7-0.9,1.4-1.4,2.1c-0.1,0.1-0.1,0.2-0.2,0.3
		c-0.5,0.7-1.1,1.5-1.6,2.2c-6.8,9.1-12.7,14-12.7,14c-57.3,63-127.1,31.4-127.1,31.4v2.3v26c14.4,12.8,30.9,22.3,46.9,29.3
		c2.1,0.9,4.3,1.8,6.4,2.7c0.7,0.3,1.3,0.5,2,0.8c1.5,0.6,3.1,1.2,4.6,1.8c0.7,0.3,1.5,0.5,2.2,0.8c1.7,0.6,3.3,1.2,5,1.7
		c0.5,0.2,1.1,0.4,1.6,0.5c2.2,0.7,4.4,1.4,6.5,2c0.6,0.2,1.1,0.3,1.7,0.5c1.7,0.5,3.3,0.9,5,1.4c0.8,0.2,1.5,0.4,2.3,0.6
		c1.6,0.4,3.1,0.8,4.7,1.1c0.7,0.2,1.4,0.3,2.1,0.5c2.2,0.5,4.5,0.9,6.7,1.3c0.1,0,0.3,0,0.4,0.1c2.1,0.4,4.3,0.7,6.4,1
		c0.7,0.1,1.4,0.2,2.2,0.3c1.6,0.2,3.2,0.4,4.8,0.6c0.8,0.1,1.5,0.2,2.3,0.3c1.8,0.2,3.6,0.4,5.4,0.5c0.5,0,1,0.1,1.5,0.1
		c2.3,0.2,4.6,0.3,6.9,0.4c0.6,0,1.1,0,1.7,0.1c1.8,0.1,3.5,0.1,5.3,0.2c0.7,0,1.5,0,2.2,0c1.5,0,3.1,0,4.6,0c1,0,1.9,0,2.9,0
		c1.5,0,3-0.1,4.6-0.2c0.9,0,1.8-0.1,2.7-0.1c1.7-0.1,3.4-0.2,5-0.3c0.7-0.1,1.5-0.1,2.2-0.2c2.4-0.2,4.8-0.5,7.3-0.7
		c2.7-0.3,5.3-0.7,7.8-1.1c0.7-0.1,1.5-0.2,2.2-0.3c2-0.3,3.9-0.6,5.9-1c0.6-0.1,1.2-0.2,1.8-0.3c2.4-0.5,4.8-1,7.2-1.5
		c0.5-0.1,1-0.2,1.5-0.4c1.9-0.4,3.8-0.9,5.6-1.3c0.7-0.2,1.4-0.3,2-0.5c2-0.5,3.9-1.1,5.8-1.6c0.3-0.1,0.6-0.2,0.9-0.3
		c2.2-0.6,4.3-1.3,6.4-2c0.6-0.2,1.2-0.4,1.7-0.6c1.6-0.6,3.2-1.1,4.8-1.7c0.6-0.2,1.1-0.4,1.6-0.6c2-0.8,4-1.5,5.9-2.3
		c0.3-0.1,0.6-0.3,0.9-0.4c1.7-0.7,3.3-1.4,4.9-2.2c0.5-0.2,1.1-0.5,1.6-0.7c1.5-0.7,3.1-1.4,4.5-2.2c0.3-0.2,0.7-0.3,1-0.5
		c1.8-0.9,3.5-1.8,5.2-2.8c0.4-0.2,0.8-0.5,1.2-0.7c1.4-0.8,2.7-1.5,4-2.3c0.4-0.3,0.9-0.5,1.3-0.8c1.6-1,3.2-2,4.8-3l0,0
		c1.6-1,3.1-2,4.5-3.1c0.4-0.3,0.8-0.6,1.2-0.8c1.2-0.9,2.4-1.7,3.6-2.6c0.3-0.2,0.6-0.4,0.9-0.6c1.4-1.1,2.8-2.2,4.2-3.2
		c0.1-0.1,0.2-0.1,0.3-0.2c-4.4,2.6-9.3,4.5-14.5,5.4c2.2,0,4.6-0.1,7-0.2c0,0-29.4,11.1-48.8-14.1c0,0-17.1,0.1-25.3-19.7
		c0,0,1.7,5.8-11.3,18.1l-3.6-3.1c0,0,27.1-26.6,0-58.7l6.8-2.7c0,0,9.4,17.3,10,24.6c0,0,19.7-29.8,34.6-21.6
		c6.7-4.4,14.7-6.9,23.2-6.9c23.5,0,42.5,19,42.5,42.5c0,9.8-3.4,18.8-8.9,26c0.1-0.1,0.2-0.2,0.3-0.3c5.1-5,9.6-10.1,13.6-15.1
		c0.1-0.1,0.1-0.2,0.2-0.2c1.3-1.6,2.5-3.2,3.7-4.8c0.1-0.1,0.2-0.3,0.3-0.4c1.1-1.5,2.2-3.1,3.3-4.6c0.1-0.1,0.2-0.3,0.3-0.4
		c1-1.5,2-3,3-4.5c0.1-0.1,0.2-0.3,0.3-0.4c0.9-1.5,1.8-3,2.7-4.4c0.1-0.1,0.1-0.2,0.2-0.3c0.9-1.5,1.7-3,2.5-4.4c0,0,0-0.1,0.1-0.1
		c1.2-2.2,2.3-4.4,3.3-6.5s1.9-4.1,2.8-6v-0.1c0.5-1.2,1-2.4,1.5-3.5c0-0.1,0.1-0.1,0.1-0.2c0.5-1.1,0.9-2.2,1.2-3.2
		c0-0.1,0.1-0.1,0.1-0.2c0.4-1,0.7-2,1-2.8c0-0.1,0-0.1,0.1-0.2c0.3-0.9,0.6-1.8,0.9-2.5v-0.1c0.2-0.7,0.4-1.3,0.6-1.9
		c0-0.1,0.1-0.2,0.1-0.3l0,0C539.6,253.4,539.9,251.8,539.9,251.8z"/>
	<polygon class="st4" points="393.5,486.6 379.2,495.9 382.8,562.1 393.5,587.3 	"/>
	<path class="st4" d="M370.7,559.3l-1.6-42.3l-0.2-4.3l-53.8-1c-0.1,0.5,0,1.5,0.2,2.9c0.1,0.9,0.3,1.9,0.5,3.1c0,0.1,0,0.2,0.1,0.2
		c0.3,1.5,0.7,3.2,1.1,5.2l0,0c3.9,16.5,12.6,46.5,18.5,66.2c3.3,11.1,5.7,18.9,5.7,18.9h0.8h52.7
		C375.6,590.2,370.7,559.3,370.7,559.3z M361.1,583.9c0,0-0.5,11.4-6.1,9c-4.1-1.7-3.7-6.7-3.2-9.4c0.2-1.1,0.4-2.2,0.6-3.2
		c0.3-2.1,1.3-5.5,4.8-4.6C362.1,576.9,361.1,583.9,361.1,583.9z"/>
	<path class="st4" d="M395.3,424c0-0.2,0-0.5,0-0.7c0-0.1,0-0.3,0-0.4c0-0.3,0-0.5,0-0.8c0-0.1,0-0.3,0-0.4c0-0.3,0-0.5-0.1-0.8
		c0-0.1,0-0.2,0-0.3c0-0.3-0.1-0.6-0.1-0.9c0-0.1,0-0.1,0-0.2c-0.1-1.1-0.3-2.1-0.6-3.2v-0.1c-0.1-0.3-0.1-0.5-0.2-0.8
		c0-0.1-0.1-0.2-0.1-0.4c-0.1-0.2-0.2-0.4-0.2-0.7c-0.1-0.1-0.1-0.3-0.2-0.4c-0.1-0.2-0.2-0.4-0.3-0.6c-0.1-0.1-0.1-0.3-0.2-0.4
		c-0.1-0.2-0.2-0.4-0.3-0.6c-0.1-0.1-0.2-0.3-0.2-0.4c-0.1-0.2-0.2-0.3-0.3-0.5c-0.1-0.1-0.2-0.3-0.3-0.4c-0.1-0.2-0.2-0.3-0.4-0.5
		c-0.1-0.1-0.2-0.3-0.3-0.4c-0.1-0.1-0.3-0.3-0.4-0.4s-0.2-0.2-0.4-0.3c-0.1-0.1-0.3-0.2-0.4-0.4c-0.1-0.1-0.3-0.2-0.4-0.3
		c-0.2-0.1-0.3-0.2-0.5-0.3c-0.2-0.1-0.3-0.2-0.5-0.2c-0.2-0.1-0.3-0.2-0.5-0.2c-0.2-0.1-0.3-0.1-0.5-0.2s-0.4-0.1-0.6-0.2
		c-0.2,0-0.4-0.1-0.6-0.1s-0.4-0.1-0.6-0.1s-0.4,0-0.6,0s-0.4,0-0.7,0c-0.3,0-0.5,0-0.8,0c-0.2,0-0.4,0-0.6,0c-0.5,0-1,0.1-1.5,0.2
		l13.1,24.3c0,0,0-0.1,0-0.2v-0.1c0,0,0-0.1,0-0.2s0-0.1,0-0.2s0-0.2,0-0.3c0-0.1,0-0.1,0-0.2s0-0.2,0-0.3c0-0.1,0-0.2,0-0.3
		c0-0.1,0-0.2,0-0.4c0-0.1,0-0.2,0-0.3c0-0.1,0-0.3,0-0.4s0-0.2,0-0.3c0-0.2,0-0.3,0-0.5c0-0.1,0-0.2,0-0.3c0-0.2,0-0.4,0-0.6
		c0-0.1,0-0.2,0-0.3c0-0.2,0-0.4,0-0.6c0-0.1,0-0.2,0-0.4c0-0.2,0-0.4,0-0.7c0-0.1,0-0.3,0-0.4c0-0.2,0-0.5,0-0.7
		C395.3,424.2,395.3,424.1,395.3,424z"/>
	<path class="st4" d="M371.8,409.2L367,388h-28.5l-3.5,19.1l-0.4,1.9c0,0,23.8,10.5,37.6,2.3L371.8,409.2z"/>
	<path class="st4" d="M326,584.4c-0.6-1.7-1.2-3.4-1.7-5.1c-0.5-1.6-1-3.1-1.5-4.7c-0.5-1.7-1.1-3.3-1.6-5c-0.5-1.5-1-3-1.4-4.5
		c-0.5-1.6-1-3.2-1.5-4.8c-0.4-1.5-0.9-3-1.3-4.4c-0.4-1.6-0.9-3.1-1.3-4.6c-0.4-1.4-0.8-2.8-1.2-4.2c-0.4-1.5-0.8-3-1.2-4.5
		c-0.4-1.4-0.7-2.7-1.1-4.1c-0.4-1.5-0.7-2.9-1.1-4.4c-0.3-1.3-0.6-2.6-0.9-3.9c-0.3-1.4-0.7-2.9-1-4.3c-0.3-1.2-0.6-2.5-0.8-3.7
		c-0.3-1.4-0.6-2.8-0.9-4.2c-0.2-1.2-0.5-2.3-0.7-3.5c-0.3-1.4-0.6-2.8-0.8-4.2c-0.2-1-0.4-2.1-0.6-3.1c-0.3-1.5-0.6-3-0.8-4.5
		c-0.1-0.8-0.3-1.7-0.4-2.5c-0.4-2.3-0.7-4.5-1.1-6.6c-0.1-0.8-0.2-1.6-0.4-2.4c-0.2-1.3-0.4-2.7-0.6-3.9c-0.1-0.9-0.2-1.8-0.4-2.7
		c-0.1-1.1-0.3-2.2-0.4-3.3c-0.1-0.9-0.2-1.8-0.3-2.7c-0.1-1-0.2-2-0.3-3c-0.1-0.9-0.2-1.7-0.3-2.6c-0.1-0.9-0.2-1.9-0.3-2.8
		c-0.1-0.8-0.1-1.7-0.2-2.5c-0.1-0.9-0.1-1.8-0.2-2.6c-0.1-0.8-0.1-1.6-0.2-2.3c-0.1-0.8-0.1-1.6-0.1-2.4c0-0.7-0.1-1.5-0.1-2.2
		s-0.1-1.5-0.1-2.2s0-1.4-0.1-2c0-0.7,0-1.4-0.1-2.1c0-0.6,0-1.2,0-1.9c0-0.7,0-1.3,0-1.9s0-1.1,0-1.7s0-1.2,0-1.7s0-1,0-1.5
		s0-1.1,0-1.6s0-0.9,0-1.3c0-0.5,0-1,0.1-1.4c0-0.4,0-0.8,0.1-1.2c0-0.4,0-0.8,0.1-1.3c0-0.3,0-0.7,0.1-1c0-0.4,0.1-0.7,0.1-1.1
		c0-0.3,0-0.6,0.1-0.8c0-0.3,0.1-0.6,0.1-0.9c0-0.2,0-0.4,0.1-0.6c0-0.3,0-0.5,0.1-0.7c0-0.2,0-0.4,0.1-0.5c0-0.2,0-0.4,0.1-0.5
		c0-0.1,0-0.2,0-0.3c0-0.2,0-0.3,0.1-0.4v-0.1c0-0.1,0-0.2,0-0.2c0.5-0.5,0.9-0.9,1.4-1.2c0.1-0.1,0.2-0.1,0.3-0.2
		c0.3-0.2,0.6-0.4,0.8-0.6c0.1-0.1,0.2-0.1,0.4-0.2c0.2-0.1,0.4-0.2,0.6-0.3c0.1,0,0.2-0.1,0.4-0.1c0.2,0,0.3-0.1,0.5-0.1
		c0.1,0,0.2,0,0.2,0c0.3,0,0.5,0.1,0.7,0.2c0.1,0,0.1,0,0.2,0.1c0.2,0.1,0.4,0.3,0.6,0.5l0.1,0.1c0.1,0.2,0.3,0.4,0.4,0.6
		c0,0.1,0.1,0.1,0.1,0.2c0.1,0.3,0.2,0.6,0.3,0.8c0,0.1,0,0.1,0,0.2c0.1,0.3,0.1,0.5,0.1,0.7c0,0.1,0,0.1,0,0.2
		c0,0.3,0.1,0.5,0.1,0.7v0.1c0,0.2,0,0.4,0,0.5s0,0.1,0,0.1c0,0.1,0,0.2,0,0.2l1.5,29.7l0.2,4.1c18.4,0.3,11.3-58.4,11.3-58.4
		c-0.5-0.4-1-0.7-1.5-1.1c-0.4-0.3-0.8-0.6-1.2-0.8c-0.2-0.1-0.3-0.2-0.5-0.3c-0.9-0.6-1.8-1-2.6-1.5c-0.2-0.1-0.4-0.2-0.6-0.3
		c-0.7-0.4-1.5-0.7-2.2-1c-0.2-0.1-0.3-0.1-0.5-0.2c-0.8-0.3-1.6-0.6-2.5-0.8c-0.2,0-0.4-0.1-0.6-0.1c-0.7-0.2-1.4-0.3-2.1-0.4
		c-0.1,0-0.3,0-0.4-0.1c-0.8-0.1-1.5-0.1-2.3-0.1c-0.2,0-0.5,0-0.7,0c-0.6,0-1.1,0.1-1.7,0.2c-0.3,0-0.5,0.1-0.8,0.1
		c-0.5,0.1-1.1,0.2-1.6,0.4c-0.2,0.1-0.5,0.1-0.7,0.2c-0.6,0.2-1.3,0.5-1.9,0.7c-0.1,0-0.2,0.1-0.3,0.1c-0.7,0.3-1.4,0.7-2.1,1.1
		c-0.1,0.1-0.3,0.2-0.4,0.3c-0.5,0.3-1.1,0.7-1.6,1.1c-0.2,0.2-0.4,0.3-0.6,0.5c-0.5,0.4-0.9,0.8-1.4,1.2c-0.2,0.2-0.4,0.4-0.6,0.5
		c-0.5,0.5-1,0.9-1.4,1.4c-0.1,0.1-0.3,0.3-0.4,0.4c-1.2,1.3-2.4,2.8-3.4,4.4c-0.1,0.2-0.3,0.4-0.4,0.6c-0.4,0.6-0.8,1.2-1.2,1.9
		c-0.2,0.3-0.3,0.5-0.5,0.8c-0.4,0.6-0.7,1.3-1.1,1.9c-0.1,0.3-0.3,0.5-0.4,0.7c-0.4,0.8-0.8,1.6-1.2,2.5c0,0.1-0.1,0.2-0.2,0.3
		c-0.5,1-0.9,2-1.3,3c-0.1,0.2-0.1,0.4-0.2,0.6c-0.3,0.8-0.7,1.7-1,2.5c-0.1,0.3-0.2,0.6-0.3,0.9c-0.3,0.7-0.5,1.5-0.8,2.3
		c-0.1,0.3-0.2,0.7-0.3,1c-0.3,0.8-0.5,1.6-0.8,2.4c-0.1,0.3-0.2,0.6-0.3,0.8c-0.7,2.2-1.2,4.5-1.8,6.8c-0.1,0.3-0.1,0.6-0.2,1
		c-0.2,0.8-0.4,1.6-0.5,2.5c-0.1,0.4-0.2,0.8-0.2,1.2c-0.2,0.8-0.3,1.6-0.5,2.4c-0.1,0.4-0.1,0.7-0.2,1.1c-0.2,0.9-0.3,1.8-0.4,2.7
		c0,0.2-0.1,0.5-0.1,0.7c-0.2,1.2-0.3,2.3-0.5,3.5c0,0.3-0.1,0.5-0.1,0.8c-0.1,0.9-0.2,1.8-0.3,2.6c0,0.4-0.1,0.8-0.1,1.2
		c-0.1,0.8-0.1,1.5-0.2,2.3c0,0.4-0.1,0.8-0.1,1.2c-0.1,0.8-0.1,1.5-0.1,2.3c0,0.3,0,0.7,0,1c0,1.1-0.1,2.2-0.1,3.3
		c-0.5,37.4,12.8,135.7,12.8,135.7h52.6h1.1c-2.5-6.5-4.8-12.8-6.9-18.9C327.1,587.6,326.6,586,326,584.4z"/>
</g>
<path class="st5" d="M258.7,174.7c0,0,2.1-0.6,5.7-1.6c0.6-0.2,1.3-0.3,2-0.5h0.1c0.6-0.2,1.3-0.3,2-0.5c0.1,0,0.3-0.1,0.4-0.1
	c0.6-0.2,1.3-0.3,2-0.5c0.2,0,0.4-0.1,0.5-0.1c0.7-0.2,1.3-0.3,2-0.5c0.2-0.1,0.5-0.1,0.7-0.2c0.6-0.2,1.3-0.3,2-0.5
	c0.3-0.1,0.6-0.1,0.9-0.2c0.7-0.1,1.3-0.3,2-0.5c0.4-0.1,0.7-0.2,1.1-0.2c0.7-0.1,1.3-0.3,2-0.4c0.4-0.1,0.8-0.2,1.3-0.3
	c0.6-0.1,1.3-0.3,2-0.4c0.5-0.1,0.9-0.2,1.4-0.3c0.7-0.1,1.3-0.3,2-0.4c0.5-0.1,1-0.2,1.5-0.3c0.6-0.1,1.3-0.3,1.9-0.4
	c0.6-0.1,1.2-0.2,1.7-0.3c0.6-0.1,1.1-0.2,1.7-0.3c3-0.5,6-1.1,9.1-1.6c0.2,0,0.3-0.1,0.5-0.1c1-0.2,1.9-0.3,2.9-0.4
	c0.4-0.1,0.7-0.1,1.1-0.2c0.9-0.1,1.9-0.3,2.9-0.4c16.2-2.2,33.7-3.4,49.2-1.7c0,0-5.5-24.6-27.7-48.5
	C333.8,113.2,296.2,156.2,258.7,174.7z M518.5,135.2L518.5,135.2c-0.1-0.1-0.2-0.2-0.3-0.4c-0.3-0.4-0.6-0.8-1-1.3
	c0-0.1-0.1-0.1-0.1-0.1c-0.5-0.6-0.9-1.2-1.5-1.9c-0.1-0.1-0.1-0.2-0.2-0.3c-0.4-0.5-0.8-1.1-1.3-1.6c-0.2-0.2-0.4-0.5-0.5-0.7
	c-0.4-0.5-0.8-1-1.2-1.5c-0.2-0.2-0.3-0.4-0.5-0.6c-0.5-0.7-1.1-1.3-1.6-2c-0.2-0.3-0.4-0.5-0.6-0.8c-0.4-0.5-0.8-1-1.3-1.5
	c-0.2-0.2-0.4-0.5-0.6-0.7c-0.6-0.7-1.2-1.4-1.8-2.1c-0.2-0.2-0.3-0.4-0.5-0.6c-0.5-0.6-0.9-1.1-1.4-1.7c-0.2-0.3-0.4-0.5-0.6-0.7
	c-0.6-0.6-1.1-1.3-1.6-1.9c-0.1-0.1-0.2-0.2-0.3-0.3c-0.6-0.7-1.2-1.4-1.9-2c-0.2-0.2-0.4-0.4-0.6-0.6c-0.5-0.5-1-1-1.4-1.5
	c-0.2-0.2-0.3-0.3-0.5-0.5c-0.6-0.6-1.2-1.2-1.8-1.8c-0.1-0.1-0.3-0.3-0.4-0.4c-0.5-0.5-0.9-0.9-1.4-1.3c-0.2-0.1-0.3-0.3-0.5-0.4
	c-0.6-0.5-1.1-1-1.6-1.4c0,0,0,0-0.1,0c-0.5-0.4-1-0.7-1.4-1.1c-0.1-0.1-0.3-0.2-0.4-0.3c-0.4-0.3-0.7-0.5-1.1-0.7
	c-0.1,0-0.1-0.1-0.2-0.1c-1-0.5-1.9-0.7-2.5-0.5c-6.5,2-23.3,8.1-61.4-2.6c0,0-8.7,6.7-10.8,46c0,0,14.2-5.4,37.8-8.2
	c1.8-0.2,3.6-0.4,5.5-0.6c0.4,0,0.9-0.1,1.3-0.1c1.9-0.2,3.9-0.3,6-0.4c0.2,0,0.5,0,0.7,0c1.9-0.1,3.8-0.2,5.8-0.3
	c0.4,0,0.9,0,1.3,0c2.2-0.1,4.4-0.1,6.6-0.1c0.4,0,0.7,0,1.1,0c2.7,0,5.4,0,8.2,0.1l0,0c2.8,0.1,5.6,0.3,8.5,0.5
	c7.9,0.6,16.2,1.5,24.9,3C521.5,139.2,520.4,137.6,518.5,135.2z"/>
<path class="st6" d="M539.6,181.3c0-0.3-0.1-0.6-0.2-1c-0.1-0.7-0.3-1.4-0.4-2.1c-0.1-0.4-0.2-0.8-0.3-1.1c-0.2-0.7-0.4-1.4-0.6-2
	c-0.1-0.4-0.2-0.7-0.3-1.1c-0.2-0.7-0.5-1.5-0.7-2.2c-0.1-0.3-0.2-0.6-0.3-1c-0.8-2.1-1.6-4.2-2.5-6.2c-0.1-0.3-0.3-0.6-0.4-0.9
	c-0.3-0.7-0.7-1.4-1-2.1c-0.2-0.3-0.3-0.7-0.5-1c-0.3-0.6-0.6-1.3-0.9-1.9c-0.2-0.3-0.3-0.7-0.5-1c-0.3-0.6-0.6-1.2-1-1.9
	c-0.1-0.3-0.3-0.5-0.4-0.8c-0.4-0.7-0.8-1.4-1.1-2.1c-0.1-0.1-0.1-0.2-0.2-0.3c-0.4-0.8-0.8-1.5-1.2-2.1c-0.2-0.3-0.3-0.6-0.5-0.8
	c-0.2-0.4-0.4-0.7-0.6-1.1c-0.2-0.3-0.3-0.6-0.5-0.9c-0.1-0.2-0.3-0.5-0.4-0.7c-0.2-0.3-0.3-0.5-0.5-0.8c0,0,0-0.1-0.1-0.1
	c-0.7-1.1-1.1-1.8-1.1-1.8c-9.4-2.9-19-4.7-23.7-0.4l-0.1,0.1c-0.4,0.4-0.8,0.8-1.1,1.2c0,0,0,0,0,0.1c-0.3,0.4-0.6,0.9-0.8,1.5
	c0,0.1-0.1,0.2-0.1,0.3c-0.2,0.6-0.4,1.1-0.5,1.8c0,0.1-0.1,0.3-0.1,0.4c-0.1,0.7-0.2,1.4-0.3,2.2c0,0.1,0,0.2,0,0.3
	c0,0.8,0,1.6,0,2.4c0,0.1,0,0.2,0,0.3c0.1,0.9,0.2,1.9,0.4,2.9c0,0.2,0.1,0.4,0.1,0.6c0.2,1,0.4,2.1,0.7,3.3
	c0.1,0.2,0.1,0.4,0.2,0.6c0.3,1.2,0.7,2.5,1.1,3.9c0.3,1,0.7,1.9,1,2.8c0.1,0.3,0.2,0.6,0.4,0.8c0.3,0.6,0.5,1.1,0.8,1.7
	c0.2,0.3,0.3,0.6,0.5,0.9c0.3,0.5,0.6,1,0.8,1.4c0.2,0.3,0.4,0.6,0.5,0.8c0.3,0.4,0.6,0.9,0.9,1.3c0.2,0.2,0.4,0.5,0.5,0.7
	c0.4,0.4,0.7,0.9,1.1,1.3c0.1,0.2,0.3,0.3,0.4,0.5c0.5,0.5,1.1,1.1,1.7,1.5c0.1,0.1,0.2,0.2,0.4,0.3c0.4,0.4,0.9,0.7,1.4,1
	c0.2,0.1,0.4,0.3,0.6,0.4c0.4,0.3,0.8,0.5,1.2,0.7c0.2,0.1,0.5,0.3,0.7,0.4c0.4,0.2,0.8,0.4,1.2,0.6c0.2,0.1,0.5,0.2,0.7,0.3
	c0.4,0.2,0.8,0.4,1.2,0.5c0.2,0.1,0.4,0.2,0.7,0.3c0.5,0.2,1,0.4,1.6,0.5c0.1,0,0.2,0.1,0.3,0.1c0.6,0.2,1.3,0.3,1.9,0.5
	c0.2,0,0.4,0.1,0.6,0.1c0.5,0.1,0.9,0.2,1.4,0.2c0.2,0,0.5,0.1,0.7,0.1c0.4,0.1,0.8,0.1,1.2,0.1c0.2,0,0.5,0,0.7,0.1
	c0.4,0,0.8,0.1,1.2,0.1c0.2,0,0.5,0,0.7,0c0.4,0,0.8,0,1.2,0c0.2,0,0.3,0,0.5,0c0.8,0,1.5,0,2.2-0.1c0.1,0,0.3,0,0.4,0
	c0.7,0,1.4-0.1,2-0.2c0.1,0,0.2,0,0.3,0c0.6-0.1,1.2-0.1,1.7-0.2c0.1,0,0.2,0,0.3,0c0.6-0.1,1.1-0.2,1.6-0.3c0.1,0,0.2,0,0.3-0.1
	c0.5-0.1,0.9-0.2,1.3-0.3h0.1c0.4-0.1,0.7-0.2,1-0.2c0.1,0,0.1,0,0.2,0c0.3-0.1,0.5-0.1,0.6-0.2h0.1c0.1,0,0.2-0.1,0.2-0.1
	C539.9,183.3,539.7,182.3,539.6,181.3z M321.6,165.5c0,0-2.4,1.5-4.1,4.7l-0.1,0.1c-0.1,0.2-0.2,0.3-0.2,0.5
	c-0.1,0.1-0.1,0.3-0.2,0.4c-0.1,0.3-0.2,0.6-0.4,0.9c0,0.1-0.1,0.3-0.1,0.4c-0.1,0.2-0.1,0.4-0.2,0.6c0,0.2-0.1,0.3-0.1,0.5
	c-0.1,0.2-0.1,0.4-0.1,0.7c0,0.2-0.1,0.3-0.1,0.5s-0.1,0.5-0.1,0.7s0,0.3,0,0.5c0,0.3,0,0.6,0,0.9c0,0.1,0,0.2,0,0.3
	c0,0.4,0,0.9,0.1,1.3c0,0.1,0,0.3,0.1,0.4c0,0.3,0.1,0.7,0.2,1c0,0.2,0.1,0.4,0.1,0.6c0.1,0.3,0.2,0.7,0.2,1
	c0.1,0.2,0.1,0.4,0.2,0.6c0.1,0.4,0.2,0.7,0.4,1.1c0.1,0.2,0.1,0.4,0.2,0.6c0.2,0.5,0.4,1,0.6,1.5c0,0.1,0.1,0.1,0.1,0.2
	c0.3,0.6,0.6,1.2,0.9,1.8c0.1,0.2,0.2,0.4,0.3,0.5c0.3,0.4,0.5,0.9,0.8,1.4c0.1,0.2,0.3,0.5,0.4,0.7c0.3,0.4,0.6,0.9,0.9,1.3
	c0.2,0.2,0.3,0.5,0.5,0.7c0.4,0.5,0.7,1,1.1,1.4c0.2,0.2,0.3,0.4,0.5,0.6c0.6,0.7,1.2,1.4,1.9,2.2c0.7,0.8,1.4,1.5,2.1,2.1
	c0.2,0.2,0.4,0.4,0.7,0.6c0.5,0.4,1,0.8,1.5,1.2c0.2,0.2,0.5,0.4,0.7,0.5c0.5,0.4,1,0.7,1.6,1c0.2,0.1,0.4,0.3,0.6,0.4
	c0.7,0.4,1.4,0.8,2.1,1.1c0.1,0.1,0.3,0.1,0.4,0.2c0.6,0.2,1.2,0.5,1.7,0.7c0.2,0.1,0.5,0.1,0.7,0.2c0.5,0.1,1,0.3,1.5,0.4
	c0.2,0.1,0.5,0.1,0.7,0.2c0.5,0.1,1.1,0.2,1.6,0.3c0.2,0,0.3,0,0.5,0.1c0.7,0.1,1.4,0.1,2,0.1c0.2,0,0.5,0,0.7,0c0.4,0,0.8,0,1.1,0
	c0.3,0,0.5,0,0.8-0.1c0.4,0,0.7-0.1,1.1-0.1c0.3,0,0.5-0.1,0.8-0.1c0.3-0.1,0.7-0.1,1-0.2c0.3-0.1,0.5-0.1,0.7-0.2
	c0.3-0.1,0.7-0.2,1-0.3c0.2-0.1,0.5-0.1,0.7-0.2c0.3-0.1,0.7-0.2,1-0.3c0.2-0.1,0.4-0.1,0.6-0.2c0.4-0.1,0.7-0.3,1-0.4
	c0.2-0.1,0.4-0.1,0.5-0.2c0.4-0.2,0.8-0.4,1.2-0.6c0.1,0,0.2-0.1,0.3-0.1c0.5-0.2,1-0.5,1.4-0.7c0.1-0.1,0.2-0.1,0.3-0.2
	c0.3-0.2,0.7-0.4,1-0.6c0.2-0.1,0.3-0.2,0.5-0.3c0.3-0.2,0.6-0.3,0.8-0.5c0.2-0.1,0.3-0.2,0.5-0.3c0.2-0.2,0.5-0.3,0.7-0.5
	c0.1-0.1,0.3-0.2,0.4-0.3c0.2-0.1,0.4-0.3,0.6-0.5c0.1-0.1,0.3-0.2,0.4-0.3c0.2-0.1,0.4-0.3,0.6-0.4c0.1-0.1,0.3-0.2,0.4-0.3
	c0.2-0.1,0.3-0.3,0.5-0.4c0.1-0.1,0.2-0.2,0.3-0.3c0.1-0.1,0.3-0.2,0.4-0.3s0.2-0.2,0.3-0.3l0.1-0.1c0.1-0.1,0.3-0.3,0.4-0.4
	c0.7-0.6,1-0.9,1-0.9l-4.4-29.2L321.6,165.5L321.6,165.5z M303.3,289.5c-5.2,1.6-11,2.7-17.3,3.1c-46.1,2.8-72.4-53.6-72.4-53.6
	s0,0.1,0,0.2c0,0.2,0,0.7,0,1.4c-0.1,5.6-0.6,24.7-0.6,38.7c0,0,0,0,0,0.1c0,0.8,0,1.5,0,2.3c0,7.5,0.2,13.1,0.7,13.3
	c56.7,25.1,102.1-10.5,102.1-10.5s0,0-0.1,0C311.9,286.4,307.8,288.1,303.3,289.5z"/>
<polygon class="st7" points="265,608.2 270.6,608.2 269.3,603.3 "/>
<path class="st7" d="M407.3,463.7l-0.1-0.1c0,0,0,0-0.1-0.1c-0.1,0-0.1-0.1-0.2-0.2s-0.1-0.1-0.2-0.2s-0.2-0.2-0.2-0.2
	c-0.1-0.1-0.2-0.2-0.3-0.2c-0.1-0.1-0.2-0.2-0.3-0.3c-0.1-0.1-0.2-0.2-0.4-0.4c-0.1-0.1-0.2-0.2-0.3-0.3c-0.2-0.1-0.3-0.3-0.5-0.5
	c-0.1-0.1-0.3-0.3-0.4-0.4c-0.2-0.2-0.3-0.3-0.5-0.5c-0.1-0.1-0.3-0.3-0.5-0.5s-0.3-0.3-0.5-0.5c-0.1-0.2-0.3-0.3-0.5-0.5
	s-0.4-0.4-0.6-0.6s-0.3-0.4-0.5-0.6s-0.4-0.4-0.6-0.6s-0.4-0.4-0.6-0.6s-0.4-0.4-0.6-0.6s-0.4-0.4-0.6-0.7c-0.2-0.2-0.4-0.5-0.7-0.7
	c-0.2-0.2-0.4-0.5-0.6-0.7s-0.5-0.5-0.7-0.8c-0.2-0.2-0.4-0.5-0.6-0.7c-0.2-0.3-0.5-0.5-0.7-0.8c-0.2-0.2-0.4-0.5-0.7-0.8
	c-0.2-0.3-0.5-0.6-0.7-0.8c-0.2-0.3-0.4-0.5-0.7-0.8c-0.3-0.3-0.5-0.6-0.8-0.9c-0.2-0.3-0.4-0.5-0.6-0.8c-0.3-0.3-0.5-0.6-0.8-1
	c-0.2-0.3-0.4-0.5-0.6-0.8c-0.3-0.3-0.5-0.7-0.8-1c-0.2-0.3-0.4-0.5-0.6-0.8c-0.3-0.4-0.6-0.7-0.8-1.1c-0.2-0.3-0.4-0.5-0.6-0.8
	c-0.3-0.4-0.6-0.7-0.8-1.1c-0.2-0.3-0.4-0.5-0.6-0.8c-0.3-0.4-0.6-0.8-0.9-1.2c-0.2-0.2-0.4-0.5-0.5-0.7c-0.3-0.4-0.6-0.8-0.9-1.2
	c-0.2-0.2-0.3-0.5-0.5-0.7c-0.3-0.4-0.6-0.9-0.9-1.3c-0.1-0.2-0.3-0.4-0.4-0.7c-0.3-0.5-0.6-1-0.9-1.5c-0.1-0.2-0.2-0.3-0.3-0.5
	c-0.3-0.5-0.7-1.1-1-1.6c-0.1-0.1-0.1-0.2-0.2-0.4c-0.4-0.7-0.8-1.3-1.1-2l0,0c-1.5-2.7-2.8-5.4-3.8-8.1c0-0.1-0.1-0.1-0.1-0.2
	c-0.5-1.3-0.8-2.5-1.2-3.8c0,0-22.8,8.5-37.1-2l-1,5.1l-11.4-8.2c0,0,11.4,43.5-13.4,61.2l-1.5-3.3c0,0-0.4,0.6-0.4,4.1
	c0,0.2,0,0.4,0,0.7v0.1c0,0.2,0,0.5,0,0.8c0,0.1,0,0.1,0,0.2c0,0.3,0,0.5,0,0.8c0,0.1,0,0.1,0,0.2c0,0.3,0,0.6,0,0.9
	c0,0.1,0,0.2,0,0.3c0,0.3,0,0.6,0.1,1c0,0.1,0,0.2,0,0.3c0,0.3,0.1,0.7,0.1,1c0,0.1,0,0.3,0,0.4c0,0.3,0.1,0.7,0.1,1.1
	c0,0.2,0,0.3,0,0.5c0,0.4,0.1,0.7,0.1,1.1c0,0.2,0,0.4,0.1,0.6c0,0.4,0.1,0.8,0.1,1.2c0,0.2,0,0.4,0.1,0.6c0,0.4,0.1,0.8,0.1,1.3
	c0,0.3,0.1,0.5,0.1,0.8c0,0.4,0.1,0.8,0.2,1.3c0,0.3,0.1,0.7,0.1,1c0,0.4,0.1,0.8,0.1,1.2c0.1,0.6,0.2,1.1,0.2,1.7
	c0,0.2,0.1,0.4,0.1,0.7c0.1,0.8,0.2,1.7,0.4,2.6c0,0.1,0,0.2,0,0.3c0.1,0.8,0.2,1.6,0.4,2.5c0,0.2,0.1,0.5,0.1,0.7
	c0.1,0.8,0.2,1.5,0.4,2.3c0,0.3,0.1,0.5,0.1,0.8c0.1,0.8,0.3,1.6,0.4,2.4c0,0.1,0,0.2,0,0.3c0.1,0.8,0.3,1.5,0.4,2.4
	c0,0,51.7,0.5,55.3,2.3c1.3,0.6,1.8-1.3,2-4c0-0.2,0-0.4,0-0.7v-0.1c0-0.5,0-1.1,0-1.6l0,0c0-1.1,0-2.3-0.1-3.4l0,0
	c-0.1-2.3-0.3-4.5-0.5-6l0,0c-0.1-0.7-0.1-1.3-0.2-1.5l0,0c0-0.1,0-0.2,0-0.2S392.7,469.9,407.3,463.7
	C407.3,463.8,407.3,463.8,407.3,463.7z M384.4,460.8c-1,2.4-2.3,5-3.9,7.9c-2.8,4.9-5.9,9.2-7.2,11c-0.2,0.2-0.3,0.5-0.4,0.6
	c-0.7,1.1-1.9,1.8-3.2,1.8c-1.7,0-2.8-1.1-3.2-1.6c-0.3-0.3-0.7-0.8-1.2-1.4c-0.9-1.1-2-2.5-3.3-4.2c-3-3.8-6.6-8.6-9.8-12
	c-1.6-1.7-2.8-3.4-3.7-5.2c-0.8-1.7-1.2-3.4-1.1-5.2c0.1-1.6,0.6-3.3,1.5-4.7c1.9-3.1,5.3-5,8.8-5c1.9,0,3.8,0.6,5.5,1.7
	c1.3,0.9,2.5,1.9,3.4,2.9c0.6-0.6,1.3-1.1,2-1.6c1.7-1.2,3.6-2.1,5.8-2.7c0.8-0.2,1.7-0.3,2.5-0.3c2.6,0,5.1,1.1,6.9,3
	s2.7,4.4,2.6,7C386.3,455.1,385.7,457.7,384.4,460.8z M544.5,227.1C544.4,227.1,544.4,227.1,544.5,227.1c-0.1,0-0.2,0.1-0.3,0.1
	h-0.1c-0.1,0-0.2,0.1-0.4,0.1h-0.1c-0.2,0.1-0.4,0.1-0.7,0.2c-0.1,0-0.1,0-0.2,0c-0.2,0-0.4,0.1-0.7,0.2c-0.1,0-0.2,0-0.3,0.1
	c-0.3,0.1-0.5,0.1-0.8,0.2c-0.1,0-0.2,0-0.3,0.1c-0.4,0.1-0.8,0.2-1.2,0.2c-0.1,0-0.1,0-0.2,0c-0.4,0.1-0.7,0.1-1.1,0.2
	c-0.1,0-0.3,0-0.4,0.1c-0.3,0.1-0.7,0.1-1.1,0.2c-0.2,0-0.3,0.1-0.5,0.1c-0.5,0.1-1,0.1-1.5,0.2c0,0,0,0-0.1,0
	c-0.5,0.1-1.1,0.1-1.7,0.2c-0.2,0-0.3,0-0.5,0.1c-0.4,0-0.9,0.1-1.3,0.1c-0.2,0-0.4,0-0.6,0.1c-0.5,0.1-1.1,0.1-1.6,0.1
	c-0.1,0-0.2,0-0.4,0c-0.7,0-1.3,0.1-2.1,0.1c-0.2,0-0.3,0-0.5,0c-0.6,0-1.1,0-1.7,0.1c-0.2,0-0.4,0-0.7,0c-0.6,0-1.1,0-1.7,0
	c-0.2,0-0.4,0-0.6,0c-0.8,0-1.6,0-2.4,0c-0.1,0-0.2,0-0.3,0c-0.7,0-1.4-0.1-2.1-0.1c-0.2,0-0.4,0-0.7,0c-0.7,0-1.3-0.1-2-0.1
	c-0.2,0-0.4,0-0.6,0c-0.9-0.1-1.7-0.2-2.6-0.3c-0.1,0-0.2,0-0.3,0c-0.8-0.1-1.5-0.2-2.3-0.3c-0.2,0-0.5-0.1-0.7-0.1
	c-0.7-0.1-1.4-0.2-2.1-0.4c-0.2,0-0.4-0.1-0.6-0.1c-0.9-0.2-1.8-0.4-2.7-0.6c-0.1,0-0.2-0.1-0.3-0.1c-0.8-0.2-1.6-0.4-2.4-0.6
	c-0.2-0.1-0.5-0.1-0.7-0.2c-0.7-0.2-1.4-0.4-2.1-0.7c-0.2-0.1-0.4-0.1-0.6-0.2c-0.9-0.3-1.8-0.6-2.7-1c-0.1,0-0.2-0.1-0.3-0.1
	c-0.8-0.3-1.6-0.6-2.4-1c-0.3-0.1-0.5-0.2-0.7-0.3c-0.7-0.3-1.4-0.6-2.1-1c-0.2-0.1-0.4-0.2-0.6-0.3c-0.9-0.5-1.8-0.9-2.7-1.4
	c-0.1-0.1-0.2-0.1-0.3-0.2c-0.8-0.4-1.5-0.9-2.3-1.4c-0.2-0.2-0.5-0.3-0.7-0.5c-0.7-0.4-1.4-0.9-2-1.4c-0.2-0.1-0.4-0.3-0.6-0.4
	c-0.9-0.6-1.7-1.3-2.6-2c-0.1-0.1-0.2-0.2-0.3-0.2c-0.7-0.6-1.5-1.2-2.2-1.9c-0.2-0.2-0.5-0.4-0.7-0.6c-0.6-0.6-1.3-1.2-1.9-1.8
	c-0.2-0.2-0.4-0.4-0.6-0.6c-0.8-0.8-1.6-1.7-2.4-2.6c-0.1-0.1-0.2-0.2-0.3-0.3c-0.7-0.8-1.3-1.6-2-2.5c-0.2-0.3-0.4-0.5-0.6-0.8
	c-0.6-0.7-1.1-1.5-1.7-2.3c-0.2-0.3-0.4-0.5-0.5-0.8c-0.7-1-1.4-2.1-2.1-3.2c-0.1-0.1-0.1-0.3-0.2-0.4c-0.6-1-1.2-2-1.7-3.1
	c-0.2-0.3-0.4-0.7-0.5-1c-0.5-0.9-0.9-1.9-1.4-2.9c-0.1-0.3-0.3-0.6-0.5-1c-0.6-1.3-1.2-2.6-1.7-4c-0.1-0.2-0.1-0.3-0.2-0.5
	c-0.5-1.2-0.9-2.5-1.4-3.7c-0.1-0.4-0.3-0.8-0.4-1.3c-0.4-1.1-0.7-2.3-1.1-3.4c-0.1-0.4-0.2-0.8-0.4-1.2c-0.4-1.6-0.9-3.1-1.3-4.8
	c-0.1-0.2-0.1-0.4-0.1-0.6c-0.3-1.5-0.7-2.9-1-4.5c-0.1-0.5-0.2-1-0.3-1.5c-0.3-1.3-0.5-2.7-0.7-4.1c-0.1-0.5-0.2-1-0.2-1.5
	c-0.3-1.8-0.5-3.7-0.8-5.7c0-0.2,0-0.5-0.1-0.7c-0.2-1.7-0.4-3.5-0.5-5.3c-0.1-1.3-0.2-2.6-0.3-3.9l-32.3,8.7
	c0,0,7.9,116.2,128.8,97.3l0.3-3.3L544.5,227.1C544.5,227,544.5,227,544.5,227.1z M346.9,251.4L346.9,251.4L346.9,251.4
	c0.1-0.2,0.1-0.2,0.1-0.3c0.1-0.1,0.1-0.3,0.2-0.4c0.1-0.1,0.1-0.2,0.1-0.3s0-0.1,0-0.1s0,0-0.1,0.1c0,0,0,0-0.1,0.1
	s-0.2,0.2-0.4,0.4l0,0c-0.1,0.1-0.3,0.3-0.5,0.5c0,0-0.1,0.1-0.2,0.1c-0.2,0.2-0.5,0.5-0.8,0.7l-0.1,0.1c-0.3,0.2-0.6,0.5-1,0.8
	c-0.1,0.1-0.1,0.1-0.2,0.2c-0.4,0.3-0.8,0.6-1.3,1c-0.1,0.1-0.2,0.1-0.3,0.2c-0.4,0.3-0.9,0.6-1.4,0.9c-0.1,0.1-0.2,0.1-0.3,0.2
	c-0.6,0.4-1.2,0.7-1.8,1.1c-0.1,0.1-0.3,0.2-0.4,0.2c-0.6,0.3-1.2,0.7-1.9,1c-0.1,0-0.1,0.1-0.2,0.1c-0.7,0.4-1.5,0.7-2.3,1
	c-0.2,0.1-0.4,0.2-0.6,0.2c-0.8,0.3-1.6,0.7-2.5,1l0,0c-0.9,0.3-1.8,0.6-2.8,0.9c-0.2,0.1-0.5,0.1-0.7,0.2c-1,0.3-2,0.5-3,0.7
	c-0.1,0-0.2,0-0.3,0.1c-1,0.2-2,0.4-3,0.5c-0.3,0-0.5,0.1-0.8,0.1c-1.1,0.2-2.3,0.3-3.5,0.4c-0.2,0-0.4,0-0.6,0
	c-1.1,0.1-2.2,0.1-3.3,0.1c-0.3,0-0.7,0-1,0c-0.4,0-0.8,0-1.1,0c-0.6,0-1.1,0-1.7-0.1c-0.4,0-0.8,0-1.2-0.1c-0.6,0-1.2-0.1-1.7-0.1
	c-0.4,0-0.8-0.1-1.3-0.1c-0.6-0.1-1.2-0.1-1.8-0.2c-0.4-0.1-0.9-0.1-1.3-0.2c-0.6-0.1-1.3-0.2-1.9-0.3c-0.4-0.1-0.9-0.2-1.3-0.2
	c-0.7-0.1-1.4-0.3-2.1-0.4c-0.4-0.1-0.8-0.2-1.2-0.3c-0.8-0.2-1.6-0.4-2.4-0.6c-0.4-0.1-0.7-0.2-1.1-0.3c-1.2-0.3-2.4-0.7-3.6-1.1
	c-40.4-13-46.1-73.9-46.1-73.9l-15.4,5.3l-13,4.4l0,0l-3.4,1.2c3.1,2.3,3.4,42.7,3.4,42.7s26.3,56.4,72.4,53.6
	c6.3-0.4,12.1-1.5,17.3-3.1c4.5-1.4,8.7-3.1,12.4-5.1C335.9,273.7,344.9,255.9,346.9,251.4z"/>
<path class="st8" d="M524.2,475.6c3.4-53.8,42.3-251.1,42.3-301h-15.7c0,0,33.8,109.2-69.8,175.4c0,0-7.1,115.7,13.8,166.8
	c6.4,15.7,21.5,26.2,38.4,26.4c0.3,0,0.6,0,0.9,0c0.4,0,0.7,0,1.1,0c0.2,0,0.4,0,0.6,0c0.4,0,0.7,0,1.1-0.1c0.2,0,0.4,0,0.7-0.1
	c0.3,0,0.7-0.1,1-0.1c0.2,0,0.5-0.1,0.7-0.1c0.3,0,0.7-0.1,1-0.1s0.5-0.1,0.8-0.1c0.3-0.1,0.6-0.1,1-0.2c0.3-0.1,0.5-0.1,0.8-0.2
	c0.3-0.1,0.6-0.1,0.9-0.2c0.3-0.1,0.6-0.2,0.9-0.2c0.3-0.1,0.6-0.2,0.9-0.3s0.6-0.2,0.9-0.3c0.3-0.1,0.6-0.2,0.9-0.3
	c0.3-0.1,0.6-0.3,0.9-0.4c0.3-0.1,0.5-0.2,0.8-0.3s0.6-0.3,1-0.5c0.3-0.1,0.5-0.2,0.8-0.4s0.7-0.4,1-0.5s0.5-0.3,0.8-0.4
	c0.3-0.2,0.7-0.4,1-0.6c0.2-0.1,0.5-0.3,0.7-0.5c0.3-0.2,0.7-0.5,1-0.7c0.2-0.2,0.5-0.3,0.7-0.5c0.3-0.3,0.7-0.5,1-0.8
	c0.2-0.2,0.4-0.3,0.7-0.5c0.4-0.3,0.8-0.6,1.1-1c0.2-0.2,0.4-0.3,0.6-0.5c0.6-0.5,1.1-1,1.7-1.6
	C561.1,531.7,520.8,529.5,524.2,475.6z M565.3,165.8v-0.1c0-0.1,0-0.3,0-0.6c0,0,0,0,0-0.1c0-0.6,0.1-1.6,0.1-2.7c0-0.1,0-0.1,0-0.2
	c0-0.8,0.1-1.7,0.1-2.6c0-0.1,0-0.2,0-0.2c0-0.2,0-0.5,0-0.7c0-0.1,0-0.3,0-0.4c0-0.2,0-0.4,0-0.6c0-0.3,0-0.5,0-0.8
	c0-0.1,0-0.3,0-0.4c0-0.4,0-0.8,0-1.1c0-0.1,0-0.2,0-0.2c0-0.3,0-0.6,0-0.9c0-0.1,0-0.1,0-0.2c0-0.1,0-0.2,0-0.3
	c0-1.3-0.1-2.2-0.3-2.6l-15.6,13.6L565.3,165.8z M564,146.1v-2.5v-8.3l-16.9,17.9L564,146.1z M538.4,146.3c0,0.1,0.2,0,0.3,0
	s0.2-0.1,0.3-0.1c0.1-0.1,0.3-0.1,0.4-0.2c0.1-0.1,0.3-0.2,0.5-0.3s0.4-0.3,0.6-0.4c0.2-0.1,0.4-0.3,0.6-0.5
	c0.2-0.2,0.5-0.4,0.8-0.6c0.3-0.2,0.5-0.4,0.8-0.6c0.3-0.2,0.6-0.5,0.9-0.7c0.3-0.2,0.6-0.5,0.9-0.7c0.3-0.3,0.6-0.5,1-0.8
	c0.3-0.3,0.6-0.6,1-0.8c0.3-0.3,0.7-0.6,1-0.9c0.3-0.3,0.7-0.6,1.1-0.9c0.3-0.3,0.7-0.6,1-0.9c0.4-0.3,0.7-0.6,1.1-0.9
	c0.3-0.3,0.7-0.6,1-0.9c0.3-0.3,0.7-0.6,1-0.9c0.3-0.3,0.6-0.6,1-0.9c0.4-0.3,0.7-0.7,1.1-1c0.2-0.2,0.5-0.4,0.7-0.6
	c0.4-0.3,0.8-0.7,1.1-1c0.3-0.2,0.5-0.4,0.7-0.7c0.3-0.3,0.6-0.6,0.9-0.8c0.2-0.2,0.4-0.3,0.6-0.5c0.3-0.3,0.6-0.5,0.8-0.8
	c0.1-0.1,0.2-0.2,0.3-0.3c1-1,1.7-1.6,1.7-1.6v-0.1v-0.1c0-0.1,0-0.3-0.1-0.6c0,0,0,0,0-0.1c0-0.2-0.1-0.6-0.1-0.9v-0.1
	c0-0.4-0.1-0.8-0.2-1.2c0-0.1,0-0.2,0-0.3c-0.1-0.5-0.1-1-0.2-1.5l0,0c-0.1-0.6-0.2-1.2-0.3-1.8c0-0.1,0-0.2-0.1-0.3
	c-0.1-0.7-0.2-1.3-0.4-2.1c0-0.1,0-0.1,0-0.2c-0.1-0.7-0.3-1.4-0.4-2.2c0-0.1,0-0.2-0.1-0.3c-0.2-0.8-0.3-1.6-0.5-2.5
	c0-0.1-0.1-0.3-0.1-0.4c-0.2-0.9-0.4-1.7-0.6-2.6l0,0c-0.2-0.9-0.4-1.9-0.7-2.8c0-0.2-0.1-0.3-0.1-0.5c-0.3-1-0.5-2-0.8-3v-0.1
	c-0.3-1-0.6-1.9-0.9-2.9c0-0.2-0.1-0.3-0.1-0.5c-0.3-1-0.6-2-1-3.1c0-0.2-0.1-0.3-0.2-0.5c-0.3-1-0.7-2-1.1-3c0-0.1-0.1-0.2-0.1-0.2
	c-0.4-1-0.8-2.1-1.2-3.1c-0.1-0.2-0.2-0.4-0.2-0.6c-0.4-1.1-0.9-2.1-1.4-3.2c0,0,0,0,0-0.1c-0.5-1-0.9-2.1-1.5-3.1
	c-0.1-0.2-0.2-0.4-0.3-0.6c-0.5-1-1-2-1.6-3c-0.1-0.2-0.2-0.3-0.3-0.5c-0.5-0.9-1.1-1.9-1.6-2.8c-0.1-0.1-0.1-0.2-0.2-0.4
	c-0.6-1-1.2-1.9-1.9-2.9c-0.1-0.2-0.3-0.4-0.4-0.6c-0.7-0.9-1.4-1.9-2.1-2.8l0,0c-0.7-0.9-1.4-1.8-2.2-2.6c-0.2-0.2-0.3-0.3-0.5-0.5
	c-0.8-0.8-1.5-1.6-2.3-2.4c-0.1-0.1-0.3-0.2-0.4-0.4c-0.7-0.7-1.5-1.4-2.3-2c-0.1-0.1-0.3-0.2-0.4-0.4c-0.9-0.7-1.7-1.3-2.6-2
	c-0.2-0.1-0.4-0.3-0.6-0.4c-0.9-0.6-1.8-1.2-2.8-1.7c0,0-0.1,0-0.1-0.1c-1-0.5-2-1-3-1.5c-0.2-0.1-0.5-0.2-0.7-0.3
	c-1-0.4-2.1-0.8-3.2-1.2c-0.2-0.1-0.3-0.1-0.5-0.2c-1-0.3-2-0.6-3.1-0.8c-0.2,0-0.5-0.1-0.7-0.2c-1.2-0.2-2.3-0.4-3.5-0.5
	c-0.3,0-0.5,0-0.8-0.1c-1.2-0.1-2.4-0.2-3.6-0.2c-0.1,0-0.3,0-0.4,0s-0.3,0-0.4,0c-0.7,0-1.5,0-2.2,0.1c-0.3,0-0.6,0-0.9,0.1
	c-0.6,0-1.2,0.1-1.9,0.2c-0.3,0-0.6,0.1-1,0.1c-0.7,0.1-1.3,0.2-2,0.3c-0.3,0-0.6,0.1-0.9,0.1c-0.9,0.2-1.8,0.4-2.7,0.6
	c-0.1,0-0.1,0-0.2,0c-1,0.2-2,0.5-3,0.8c-0.3,0.1-0.6,0.2-0.9,0.3c-0.7,0.2-1.4,0.4-2.2,0.7c-0.4,0.1-0.7,0.3-1.1,0.4
	c-0.7,0.2-1.4,0.5-2.1,0.8c-0.4,0.1-0.8,0.3-1.1,0.4c-0.8,0.3-1.6,0.7-2.4,1c-0.3,0.1-0.6,0.2-0.9,0.4c-1.1,0.5-2.2,1-3.4,1.6
	c-0.3,0.1-0.6,0.3-0.9,0.4c-0.9,0.4-1.7,0.9-2.6,1.4c-0.4,0.2-0.9,0.5-1.3,0.7c-0.8,0.4-1.6,0.9-2.3,1.3c-0.5,0.3-0.9,0.5-1.4,0.8
	c-0.8,0.5-1.7,1-2.5,1.5c-0.4,0.3-0.8,0.5-1.2,0.8c-1.2,0.8-2.5,1.6-3.8,2.5C462.1,69.5,511.7,95.2,538.4,146.3z M480.5,95.8
	l-0.1-0.1c-0.1-0.1-0.3-0.2-0.5-0.3c-0.2-0.1-0.4-0.3-0.7-0.5c-0.4-0.3-0.9-0.6-1.4-0.9c0,0-0.1,0-0.1-0.1c-0.5-0.3-1-0.6-1.5-1
	c-0.1-0.1-0.3-0.2-0.4-0.3c-0.4-0.3-0.9-0.6-1.4-0.9c-0.2-0.1-0.4-0.2-0.6-0.4c-0.5-0.3-0.9-0.6-1.4-0.9c-0.2-0.1-0.5-0.3-0.7-0.4
	c-0.5-0.3-1-0.6-1.5-0.9c-0.3-0.1-0.5-0.3-0.8-0.4c-0.5-0.3-1.1-0.6-1.7-1c-0.3-0.1-0.5-0.3-0.8-0.5c-0.6-0.3-1.2-0.7-1.8-1
	c-0.3-0.1-0.5-0.3-0.8-0.4c-0.7-0.4-1.3-0.7-2-1.1c-0.3-0.1-0.5-0.3-0.8-0.4c-0.8-0.4-1.5-0.8-2.3-1.2c-0.2-0.1-0.4-0.2-0.7-0.3
	c-0.9-0.5-1.9-0.9-2.8-1.4c-0.1-0.1-0.2-0.1-0.4-0.2c-3.4-1.7-7-3.4-10.9-5.1c-0.1-0.1-0.2-0.1-0.4-0.2c-1.1-0.5-2.3-1-3.5-1.5
	c-0.3-0.1-0.6-0.2-0.8-0.3c-1-0.4-2.1-0.9-3.2-1.3c-0.4-0.1-0.7-0.3-1.1-0.4c-1-0.4-2.1-0.8-3.1-1.2c-0.4-0.2-0.8-0.3-1.3-0.5
	c-1-0.4-2.1-0.8-3.1-1.1c-0.4-0.2-0.9-0.3-1.4-0.5c-1.1-0.4-2.1-0.7-3.2-1.1c-0.5-0.2-0.9-0.3-1.4-0.5c-1.1-0.4-2.2-0.7-3.3-1.1
	c-0.5-0.1-0.9-0.3-1.4-0.4c-1.2-0.4-2.4-0.7-3.6-1.1c-0.4-0.1-0.8-0.2-1.2-0.4c-1.4-0.4-2.8-0.8-4.1-1.1c-0.3-0.1-0.5-0.1-0.8-0.2
	c-3.4-0.9-6.9-1.7-10.5-2.5c-0.1,0-0.2,0-0.3-0.1c-1.6-0.4-3.3-0.7-5-1c-0.5-0.1-1-0.2-1.4-0.3c-1.3-0.2-2.7-0.5-4-0.7
	c-0.6-0.1-1.2-0.2-1.8-0.3c-1.2-0.2-2.5-0.4-3.7-0.6c-0.7-0.1-1.4-0.2-2.1-0.3c-1.2-0.2-2.4-0.3-3.6-0.5c-0.7-0.1-1.5-0.2-2.2-0.3
	c-1.2-0.1-2.3-0.2-3.5-0.3c-0.8-0.1-1.6-0.1-2.3-0.2c-1.2-0.1-2.4-0.2-3.5-0.3c-0.8-0.1-1.6-0.1-2.4-0.1c-1.2-0.1-2.4-0.1-3.6-0.2
	c-0.8,0-1.6-0.1-2.4-0.1c-1.2,0-2.5,0-3.8-0.1c-0.8,0-1.6,0-2.5,0c-0.5,0-1,0-1.5,0c-1.3,0-2.6,0-3.9,0.1c-0.6,0-1.1,0-1.7,0
	c-1.5,0.1-3,0.1-4.5,0.2c-0.3,0-0.6,0-0.9,0c-1.8,0.1-3.6,0.3-5.5,0.4c-0.4,0-0.9,0.1-1.3,0.1c-1.4,0.1-2.9,0.3-4.3,0.4
	c-0.5,0.1-1.1,0.1-1.6,0.2c-1.5,0.2-3.1,0.4-4.6,0.6c-0.3,0-0.7,0.1-1,0.1c-1.9,0.3-3.8,0.6-5.7,0.9c-0.4,0.1-0.8,0.1-1.2,0.2
	c-1.5,0.3-3.1,0.6-4.6,0.9c-0.5,0.1-1.1,0.2-1.6,0.3c-1.6,0.3-3.1,0.7-4.7,1.1c-0.4,0.1-0.7,0.2-1.1,0.3c-2,0.5-3.9,1-5.9,1.5
	c-0.4,0.1-0.7,0.2-1,0.3c-1.6,0.5-3.2,0.9-4.9,1.4c-0.6,0.2-1.1,0.3-1.7,0.5c-1.6,0.5-3.1,1-4.7,1.6c-0.4,0.1-0.9,0.3-1.3,0.4
	c-2,0.7-4,1.4-6,2.2c-0.3,0.1-0.6,0.3-1,0.4c-1.7,0.6-3.4,1.3-5,2c-0.6,0.2-1.2,0.5-1.7,0.7c-1.5,0.7-3.1,1.3-4.7,2
	c-0.5,0.2-1,0.4-1.5,0.7c-2,0.9-4,1.9-6.1,2.9c-0.3,0.1-0.6,0.3-0.9,0.5c-1.7,0.9-3.4,1.8-5.2,2.7c-0.6,0.3-1.2,0.6-1.8,1
	c-1.5,0.8-3,1.7-4.6,2.5c-0.5,0.3-1.1,0.6-1.6,0.9c-2,1.2-4.1,2.4-6.1,3.7c-0.2,0.1-0.5,0.3-0.7,0.5c-1.8,1.1-3.6,2.3-5.4,3.5
	c-0.6,0.4-1.2,0.8-1.9,1.3c-1.5,1-3,2-4.5,3.1c-0.6,0.4-1.2,0.8-1.8,1.3c-2,1.5-4.1,2.9-6.1,4.5c-0.2,0.1-0.3,0.3-0.5,0.4
	c-1.9,1.4-3.8,2.9-5.6,4.4c-0.6,0.5-1.3,1-1.9,1.5c-1.5,1.2-3,2.4-4.5,3.7c-0.6,0.5-1.2,1-1.9,1.6c-2,1.8-4.1,3.5-6.1,5.4
	c0,0,13.3,22.5,17.4,67.6c0,0,0.1,0,0.2,0c0.1,0,0.3-0.1,0.4-0.1c1.6-0.5,6.3-1.9,13.2-4.5c0.1,0,0.2-0.1,0.3-0.1
	c0.7-0.3,1.5-0.6,2.3-0.9c0.3-0.1,0.6-0.2,0.9-0.3c0.6-0.3,1.3-0.5,1.9-0.8c0.3-0.1,0.5-0.2,0.8-0.3c0.8-0.3,1.7-0.7,2.6-1.1
	c0.3-0.1,0.7-0.3,1-0.4c0.8-0.3,1.6-0.7,2.4-1.1c0.3-0.1,0.5-0.2,0.8-0.4c0.9-0.4,1.8-0.8,2.8-1.2c0.3-0.2,0.7-0.3,1-0.5
	c1-0.5,2.1-1,3.1-1.5c0.2-0.1,0.4-0.2,0.7-0.3c0.9-0.4,1.9-0.9,2.8-1.4c0.3-0.2,0.7-0.3,1-0.5c1.1-0.6,2.2-1.1,3.4-1.7
	c0.1,0,0.2-0.1,0.3-0.1c32.7-16.8,77.3-47.7,105.5-99.5c0,0,66.9,34.1,125.3,25.9C482.9,97.5,482.1,96.9,480.5,95.8z M181.5,114.6
	c-0.1-1.6-0.3-3-0.4-4.5c0-0.3-0.1-0.7-0.1-1c-0.2-1.4-0.4-2.7-0.6-4c0-0.2-0.1-0.4-0.1-0.6c-0.2-1.1-0.5-2.2-0.8-3.2
	c-0.1-0.2-0.1-0.5-0.2-0.7c-0.3-1.1-0.7-2.2-1-3.2c-0.1-0.2-0.2-0.4-0.3-0.7c-0.4-0.9-0.7-1.8-1.1-2.6c-0.1-0.1-0.1-0.3-0.2-0.4
	c-0.4-0.9-0.9-1.7-1.4-2.5c-0.1-0.2-0.2-0.4-0.4-0.6c-0.5-0.8-1-1.5-1.6-2.2l-0.1-0.1c-0.5-0.7-1.1-1.3-1.7-1.9
	c-0.1-0.1-0.3-0.3-0.4-0.4c-0.6-0.6-1.2-1.1-1.8-1.6c-0.1-0.1-0.2-0.2-0.3-0.3c-0.6-0.4-1.1-0.8-1.7-1.2c-0.1-0.1-0.3-0.2-0.4-0.3
	c-0.7-0.4-1.3-0.8-2-1.1c-0.2-0.1-0.3-0.1-0.5-0.2c-0.6-0.3-1.3-0.6-2-0.8c-0.1,0-0.2-0.1-0.3-0.1c-0.7-0.3-1.5-0.5-2.2-0.7
	c-0.2,0-0.4-0.1-0.5-0.1c-0.7-0.2-1.5-0.3-2.3-0.4c-0.1,0-0.2,0-0.2,0c-0.7-0.1-1.4-0.2-2.1-0.2c-0.2,0-0.4,0-0.6,0
	c-0.8-0.1-1.5-0.1-2.3-0.1c-0.2,0-0.3,0-0.5,0c-0.7,0-1.4,0-2.1,0.1c-0.2,0-0.3,0-0.5,0c-0.8,0.1-1.6,0.1-2.4,0.2
	c-0.2,0-0.4,0-0.6,0.1c-0.8,0.1-1.6,0.2-2.4,0.4l0,0c-0.8,0.1-1.6,0.3-2.4,0.5c-0.2,0-0.3,0.1-0.5,0.1s-0.3,0.1-0.5,0.1
	c-0.4,0.1-0.9,0.2-1.3,0.3c-0.6,0.2-1.2,0.3-1.8,0.5c-0.5,0.1-1,0.3-1.5,0.5c-0.6,0.2-1.3,0.4-1.9,0.6c-0.4,0.1-0.8,0.3-1.2,0.5
	c-0.7,0.3-1.4,0.5-2.1,0.8c-0.3,0.1-0.6,0.2-0.8,0.4c-0.8,0.4-1.7,0.7-2.5,1.1c-0.1,0.1-0.2,0.1-0.4,0.2
	c-11.4,5.5-21.1,14.3-27.9,25.2c-0.1,0.2-0.3,0.4-0.4,0.6c-0.4,0.7-0.8,1.3-1.2,2c-0.1,0.2-0.2,0.4-0.3,0.5
	c-0.4,0.7-0.7,1.4-1.1,2.1c-0.4,0.8-0.8,1.5-1.2,2.3c-0.4,0.9-0.8,1.8-1.3,2.7c-0.4,0.8-0.7,1.5-1.1,2.3c-0.4,0.9-0.8,1.9-1.2,2.8
	c-0.3,0.8-0.7,1.6-1,2.4c-0.4,1-0.7,1.9-1,2.9c-0.3,0.8-0.6,1.6-0.9,2.5c-0.3,1-0.6,2-0.9,3c-0.3,0.8-0.5,1.7-0.8,2.5
	c-0.3,1-0.6,2-0.8,3.1c-0.2,0.9-0.5,1.7-0.7,2.6c-0.3,1-0.5,2.1-0.7,3.2c-0.2,0.9-0.4,1.8-0.6,2.7c-0.2,1.1-0.4,2.2-0.6,3.2
	c-0.2,0.9-0.4,1.8-0.5,2.7c-0.2,1.1-0.4,2.2-0.5,3.3c-0.1,0.9-0.3,1.8-0.4,2.7c-0.2,1.1-0.3,2.3-0.4,3.4c-0.1,0.9-0.2,1.8-0.3,2.8
	c-0.1,1.2-0.2,2.3-0.4,3.5c-0.1,0.9-0.2,1.9-0.3,2.8c-0.1,1.2-0.2,2.4-0.3,3.5c-0.1,1-0.1,1.9-0.2,2.9c-0.1,1.2-0.1,2.4-0.2,3.6
	c0,1-0.1,1.9-0.1,2.9c0,1.2-0.1,2.5-0.1,3.7c0,1-0.1,1.9-0.1,2.9c0,1.2,0,2.5,0,3.8c0,1,0,1.9,0,2.9c0,1.3,0,2.5,0.1,3.8
	c0,1,0,1.9,0.1,2.9c0,1.3,0.1,2.6,0.1,3.9c0,1,0.1,1.9,0.1,2.9c0.1,1.3,0.1,2.6,0.2,3.9c0.1,1,0.1,1.9,0.2,2.9
	c0.1,1.3,0.2,2.7,0.3,4c0.1,1,0.1,1.9,0.2,2.9c0.1,1.3,0.2,2.7,0.4,4c0.1,1,0.2,1.9,0.3,2.9c0.1,1.3,0.3,2.7,0.4,4
	c0.1,1,0.2,1.9,0.3,2.9c0.2,1.3,0.3,2.7,0.5,4c0.1,1,0.2,1.9,0.4,2.9c0.2,1.3,0.4,2.7,0.5,4.1c0.1,1,0.3,1.9,0.4,2.9
	c0.2,1.4,0.4,2.7,0.6,4.1c0.1,0.9,0.3,1.9,0.4,2.8c0.2,1.4,0.4,2.8,0.7,4.2c0.1,0.9,0.3,1.8,0.4,2.8c0.2,1.4,0.5,2.8,0.7,4.2
	c0.2,0.9,0.3,1.8,0.5,2.8c0.3,1.4,0.5,2.8,0.8,4.2c0.2,0.9,0.3,1.8,0.5,2.7c0.3,1.4,0.5,2.8,0.8,4.2c0.2,0.9,0.4,1.8,0.5,2.7
	c0.3,1.4,0.6,2.8,0.9,4.2c0.2,0.9,0.4,1.8,0.6,2.7c0.3,1.4,0.6,2.8,0.9,4.2c0.2,0.9,0.4,1.7,0.6,2.6c0.3,1.4,0.6,2.8,0.9,4.2
	c0.2,0.9,0.4,1.7,0.6,2.6c0.3,1.4,0.6,2.8,1,4.2c0.2,0.8,0.4,1.7,0.6,2.5c0.3,1.4,0.7,2.8,1,4.2c0.2,0.8,0.4,1.6,0.6,2.3
	c0.4,1.4,0.7,2.8,1.1,4.3c0.2,0.8,0.4,1.5,0.6,2.3c0.4,1.4,0.7,2.8,1.1,4.2c0.2,0.7,0.4,1.5,0.6,2.2c0.4,1.4,0.8,2.8,1.1,4.2
	c0.2,0.7,0.4,1.4,0.6,2.1c0.4,1.4,0.8,2.8,1.2,4.2c0.2,0.7,0.4,1.4,0.6,2c0.4,1.4,0.8,2.7,1.2,4.1c0.2,0.7,0.4,1.4,0.6,2
	c0.4,1.3,0.8,2.6,1.1,3.9c0.2,0.7,0.4,1.4,0.6,2.1c0.4,1.3,0.8,2.6,1.1,3.8c0.2,0.7,0.4,1.3,0.6,2c0.4,1.3,0.8,2.6,1.2,3.8
	c0.2,0.6,0.4,1.3,0.6,1.9c0.4,1.3,0.8,2.5,1.2,3.7c0.2,0.6,0.4,1.2,0.6,1.8c0.4,1.2,0.7,2.4,1.1,3.5c0.2,0.6,0.4,1.3,0.6,1.9
	c0.4,1.2,0.8,2.4,1.2,3.6c0.2,0.5,0.3,1.1,0.5,1.6c0.4,1.2,0.8,2.4,1.2,3.5c0.2,0.5,0.3,1,0.5,1.5c0.4,1.2,0.8,2.4,1.2,3.6
	c0.1,0.4,0.3,0.8,0.4,1.2c0.4,1.1,0.7,2.2,1.1,3.3c0.2,0.5,0.3,1,0.5,1.4c0.4,1.2,0.8,2.3,1.2,3.4c0.1,0.4,0.2,0.7,0.4,1.1
	c0.4,1,0.7,2,1.1,3c0.2,0.4,0.3,0.9,0.5,1.3c0.3,1,0.7,1.9,1,2.8c0.1,0.4,0.3,0.8,0.4,1.2c0.4,1.2,0.8,2.3,1.2,3.4
	c0,0.1,0.1,0.2,0.1,0.4c0.3,0.9,0.7,1.8,1,2.7c0.1,0.3,0.2,0.6,0.3,0.9c0.3,0.9,0.7,1.8,1,2.6c0.1,0.2,0.2,0.5,0.3,0.7
	c0.7,1.9,1.4,3.7,2,5.4c0.1,0.2,0.2,0.4,0.2,0.6c0.2,0.6,0.4,1.1,0.6,1.6c0.1,0.3,0.3,0.7,0.4,1c0.6,1.6,1.2,3,1.6,4.2v0.1
	c0.2,0.4,0.3,0.8,0.5,1.2c0.1,0.2,0.2,0.4,0.2,0.6c0.2,0.4,0.3,0.7,0.4,1.1c0,0.1,0.1,0.3,0.2,0.4c0.3,0.7,0.5,1.3,0.7,1.7
	c0.2,0.6,0.4,0.9,0.4,0.9c23.9,75.1-31.4,83.3-31.4,83.3c1.2,0.6,2.4,1.2,3.6,1.8c0.4,0.2,0.7,0.3,1,0.5c0.9,0.4,1.7,0.8,2.6,1.1
	c0.4,0.1,0.7,0.3,1.1,0.4c0.9,0.4,1.9,0.7,2.8,1c0.2,0.1,0.4,0.2,0.7,0.2c1.1,0.4,2.2,0.7,3.3,1c0.2,0.1,0.4,0.1,0.7,0.2
	c0.9,0.2,1.7,0.4,2.6,0.6c0.3,0.1,0.6,0.1,0.9,0.2c0.8,0.2,1.5,0.3,2.3,0.4c0.3,0,0.6,0.1,0.8,0.1c1,0.1,2,0.3,3,0.3l0,0
	c1,0.1,1.9,0.1,2.9,0.1c0.2,0,0.4,0,0.7,0c1.2,0,2.4-0.1,3.6-0.2l0,0c1.2-0.1,2.3-0.3,3.4-0.5c0.2,0,0.4-0.1,0.6-0.1
	c1.1-0.2,2.1-0.5,3.1-0.8c0.2-0.1,0.4-0.1,0.6-0.2c1-0.3,2.1-0.7,3.1-1.1c0,0,0,0,0.1,0c1-0.4,1.9-0.8,2.9-1.3
	c0.2-0.1,0.4-0.2,0.5-0.3c0.9-0.5,1.8-1,2.6-1.5c0.2-0.1,0.4-0.2,0.6-0.3c0.9-0.5,1.7-1.1,2.6-1.7c0.1-0.1,0.2-0.1,0.2-0.2
	c0.8-0.6,1.5-1.2,2.3-1.8c0.2-0.1,0.3-0.3,0.5-0.4c0.8-0.6,1.5-1.3,2.2-2c0.2-0.2,0.4-0.3,0.5-0.5c0.7-0.7,1.4-1.4,2.1-2.1
	c0.1-0.1,0.2-0.3,0.3-0.4c0.6-0.7,1.2-1.3,1.8-2c0.2-0.2,0.3-0.4,0.5-0.6c0.6-0.7,1.2-1.5,1.8-2.3c0.2-0.2,0.3-0.5,0.5-0.7
	c0.6-0.8,1.1-1.6,1.7-2.3c0.1-0.2,0.2-0.4,0.4-0.6c0.5-0.7,0.9-1.4,1.3-2.1c0.1-0.2,0.3-0.4,0.4-0.7c0.5-0.8,1-1.6,1.4-2.4
	c0.2-0.3,0.3-0.5,0.5-0.8c0.4-0.8,0.9-1.6,1.3-2.4c0.1-0.2,0.2-0.5,0.4-0.7c0.3-0.7,0.7-1.4,1-2c0.1-0.2,0.2-0.5,0.3-0.7
	c0.4-0.8,0.7-1.6,1.1-2.4c0.1-0.3,0.3-0.6,0.4-0.9c0.3-0.8,0.7-1.5,1-2.3c0.1-0.3,0.2-0.5,0.3-0.8c0.3-0.6,0.5-1.2,0.7-1.9
	c0.1-0.2,0.2-0.5,0.3-0.7c0.3-0.7,0.5-1.5,0.8-2.2c0.1-0.3,0.2-0.5,0.3-0.8c0.2-0.7,0.5-1.4,0.7-2c0.1-0.2,0.1-0.5,0.2-0.7
	c0.2-0.6,0.4-1.1,0.5-1.6c0.1-0.2,0.1-0.4,0.2-0.6c0.2-0.6,0.4-1.2,0.6-1.8c0.1-0.2,0.1-0.4,0.2-0.7c0.2-0.6,0.3-1.1,0.5-1.7
	c0.1-0.2,0.1-0.4,0.2-0.6c0.1-0.4,0.2-0.9,0.3-1.3c0-0.2,0.1-0.3,0.1-0.5c0.1-0.5,0.2-0.9,0.3-1.3c0-0.1,0.1-0.3,0.1-0.4
	c0.1-0.4,0.2-0.8,0.3-1.2c0-0.1,0-0.2,0.1-0.3c0.1-0.3,0.1-0.6,0.2-0.9v-0.1c0.1-0.3,0.1-0.5,0.2-0.7c0-0.1,0-0.1,0-0.2
	c0-0.2,0.1-0.3,0.1-0.4V473v-0.1c1.2-5,2.2-10,3.3-15c0.3-1.4,0.6-2.7,0.8-4.1c0.8-4.1,1.6-8.2,2.3-12.2c0.2-1,0.4-1.9,0.5-2.9
	c0.9-4.9,1.6-9.8,2.4-14.6c0.2-1.2,0.3-2.3,0.5-3.5c0.6-3.9,1.1-7.8,1.6-11.7c0.2-1.2,0.3-2.5,0.5-3.7c0.6-4.8,1.1-9.6,1.6-14.4
	c0.1-0.7,0.1-1.3,0.2-1.9c0.4-4.2,0.8-8.4,1.1-12.5c0.1-1.3,0.2-2.6,0.3-3.9c0.3-4.2,0.6-8.5,0.9-12.7c0-0.5,0.1-1,0.1-1.5
	c0.3-4.7,0.5-9.3,0.7-13.9c0-0.5,0-0.9,0.1-1.4c6.8-162.8-10.1-210.5-21.7-224.4C182.8,117.7,182,116.2,181.5,114.6z"/>
<path class="st9" d="M348.9,447.8c-0.9,1.4-1.4,3.1-1.5,4.7c-0.1,1.8,0.3,3.5,1.1,5.2c0.9,1.8,2.1,3.5,3.7,5.2
	c3.2,3.4,6.8,8.2,9.8,12c1.3,1.7,2.4,3.1,3.3,4.2c0.5,0.6,0.9,1.1,1.2,1.4c0.4,0.5,1.5,1.6,3.2,1.6c1.3,0,2.5-0.7,3.2-1.8
	c0.1-0.1,0.2-0.4,0.4-0.6c1.3-1.8,4.4-6.1,7.2-11c1.6-2.9,2.9-5.5,3.9-7.9c1.3-3.1,1.9-5.7,2-8c0.1-2.6-0.8-5.1-2.6-7
	c-1.8-1.9-4.3-3-6.9-3c-0.8,0-1.7,0.1-2.5,0.3c-2.2,0.6-4.1,1.5-5.8,2.7c-0.7,0.5-1.4,1-2,1.6c-0.9-1-2.1-2-3.4-2.9
	c-1.7-1.1-3.6-1.7-5.5-1.7C354.2,442.8,350.8,444.7,348.9,447.8z M351.2,453.9c0-0.2,0-0.5,0-0.7c0-0.1,0-0.2,0-0.3
	c0-0.4,0-0.7,0.1-1v-0.1c0.1-0.3,0.2-0.5,0.3-0.8c0-0.1,0.1-0.2,0.1-0.3c0.1-0.2,0.2-0.4,0.3-0.6c0.1-0.1,0.1-0.2,0.2-0.3
	c0.1-0.2,0.3-0.4,0.4-0.6c0-0.1,0.1-0.1,0.1-0.2c0.2-0.3,0.5-0.5,0.7-0.7c0-0.1,0.1-0.1,0.1-0.1c0.2-0.2,0.5-0.3,0.7-0.5
	c0.1,0,0.1-0.1,0.2-0.1c0.2-0.1,0.4-0.2,0.6-0.3c0,0,0.1-0.1,0.2-0.1c0.2-0.1,0.4-0.2,0.7-0.3c0,0,0,0,0.1,0c0.4-0.1,0.7-0.2,1-0.2
	h0.1c0.2,0,0.5,0,0.8,0c0.1,0,0.2,0,0.3,0c0.2,0,0.5,0.1,0.7,0.1c0.1,0,0.2,0.1,0.3,0.1c0.2,0,0.5,0.1,0.7,0.2
	c0.1,0,0.2,0.1,0.3,0.1c0.3,0.1,0.7,0.3,1,0.5c3.4,2.2,5.5,6,5.5,6c1.9-4.3,5.9-6.1,8.7-6.9c0.5-0.1,1-0.2,1.5-0.2s0.9,0,1.3,0.1
	c0.1,0,0.1,0.1,0.2,0.1c0.4,0,0.7,0.2,1,0.3c0.1,0,0.3,0.1,0.4,0.2c0.3,0.1,0.5,0.2,0.7,0.4c0.2,0.1,0.3,0.2,0.4,0.3
	c0.1,0.1,0.3,0.3,0.5,0.5c0.1,0.1,0.2,0.3,0.3,0.4c0.1,0.2,0.3,0.5,0.4,0.7c0.1,0.1,0.1,0.3,0.2,0.4c0.1,0.2,0.2,0.5,0.3,0.8
	c0,0.1,0.1,0.3,0.1,0.4c0.1,0.4,0.1,0.8,0.2,1.4c-0.5,9.5-12.7,25.3-13,25.8h-0.1c0-0.1-0.1-0.1-0.1-0.1c-0.1-0.1-0.1-0.1-0.2-0.2
	c-0.1-0.1-0.1-0.1-0.2-0.2c-0.1-0.1-0.2-0.2-0.3-0.3c-0.1-0.1-0.1-0.2-0.2-0.3c-0.1-0.1-0.2-0.3-0.3-0.4c-0.1-0.2-0.2-0.3-0.3-0.4
	c-0.1-0.2-0.3-0.3-0.4-0.5c-0.1-0.2-0.3-0.3-0.4-0.5c-0.1-0.2-0.3-0.3-0.4-0.5c-0.2-0.2-0.3-0.4-0.5-0.6c-0.1-0.1-0.2-0.3-0.3-0.4
	c-1.1-1.4-2.4-3-3.7-4.7l-0.1-0.1c-0.3-0.4-0.6-0.8-0.9-1.2c-0.1-0.1-0.2-0.2-0.3-0.3c-0.3-0.4-0.6-0.8-0.9-1.2
	c-0.1-0.2-0.2-0.3-0.3-0.4c-0.3-0.4-0.6-0.7-0.9-1.1c-0.2-0.1-0.3-0.3-0.4-0.4c-0.3-0.3-0.6-0.7-0.9-1c-0.2-0.1-0.3-0.3-0.4-0.4
	c-0.3-0.3-0.6-0.7-0.9-1c-0.1-0.1-0.2-0.3-0.3-0.4c-0.4-0.4-0.8-0.9-1.2-1.3c-1.4-1.5-2.4-3-3.1-4.3c-0.2-0.3-0.3-0.7-0.4-1
	c0-0.1-0.1-0.2-0.1-0.3c-0.1-0.2-0.2-0.5-0.2-0.7C351.2,454.1,351.2,454,351.2,453.9z M361.1,583.9c0,0-0.5,11.4-6.1,9
	c-4.1-1.7-3.7-6.7-3.2-9.4c0.2-1.1,0.4-2.2,0.6-3.2c0.3-2.1,1.3-5.5,4.8-4.6C362.1,576.9,361.1,583.9,361.1,583.9z M550.9,344
	c11.4-69.4,23.1-141.2,23.1-169.3c0,0,0,0,0-0.1c0-2.1-0.8-3.9-2.2-5.3c0.5-1,0.8-2,0.9-3.2c0-0.1,0.2-3.5,0.3-7.1
	c0.1-2.2,0.1-4,0-5.4c-0.1-2.6-0.3-4.4-1.1-6.1c-0.2-0.3-0.3-0.6-0.5-0.9c0-0.2,0-0.4,0-0.6v-10.7c0-2.4-1.1-4.6-3-6
	c0.3-1,0.5-2.1,0.4-3.1c0-0.2-0.5-5.1-1.9-12.4c-1.9-9.8-4.5-18.8-7.8-27C554.3,75,548.2,65.5,541,58.6c-4.5-4.3-9.4-7.6-14.7-9.9
	c-5.9-2.5-12.2-3.8-18.9-3.8c-7.2,0-14.9,1.5-23,4.5c-8.3,3.1-17.3,7.8-26.5,14.1c-2.2,1.5-3.4,4-3.3,6.6c0.1,1.1,0.4,2.2,0.9,3.2
	c-2.3-1.1-4.8-2.2-7.3-3.4c-14.1-6.2-28.8-11.2-43.5-14.8c-18.4-4.5-37-6.7-55.2-6.7c-12.7,0-25.5,1.1-37.9,3.3
	c-13.6,2.4-27.1,6.1-40.2,11.1c-14.1,5.4-28.1,12.3-41.6,20.6c-7.1,4.4-14.2,9.2-21.1,14.4c-6.7,5-13.3,10.5-19.8,16.2
	c-0.1-0.3-0.1-0.5-0.2-0.7c-0.5-7.1-1.8-13.4-3.8-18.7c-2-5.4-4.9-10-8.5-13.6c-3.4-3.4-7.4-5.9-12-7.5c-3.9-1.4-8.3-2.1-13-2.1
	c-3.9,0-8.2,0.5-12.6,1.5c-5.1,1.1-10.1,2.8-14.8,5c-4.7,2.1-9.1,4.8-13.3,7.9c-4.1,3.1-7.9,6.6-11.3,10.5c-3.4,3.9-6.5,8.2-9,12.7
	c-3.7,6.6-7,13.9-9.6,21.7c-2.5,7.4-4.5,15.5-6,24c-1.4,8.1-2.4,16.8-3,25.8c-0.5,8.6-0.7,17.7-0.4,27.1
	c0.9,32.4,6.4,69.9,16.4,111.6c3.9,16.3,8.5,33.3,13.7,50.5c4.1,13.7,8.7,27.6,13.4,41.3c7.6,21.8,13.3,35.8,14.2,38
	c7.7,24.2,7.4,43.2-0.7,56.3c-2,3.2-4.5,6.1-7.5,8.6c-2.4,2-5.1,3.8-8.1,5.2c-5,2.4-9,3.1-9.3,3.2c-3.2,0.4-5.7,2.9-6.3,6.1
	c-0.6,3.2,1,6.4,3.9,7.9c5.7,3,11.3,5.3,16.7,6.7c5.2,1.4,10.4,2.2,15.3,2.2c6.1,0,12-1.1,17.5-3.3c5-2,9.7-4.8,14.1-8.5
	c7.1-6,13.4-14.2,18.7-24.5c8.4-16.2,11.6-32.1,12-34.2c5.2-22.3,9.3-45.6,12.1-69.2c2.6-21.5,4.3-43.8,5-66.2c0-0.3,0-0.6,0-0.9
	c12.6,10.3,27.4,19.3,44.3,26.7c14.9,6.6,30.5,11.6,46.5,15c9.2,1.9,18.6,3.3,28.1,4.1c-0.4,0.7-0.8,1.6-0.9,2.5l-3.3,18.1
	c-0.3-0.2-0.6-0.3-0.9-0.4c-0.5-1.1-1.3-2.1-2.3-2.9c-7.1-5.3-14.2-8-21.1-8c-3.9,0-7.6,0.8-11.2,2.5c-3.2,1.5-6.3,3.7-9.1,6.5
	c-4.9,4.8-9.1,11.5-12.6,19.8c-3.1,7.3-5.5,15.6-7.3,24.7c-1.6,8.4-2.5,17.2-2.6,25.4c-0.1,8.8,0.5,21.4,1.8,37.7
	c1,12.9,2.5,28.1,4.4,45.1c1.8,16.2,3.6,31.1,4.9,41.1c-0.2-0.1-0.5-0.1-0.7-0.2c-0.6-0.1-1.2-0.2-1.7-0.2c-2.1,0-4.1,0.9-5.6,2.5
	l-4.4,4.9c-2,2.2-2.5,5.3-1.3,8s3.9,4.4,6.8,4.4h5.6c1.9,0,3.7-0.7,5.1-2c1.3,1.3,3.2,2,5.1,2h53.8c1.2,0,2.3-0.3,3.3-0.8
	c1,0.5,2.1,0.8,3.3,0.8H394c3.1,0,5.8-1.9,6.9-4.7c1.1-2.9,0.4-6.1-1.9-8.2c-2.6-2.4-4.9-5.1-6.9-7.9c0.2,0,0.3,0,0.5,0
	c0.5,0,1-0.1,1.5-0.2c3.5-0.7,6-3.8,6-7.3v-78.5v-22.2V476c3.6-2.4,6.7-4.2,9.3-5.2c2.3-1,4-3.1,4.5-5.6c0.4-2.5-0.4-5-2.2-6.8
	c-0.1-0.1-7-6.6-14.3-15.4c-1-1.2-1.9-2.3-2.8-3.5c0.3,0,0.5,0,0.8-0.1c3.2-0.5,5.6-3,6.1-6.2c0.1-0.5,0.7-4.5,0.6-9.6
	c-0.2-7.8-2.1-13.8-5.6-17.9c-1.5-1.8-3.4-3.2-5.5-4.2c-2.2-1-4.6-1.5-7.2-1.5c-1.3,0-2.7,0.1-4.2,0.4c-1,0.2-1.9,0.6-2.7,1.1
	l-3.4-15.1c-0.2-0.8-0.5-1.5-0.9-2.2c2.4-0.2,4.8-0.5,7.2-0.7c11.8-1.4,23.3-3.5,34.1-6.3c10.2-2.6,20.1-6,29.4-9.8
	c8.7-3.6,17.1-7.9,24.9-12.6c1.6-0.9,3.1-1.9,4.6-2.9c-0.2,3-0.4,8.9-0.7,17c-0.3,10.7-0.6,27.3-0.1,45.7
	c0.5,20.8,1.8,39.5,3.8,55.7c1.2,9.7,2.7,18.6,4.5,26.5c2,8.8,4.3,16.6,7,23c1.9,4.5,4.4,8.8,7.4,12.6c3,3.7,6.6,7,10.5,9.8
	c8.1,5.6,17.6,8.6,27.3,8.7c0.2,0,0.4,0,0.6,0c5.7,0,11.2-1,16.3-3c5.9-2.3,11.4-5.9,16.2-10.8c2.1-2.1,2.8-5.2,1.7-8
	s-3.6-4.6-6.6-4.7c-0.2,0-2.3-0.2-5.3-1.1c-4-1.2-7.7-3.1-10.9-5.6c-10.3-8.1-14.9-22.1-13.7-41.4
	C533.2,452.3,541.8,399.7,550.9,344z M265,608.2l4.3-4.9l1.3,4.9H265z M565.5,153.7c0,0.1,0,0.2,0,0.3c0,0.1,0,0.1,0,0.2
	c0,0.3,0,0.6,0,0.9c0,0,0,0.1,0,0.2c0,0.3,0,0.7,0,1.1c0,0.1,0,0.3,0,0.4c0,0.3,0,0.5,0,0.8c0,0.2,0,0.4,0,0.6c0,0.1,0,0.3,0,0.4
	c0,0.2,0,0.5,0,0.7c0,0,0,0.1,0,0.2c0,0.9-0.1,1.8-0.1,2.6c0,0.1,0,0.1,0,0.2c0,1.1-0.1,2.1-0.1,2.7c0,0.1,0,0.1,0,0.1
	c0,0.3,0,0.5,0,0.6v0.1l-15.7-1.1l15.6-13.6C565.4,151.5,565.5,152.4,565.5,153.7z M564,143.6v2.5l-16.9,7.1l16.9-17.9V143.6z
	 M465.6,66.7c0.4-0.3,0.8-0.5,1.2-0.8c0.8-0.5,1.7-1,2.5-1.5c0.5-0.3,0.9-0.5,1.4-0.8c0.7-0.4,1.5-0.9,2.3-1.3
	c0.4-0.2,0.9-0.5,1.3-0.7c0.9-0.5,1.7-1,2.6-1.4c0.3-0.1,0.6-0.3,0.9-0.4c1.2-0.6,2.3-1.1,3.4-1.6c0.3-0.2,0.6-0.3,0.9-0.4
	c0.8-0.3,1.6-0.7,2.4-1c0.3-0.1,0.7-0.3,1.1-0.4c0.7-0.3,1.4-0.6,2.1-0.8c0.4-0.1,0.7-0.3,1.1-0.4c0.8-0.3,1.5-0.5,2.2-0.7
	c0.3-0.1,0.6-0.2,0.9-0.3c1-0.3,2-0.6,3-0.8c0.1,0,0.1,0,0.2,0c0.9-0.2,1.8-0.4,2.7-0.6c0.3,0,0.6-0.1,0.9-0.1
	c0.7-0.1,1.3-0.2,2-0.3c0.4,0,0.7-0.1,1-0.1c0.7-0.1,1.3-0.2,1.9-0.2c0.3-0.1,0.6-0.1,0.9-0.1c0.7-0.1,1.5-0.1,2.2-0.1
	c0.1,0,0.3,0,0.4,0c0.1,0,0.3,0,0.4,0c1.2,0,2.4,0.1,3.6,0.2c0.3,0.1,0.5,0.1,0.8,0.1c1.2,0.1,2.3,0.3,3.5,0.5
	c0.2,0.1,0.5,0.2,0.7,0.2c1.1,0.2,2.1,0.5,3.1,0.8c0.2,0.1,0.3,0.1,0.5,0.2c1.1,0.4,2.2,0.8,3.2,1.2c0.2,0.1,0.5,0.2,0.7,0.3
	c1,0.5,2,1,3,1.5c0,0.1,0.1,0.1,0.1,0.1c1,0.5,1.9,1.1,2.8,1.7c0.2,0.1,0.4,0.3,0.6,0.4c0.9,0.7,1.7,1.3,2.6,2
	c0.1,0.2,0.3,0.3,0.4,0.4c0.8,0.6,1.6,1.3,2.3,2c0.1,0.2,0.3,0.3,0.4,0.4c0.8,0.8,1.5,1.6,2.3,2.4c0.2,0.2,0.3,0.3,0.5,0.5
	c0.8,0.8,1.5,1.7,2.2,2.6c0.7,0.9,1.4,1.9,2.1,2.8c0.1,0.2,0.3,0.4,0.4,0.6c0.7,1,1.3,1.9,1.9,2.9c0.1,0.2,0.1,0.3,0.2,0.4
	c0.5,0.9,1.1,1.9,1.6,2.8c0.1,0.2,0.2,0.3,0.3,0.5c0.6,1,1.1,2,1.6,3c0.1,0.2,0.2,0.4,0.3,0.6c0.6,1,1,2.1,1.5,3.1
	c0,0.1,0,0.1,0,0.1c0.5,1.1,1,2.1,1.4,3.2c0,0.2,0.1,0.4,0.2,0.6c0.4,1,0.8,2.1,1.2,3.1c0,0,0.1,0.1,0.1,0.2c0.4,1,0.8,2,1.1,3
	c0.1,0.2,0.2,0.3,0.2,0.5c0.4,1.1,0.7,2.1,1,3.1c0,0.2,0.1,0.3,0.1,0.5c0.3,1,0.6,1.9,0.9,2.9v0.1c0.3,1,0.5,2,0.8,3
	c0,0.2,0.1,0.3,0.1,0.5c0.3,0.9,0.5,1.9,0.7,2.8c0.2,0.9,0.4,1.7,0.6,2.6c0,0.1,0.1,0.3,0.1,0.4c0.2,0.9,0.3,1.7,0.5,2.5
	c0.1,0.1,0.1,0.2,0.1,0.3c0.1,0.8,0.3,1.5,0.4,2.2c0,0.1,0,0.1,0,0.2c0.2,0.8,0.3,1.4,0.4,2.1c0.1,0.1,0.1,0.2,0.1,0.3
	c0.1,0.6,0.2,1.2,0.3,1.8c0.1,0.5,0.1,1,0.2,1.5c0,0.1,0,0.2,0,0.3c0.1,0.4,0.2,0.8,0.2,1.2v0.1c0,0.3,0.1,0.7,0.1,0.9
	c0,0.1,0,0.1,0,0.1c0.1,0.3,0.1,0.5,0.1,0.6v0.1v0.1c0,0-0.7,0.6-1.7,1.6c-0.1,0.1-0.2,0.2-0.3,0.3c-0.2,0.3-0.5,0.5-0.8,0.8
	c-0.2,0.2-0.4,0.3-0.6,0.5c-0.3,0.2-0.6,0.5-0.9,0.8c-0.2,0.3-0.4,0.5-0.7,0.7c-0.3,0.3-0.7,0.7-1.1,1c-0.2,0.2-0.5,0.4-0.7,0.6
	c-0.4,0.3-0.7,0.7-1.1,1s-0.7,0.6-1,0.9c-0.3,0.3-0.7,0.6-1,0.9c-0.3,0.3-0.7,0.6-1,0.9c-0.4,0.3-0.7,0.6-1.1,0.9
	c-0.3,0.3-0.7,0.6-1,0.9c-0.4,0.3-0.8,0.6-1.1,0.9c-0.3,0.3-0.7,0.6-1,0.9c-0.4,0.2-0.7,0.5-1,0.8c-0.4,0.3-0.7,0.5-1,0.8
	c-0.3,0.2-0.6,0.5-0.9,0.7c-0.3,0.2-0.6,0.5-0.9,0.7c-0.3,0.2-0.5,0.4-0.8,0.6c-0.3,0.2-0.6,0.4-0.8,0.6c-0.2,0.2-0.4,0.4-0.6,0.5
	c-0.2,0.1-0.4,0.3-0.6,0.4c-0.2,0.1-0.4,0.2-0.5,0.3c-0.1,0.1-0.3,0.1-0.4,0.2c-0.1,0-0.2,0.1-0.3,0.1s-0.3,0.1-0.3,0
	c-26.7-51.1-76.3-76.8-76.6-77.1C463.1,68.3,464.4,67.5,465.6,66.7z M521.3,139.2c-8.7-1.5-17-2.4-24.9-3c-2.9-0.2-5.7-0.4-8.5-0.5
	c-2.8-0.1-5.5-0.1-8.2-0.1c-0.4,0-0.7,0-1.1,0c-2.2,0-4.4,0-6.6,0.1c-0.4,0-0.9,0-1.3,0c-2,0.1-3.9,0.2-5.8,0.3c-0.2,0-0.5,0-0.7,0
	c-2.1,0.1-4.1,0.2-6,0.4c-0.4,0-0.9,0.1-1.3,0.1c-1.9,0.2-3.7,0.4-5.5,0.6c-23.6,2.8-37.8,8.2-37.8,8.2c2.1-39.3,10.8-46,10.8-46
	c38.1,10.7,54.9,4.6,61.4,2.6c0.6-0.2,1.5,0,2.5,0.5c0.1,0,0.1,0.1,0.2,0.1c0.4,0.2,0.7,0.4,1.1,0.7c0.1,0.1,0.3,0.2,0.4,0.3
	c0.4,0.4,0.9,0.7,1.4,1.1c0.1,0,0.1,0,0.1,0c0.5,0.4,1,0.9,1.6,1.4c0.2,0.1,0.3,0.3,0.5,0.4c0.5,0.4,0.9,0.8,1.4,1.3
	c0.1,0.1,0.3,0.3,0.4,0.4c0.6,0.6,1.2,1.2,1.8,1.8c0.2,0.2,0.3,0.3,0.5,0.5c0.4,0.5,0.9,1,1.4,1.5c0.2,0.2,0.4,0.4,0.6,0.6
	c0.7,0.6,1.3,1.3,1.9,2c0.1,0.1,0.2,0.2,0.3,0.3c0.5,0.6,1,1.3,1.6,1.9c0.2,0.2,0.4,0.4,0.6,0.7c0.5,0.6,0.9,1.1,1.4,1.7
	c0.2,0.2,0.3,0.4,0.5,0.6c0.6,0.7,1.2,1.4,1.8,2.1c0.2,0.2,0.4,0.5,0.6,0.7c0.5,0.5,0.9,1,1.3,1.5c0.2,0.3,0.4,0.5,0.6,0.8
	c0.5,0.7,1.1,1.3,1.6,2c0.2,0.2,0.3,0.4,0.5,0.6c0.4,0.5,0.8,1,1.2,1.5c0.1,0.2,0.3,0.5,0.5,0.7c0.5,0.5,0.9,1.1,1.3,1.6
	c0.1,0.1,0.1,0.2,0.2,0.3c0.6,0.7,1,1.3,1.5,1.9c0,0,0.1,0,0.1,0.1c0.4,0.5,0.7,0.9,1,1.3c0.1,0.2,0.2,0.3,0.3,0.4
	C520.4,137.6,521.5,139.2,521.3,139.2z M523.4,144.3c0,0,0.4,0.7,1.1,1.8c0.1,0,0.1,0.1,0.1,0.1c0.2,0.3,0.3,0.5,0.5,0.8
	c0.1,0.2,0.3,0.5,0.4,0.7c0.2,0.3,0.3,0.6,0.5,0.9c0.2,0.4,0.4,0.7,0.6,1.1c0.2,0.2,0.3,0.5,0.5,0.8c0.4,0.6,0.8,1.3,1.2,2.1
	c0.1,0.1,0.1,0.2,0.2,0.3c0.3,0.7,0.7,1.4,1.1,2.1c0.1,0.3,0.3,0.5,0.4,0.8c0.4,0.7,0.7,1.3,1,1.9c0.2,0.3,0.3,0.7,0.5,1
	c0.3,0.6,0.6,1.3,0.9,1.9c0.2,0.3,0.3,0.7,0.5,1c0.3,0.7,0.7,1.4,1,2.1c0.1,0.3,0.3,0.6,0.4,0.9c0.9,2,1.7,4.1,2.5,6.2
	c0.1,0.4,0.2,0.7,0.3,1c0.2,0.7,0.5,1.5,0.7,2.2c0.1,0.4,0.2,0.7,0.3,1.1c0.2,0.6,0.4,1.3,0.6,2c0.1,0.3,0.2,0.7,0.3,1.1
	c0.1,0.7,0.3,1.4,0.4,2.1c0.1,0.4,0.2,0.7,0.2,1c0.1,1,0.3,2,0.6,2.8c0,0-0.1,0.1-0.2,0.1h-0.1c-0.1,0.1-0.3,0.1-0.6,0.2
	c-0.1,0-0.1,0-0.2,0c-0.3,0-0.6,0.1-1,0.2H538c-0.4,0.1-0.8,0.2-1.3,0.3c-0.1,0.1-0.2,0.1-0.3,0.1c-0.5,0.1-1,0.2-1.6,0.3
	c-0.1,0-0.2,0-0.3,0c-0.5,0.1-1.1,0.1-1.7,0.2c-0.1,0-0.2,0-0.3,0c-0.6,0.1-1.3,0.2-2,0.2c-0.1,0-0.3,0-0.4,0
	c-0.7,0.1-1.4,0.1-2.2,0.1c-0.2,0-0.3,0-0.5,0c-0.4,0-0.8,0-1.2,0c-0.2,0-0.5,0-0.7,0c-0.4,0-0.8-0.1-1.2-0.1
	c-0.2-0.1-0.5-0.1-0.7-0.1c-0.4,0-0.8,0-1.2-0.1c-0.2,0-0.5-0.1-0.7-0.1c-0.5,0-0.9-0.1-1.4-0.2c-0.2,0-0.4-0.1-0.6-0.1
	c-0.6-0.2-1.3-0.3-1.9-0.5c-0.1,0-0.2-0.1-0.3-0.1c-0.6-0.1-1.1-0.3-1.6-0.5c-0.3-0.1-0.5-0.2-0.7-0.3c-0.4-0.1-0.8-0.3-1.2-0.5
	c-0.2-0.1-0.5-0.2-0.7-0.3c-0.4-0.2-0.8-0.4-1.2-0.6c-0.2-0.1-0.5-0.3-0.7-0.4c-0.4-0.2-0.8-0.4-1.2-0.7c-0.2-0.1-0.4-0.3-0.6-0.4
	c-0.5-0.3-1-0.6-1.4-1c-0.2-0.1-0.3-0.2-0.4-0.3c-0.6-0.4-1.2-1-1.7-1.5c-0.1-0.2-0.3-0.3-0.4-0.5c-0.4-0.4-0.7-0.9-1.1-1.3
	c-0.1-0.2-0.3-0.5-0.5-0.7c-0.3-0.4-0.6-0.9-0.9-1.3c-0.1-0.2-0.3-0.5-0.5-0.8c-0.2-0.4-0.5-0.9-0.8-1.4c-0.2-0.3-0.3-0.6-0.5-0.9
	c-0.3-0.6-0.5-1.1-0.8-1.7c-0.2-0.2-0.3-0.5-0.4-0.8c-0.3-0.9-0.7-1.8-1-2.8c-0.4-1.4-0.8-2.7-1.1-3.9c-0.1-0.2-0.1-0.4-0.2-0.6
	c-0.3-1.2-0.5-2.3-0.7-3.3c0-0.2-0.1-0.4-0.1-0.6c-0.2-1-0.3-2-0.4-2.9c0-0.1,0-0.2,0-0.3c0-0.8,0-1.6,0-2.4c0-0.1,0-0.2,0-0.3
	c0.1-0.8,0.2-1.5,0.3-2.2c0-0.1,0.1-0.3,0.1-0.4c0.1-0.7,0.3-1.2,0.5-1.8c0-0.1,0.1-0.2,0.1-0.3c0.2-0.6,0.5-1.1,0.8-1.5
	c0-0.1,0-0.1,0-0.1c0.3-0.4,0.7-0.8,1.1-1.2l0.1-0.1C504.4,139.6,514,141.4,523.4,144.3z M445.5,142.4c0.1,1.3,0.2,2.6,0.3,3.9
	c0.1,1.8,0.3,3.6,0.5,5.3c0.1,0.2,0.1,0.5,0.1,0.7c0.3,2,0.5,3.9,0.8,5.7c0,0.5,0.1,1,0.2,1.5c0.2,1.4,0.4,2.8,0.7,4.1
	c0.1,0.5,0.2,1,0.3,1.5c0.3,1.6,0.7,3,1,4.5c0,0.2,0,0.4,0.1,0.6c0.4,1.7,0.9,3.2,1.3,4.8c0.2,0.4,0.3,0.8,0.4,1.2
	c0.4,1.1,0.7,2.3,1.1,3.4c0.1,0.5,0.3,0.9,0.4,1.3c0.5,1.2,0.9,2.5,1.4,3.7c0.1,0.2,0.1,0.3,0.2,0.5c0.5,1.4,1.1,2.7,1.7,4
	c0.2,0.4,0.4,0.7,0.5,1c0.5,1,0.9,2,1.4,2.9c0.1,0.3,0.3,0.7,0.5,1c0.5,1.1,1.1,2.1,1.7,3.1c0.1,0.1,0.1,0.3,0.2,0.4
	c0.7,1.1,1.4,2.2,2.1,3.2c0.1,0.3,0.3,0.5,0.5,0.8c0.6,0.8,1.1,1.6,1.7,2.3c0.2,0.3,0.4,0.5,0.6,0.8c0.7,0.9,1.3,1.7,2,2.5
	c0.1,0.1,0.2,0.2,0.3,0.3c0.8,0.9,1.6,1.8,2.4,2.6c0.2,0.2,0.4,0.4,0.6,0.6c0.6,0.6,1.3,1.2,1.9,1.8c0.2,0.2,0.5,0.4,0.7,0.6
	c0.7,0.7,1.5,1.3,2.2,1.9c0.1,0,0.2,0.1,0.3,0.2c0.9,0.7,1.7,1.4,2.6,2c0.2,0.1,0.4,0.3,0.6,0.4c0.6,0.5,1.3,1,2,1.4
	c0.2,0.2,0.5,0.3,0.7,0.5c0.8,0.5,1.5,1,2.3,1.4c0.1,0.1,0.2,0.1,0.3,0.2c0.9,0.5,1.8,0.9,2.7,1.4c0.2,0.1,0.4,0.2,0.6,0.3
	c0.7,0.4,1.4,0.7,2.1,1c0.2,0.1,0.4,0.2,0.7,0.3c0.8,0.4,1.6,0.7,2.4,1c0.1,0,0.2,0.1,0.3,0.1c0.9,0.4,1.8,0.7,2.7,1
	c0.2,0.1,0.4,0.1,0.6,0.2c0.7,0.3,1.4,0.5,2.1,0.7c0.2,0.1,0.5,0.1,0.7,0.2c0.8,0.2,1.6,0.4,2.4,0.6c0.1,0,0.2,0.1,0.3,0.1
	c0.9,0.2,1.8,0.4,2.7,0.6c0.2,0,0.4,0.1,0.6,0.1c0.7,0.2,1.4,0.3,2.1,0.4c0.2,0,0.5,0.1,0.7,0.1c0.8,0.1,1.5,0.2,2.3,0.3
	c0.1,0,0.2,0,0.3,0c0.9,0.1,1.7,0.2,2.6,0.3c0.2,0,0.4,0,0.6,0c0.7,0,1.3,0.1,2,0.1c0.3,0,0.5,0,0.7,0c0.7,0,1.4,0.1,2.1,0.1
	c0.1,0,0.2,0,0.3,0c0.8,0,1.6,0,2.4,0c0.2,0,0.4,0,0.6,0c0.6,0,1.1,0,1.7,0c0.3,0,0.5,0,0.7,0c0.6-0.1,1.1-0.1,1.7-0.1
	c0.2,0,0.3,0,0.5,0c0.8,0,1.4-0.1,2.1-0.1c0.2,0,0.3,0,0.4,0c0.5,0,1.1,0,1.6-0.1c0.2-0.1,0.4-0.1,0.6-0.1c0.4,0,0.9-0.1,1.3-0.1
	c0.2-0.1,0.3-0.1,0.5-0.1c0.6-0.1,1.2-0.1,1.7-0.2c0.1,0,0.1,0,0.1,0c0.5-0.1,1-0.1,1.5-0.2c0.2,0,0.3-0.1,0.5-0.1
	c0.4-0.1,0.8-0.1,1.1-0.2c0.1-0.1,0.3-0.1,0.4-0.1c0.4-0.1,0.7-0.1,1.1-0.2c0.1,0,0.1,0,0.2,0c0.4,0,0.8-0.1,1.2-0.2
	c0.1-0.1,0.2-0.1,0.3-0.1c0.3-0.1,0.5-0.1,0.8-0.2c0.1-0.1,0.2-0.1,0.3-0.1c0.3-0.1,0.5-0.2,0.7-0.2c0.1,0,0.1,0,0.2,0
	c0.3-0.1,0.5-0.1,0.7-0.2h0.1c0.2,0,0.3-0.1,0.4-0.1h0.1c0.1,0,0.2-0.1,0.3-0.1l-2.2,18l-0.3,3.3c-120.9,18.9-128.8-97.3-128.8-97.3
	L445.5,142.4z M206.1,343c-0.1,0.5-0.1,0.9-0.1,1.4c-0.2,4.6-0.4,9.2-0.7,13.9c0,0.5-0.1,1-0.1,1.5c-0.3,4.2-0.6,8.5-0.9,12.7
	c-0.1,1.3-0.2,2.6-0.3,3.9c-0.3,4.1-0.7,8.3-1.1,12.5c-0.1,0.6-0.1,1.2-0.2,1.9c-0.5,4.8-1,9.6-1.6,14.4c-0.2,1.2-0.3,2.5-0.5,3.7
	c-0.5,3.9-1,7.8-1.6,11.7c-0.2,1.2-0.3,2.3-0.5,3.5c-0.8,4.8-1.5,9.7-2.4,14.6c-0.1,1-0.3,1.9-0.5,2.9c-0.7,4-1.5,8.1-2.3,12.2
	c-0.2,1.4-0.5,2.7-0.8,4.1c-1.1,5-2.1,10-3.3,15v0.1v0.1c0,0.1-0.1,0.2-0.1,0.4c0,0.1,0,0.1,0,0.2c-0.1,0.2-0.1,0.4-0.2,0.7v0.1
	c-0.1,0.3-0.1,0.6-0.2,0.9c-0.1,0.1-0.1,0.2-0.1,0.3c-0.1,0.4-0.2,0.8-0.3,1.2c0,0.1-0.1,0.3-0.1,0.4c-0.1,0.4-0.2,0.8-0.3,1.3
	c0,0.2-0.1,0.3-0.1,0.5c-0.1,0.4-0.2,0.9-0.3,1.3c-0.1,0.2-0.1,0.4-0.2,0.6c-0.2,0.6-0.3,1.1-0.5,1.7c-0.1,0.3-0.1,0.5-0.2,0.7
	c-0.2,0.6-0.4,1.2-0.6,1.8c-0.1,0.2-0.1,0.4-0.2,0.6c-0.1,0.5-0.3,1-0.5,1.6c-0.1,0.2-0.1,0.5-0.2,0.7c-0.2,0.6-0.5,1.3-0.7,2
	c-0.1,0.3-0.2,0.5-0.3,0.8c-0.3,0.7-0.5,1.5-0.8,2.2c-0.1,0.2-0.2,0.5-0.3,0.7c-0.2,0.7-0.4,1.3-0.7,1.9c-0.1,0.3-0.2,0.5-0.3,0.8
	c-0.3,0.8-0.7,1.5-1,2.3c-0.1,0.3-0.3,0.6-0.4,0.9c-0.4,0.8-0.7,1.6-1.1,2.4c-0.1,0.2-0.2,0.5-0.3,0.7c-0.3,0.6-0.7,1.3-1,2
	c-0.2,0.2-0.3,0.5-0.4,0.7c-0.4,0.8-0.9,1.6-1.3,2.4c-0.2,0.3-0.3,0.5-0.5,0.8c-0.4,0.8-0.9,1.6-1.4,2.4c-0.1,0.3-0.3,0.5-0.4,0.7
	c-0.4,0.7-0.8,1.4-1.3,2.1c-0.2,0.2-0.3,0.4-0.4,0.6c-0.6,0.7-1.1,1.5-1.7,2.3c-0.2,0.2-0.3,0.5-0.5,0.7c-0.6,0.8-1.2,1.6-1.8,2.3
	c-0.2,0.2-0.3,0.4-0.5,0.6c-0.6,0.7-1.2,1.3-1.8,2c-0.1,0.1-0.2,0.3-0.3,0.4c-0.7,0.7-1.4,1.4-2.1,2.1c-0.1,0.2-0.3,0.3-0.5,0.5
	c-0.7,0.7-1.4,1.4-2.2,2c-0.2,0.1-0.3,0.3-0.5,0.4c-0.8,0.6-1.5,1.2-2.3,1.8c0,0.1-0.1,0.1-0.2,0.2c-0.9,0.6-1.7,1.2-2.6,1.7
	c-0.2,0.1-0.4,0.2-0.6,0.3c-0.8,0.5-1.7,1-2.6,1.5c-0.1,0.1-0.3,0.2-0.5,0.3c-1,0.5-1.9,0.9-2.9,1.3c-0.1,0-0.1,0-0.1,0
	c-1,0.4-2.1,0.8-3.1,1.1c-0.2,0.1-0.4,0.1-0.6,0.2c-1,0.3-2,0.6-3.1,0.8c-0.2,0-0.4,0.1-0.6,0.1c-1.1,0.2-2.2,0.4-3.4,0.5
	c-1.2,0.1-2.4,0.2-3.6,0.2c-0.3,0-0.5,0-0.7,0c-1,0-1.9,0-2.9-0.1c-1,0-2-0.2-3-0.3c-0.2,0-0.5-0.1-0.8-0.1
	c-0.8-0.1-1.5-0.2-2.3-0.4c-0.3-0.1-0.6-0.1-0.9-0.2c-0.9-0.2-1.7-0.4-2.6-0.6c-0.3-0.1-0.5-0.1-0.7-0.2c-1.1-0.3-2.2-0.6-3.3-1
	c-0.3,0-0.5-0.1-0.7-0.2c-0.9-0.3-1.9-0.6-2.8-1c-0.4-0.1-0.7-0.3-1.1-0.4c-0.9-0.3-1.7-0.7-2.6-1.1c-0.3-0.2-0.6-0.3-1-0.5
	c-1.2-0.6-2.4-1.2-3.6-1.8c0,0,55.3-8.2,31.4-83.3c0,0-0.2-0.3-0.4-0.9c-0.2-0.4-0.4-1-0.7-1.7c-0.1-0.1-0.2-0.3-0.2-0.4
	c-0.1-0.4-0.2-0.7-0.4-1.1c0-0.2-0.1-0.4-0.2-0.6c-0.2-0.4-0.3-0.8-0.5-1.2v-0.1c-0.4-1.2-1-2.6-1.6-4.2c-0.1-0.3-0.3-0.7-0.4-1
	c-0.2-0.5-0.4-1-0.6-1.6c0-0.2-0.1-0.4-0.2-0.6c-0.6-1.7-1.3-3.5-2-5.4c-0.1-0.2-0.2-0.5-0.3-0.7c-0.3-0.8-0.7-1.7-1-2.6
	c-0.1-0.3-0.2-0.6-0.3-0.9c-0.3-0.9-0.7-1.8-1-2.7c0-0.2-0.1-0.3-0.1-0.4c-0.4-1.1-0.8-2.2-1.2-3.4c-0.1-0.4-0.3-0.8-0.4-1.2
	c-0.3-0.9-0.7-1.8-1-2.8c-0.2-0.4-0.3-0.9-0.5-1.3c-0.4-1-0.7-2-1.1-3c-0.2-0.4-0.3-0.7-0.4-1.1c-0.4-1.1-0.8-2.2-1.2-3.4
	c-0.2-0.4-0.3-0.9-0.5-1.4c-0.4-1.1-0.7-2.2-1.1-3.3c-0.1-0.4-0.3-0.8-0.4-1.2c-0.4-1.2-0.8-2.4-1.2-3.6c-0.2-0.5-0.3-1-0.5-1.5
	c-0.4-1.1-0.8-2.3-1.2-3.5c-0.2-0.5-0.3-1.1-0.5-1.6c-0.4-1.2-0.8-2.4-1.2-3.6c-0.2-0.6-0.4-1.3-0.6-1.9c-0.4-1.1-0.7-2.3-1.1-3.5
	c-0.2-0.6-0.4-1.2-0.6-1.8c-0.4-1.2-0.8-2.4-1.2-3.7c-0.2-0.6-0.4-1.3-0.6-1.9c-0.4-1.2-0.8-2.5-1.2-3.8c-0.2-0.7-0.4-1.3-0.6-2
	c-0.3-1.2-0.7-2.5-1.1-3.8c-0.2-0.7-0.4-1.4-0.6-2.1c-0.3-1.3-0.7-2.6-1.1-3.9c-0.2-0.6-0.4-1.3-0.6-2c-0.4-1.4-0.8-2.7-1.2-4.1
	c-0.2-0.6-0.4-1.3-0.6-2c-0.4-1.4-0.8-2.8-1.2-4.2c-0.2-0.7-0.4-1.4-0.6-2.1c-0.3-1.4-0.7-2.8-1.1-4.2c-0.2-0.7-0.4-1.5-0.6-2.2
	c-0.4-1.4-0.7-2.8-1.1-4.2c-0.2-0.8-0.4-1.5-0.6-2.3c-0.4-1.5-0.7-2.9-1.1-4.3c-0.2-0.7-0.4-1.5-0.6-2.3c-0.3-1.4-0.7-2.8-1-4.2
	c-0.2-0.8-0.4-1.7-0.6-2.5c-0.4-1.4-0.7-2.8-1-4.2c-0.2-0.9-0.4-1.7-0.6-2.6c-0.3-1.4-0.6-2.8-0.9-4.2c-0.2-0.9-0.4-1.7-0.6-2.6
	c-0.3-1.4-0.6-2.8-0.9-4.2c-0.2-0.9-0.4-1.8-0.6-2.7c-0.3-1.4-0.6-2.8-0.9-4.2c-0.1-0.9-0.3-1.8-0.5-2.7c-0.3-1.4-0.5-2.8-0.8-4.2
	c-0.2-0.9-0.3-1.8-0.5-2.7c-0.3-1.4-0.5-2.8-0.8-4.2c-0.2-1-0.3-1.9-0.5-2.8c-0.2-1.4-0.5-2.8-0.7-4.2c-0.1-1-0.3-1.9-0.4-2.8
	c-0.3-1.4-0.5-2.8-0.7-4.2c-0.1-0.9-0.3-1.9-0.4-2.8c-0.2-1.4-0.4-2.7-0.6-4.1c-0.1-1-0.3-1.9-0.4-2.9c-0.1-1.4-0.3-2.8-0.5-4.1
	c-0.2-1-0.3-1.9-0.4-2.9c-0.2-1.3-0.3-2.7-0.5-4c-0.1-1-0.2-1.9-0.3-2.9c-0.1-1.3-0.3-2.7-0.4-4c-0.1-1-0.2-1.9-0.3-2.9
	c-0.2-1.3-0.3-2.7-0.4-4c-0.1-1-0.1-1.9-0.2-2.9c-0.1-1.3-0.2-2.7-0.3-4c-0.1-1-0.1-1.9-0.2-2.9c-0.1-1.3-0.1-2.6-0.2-3.9
	c0-1-0.1-1.9-0.1-2.9c0-1.3-0.1-2.6-0.1-3.9c-0.1-1-0.1-1.9-0.1-2.9c-0.1-1.3-0.1-2.5-0.1-3.8c0-1,0-1.9,0-2.9c0-1.3,0-2.6,0-3.8
	c0-1,0.1-1.9,0.1-2.9c0-1.2,0.1-2.5,0.1-3.7c0-1,0.1-1.9,0.1-2.9c0.1-1.2,0.1-2.4,0.2-3.6c0.1-1,0.1-1.9,0.2-2.9
	c0.1-1.1,0.2-2.3,0.3-3.5c0.1-0.9,0.2-1.9,0.3-2.8c0.2-1.2,0.3-2.3,0.4-3.5c0.1-1,0.2-1.9,0.3-2.8c0.1-1.1,0.2-2.3,0.4-3.4
	c0.1-0.9,0.3-1.8,0.4-2.7c0.1-1.1,0.3-2.2,0.5-3.3c0.1-0.9,0.3-1.8,0.5-2.7c0.2-1,0.4-2.1,0.6-3.2c0.2-0.9,0.4-1.8,0.6-2.7
	c0.2-1.1,0.4-2.2,0.7-3.2c0.2-0.9,0.5-1.7,0.7-2.6c0.2-1.1,0.5-2.1,0.8-3.1c0.3-0.8,0.5-1.7,0.8-2.5c0.3-1,0.6-2,0.9-3
	c0.3-0.9,0.6-1.7,0.9-2.5c0.3-1,0.6-1.9,1-2.9c0.3-0.8,0.7-1.6,1-2.4c0.4-0.9,0.8-1.9,1.2-2.8c0.4-0.8,0.7-1.5,1.1-2.3
	c0.5-0.9,0.9-1.8,1.3-2.7c0.4-0.8,0.8-1.5,1.2-2.3c0.4-0.7,0.7-1.4,1.1-2.1c0.1-0.1,0.2-0.3,0.3-0.5c0.4-0.7,0.8-1.3,1.2-2
	c0.1-0.2,0.3-0.4,0.4-0.6c6.8-10.9,16.5-19.7,27.9-25.2c0.2-0.1,0.3-0.1,0.4-0.2c0.8-0.4,1.7-0.7,2.5-1.1c0.2-0.2,0.5-0.3,0.8-0.4
	c0.7-0.3,1.4-0.5,2.1-0.8c0.4-0.2,0.8-0.4,1.2-0.5c0.6-0.2,1.3-0.4,1.9-0.6c0.5-0.2,1-0.4,1.5-0.5c0.6-0.2,1.2-0.3,1.8-0.5
	c0.4-0.1,0.9-0.2,1.3-0.3c0.2,0,0.3-0.1,0.5-0.1s0.3-0.1,0.5-0.1c0.8-0.2,1.6-0.4,2.4-0.5c0.8-0.2,1.6-0.3,2.4-0.4
	c0.2-0.1,0.4-0.1,0.6-0.1c0.8-0.1,1.6-0.1,2.4-0.2c0.2,0,0.3,0,0.5,0c0.7-0.1,1.4-0.1,2.1-0.1c0.2,0,0.3,0,0.5,0
	c0.8,0,1.5,0,2.3,0.1c0.2,0,0.4,0,0.6,0c0.7,0,1.4,0.1,2.1,0.2c0,0,0.1,0,0.2,0c0.8,0.1,1.6,0.2,2.3,0.4c0.1,0,0.3,0.1,0.5,0.1
	c0.7,0.2,1.5,0.4,2.2,0.7c0.1,0,0.2,0.1,0.3,0.1c0.7,0.2,1.4,0.5,2,0.8c0.2,0.1,0.3,0.1,0.5,0.2c0.7,0.3,1.3,0.7,2,1.1
	c0.1,0.1,0.3,0.2,0.4,0.3c0.6,0.4,1.1,0.8,1.7,1.2c0.1,0.1,0.2,0.2,0.3,0.3c0.6,0.5,1.2,1,1.8,1.6c0.1,0.1,0.3,0.3,0.4,0.4
	c0.6,0.6,1.2,1.2,1.7,1.9l0.1,0.1c0.6,0.7,1.1,1.4,1.6,2.2c0.2,0.2,0.3,0.4,0.4,0.6c0.5,0.8,1,1.6,1.4,2.5c0.1,0.1,0.1,0.3,0.2,0.4
	c0.4,0.8,0.7,1.7,1.1,2.6c0.1,0.3,0.2,0.5,0.3,0.7c0.3,1,0.7,2.1,1,3.2c0.1,0.2,0.1,0.5,0.2,0.7c0.3,1,0.6,2.1,0.8,3.2
	c0,0.2,0.1,0.4,0.1,0.6c0.2,1.3,0.4,2.6,0.6,4c0,0.3,0.1,0.7,0.1,1c0.1,1.5,0.3,2.9,0.4,4.5c0.5,1.6,1.3,3.1,2.9,4
	C196,132.5,212.9,180.2,206.1,343z M210,187.8c-4.1-45.1-17.4-67.6-17.4-67.6c2-1.9,4.1-3.6,6.1-5.4c0.7-0.6,1.3-1.1,1.9-1.6
	c1.5-1.3,3-2.5,4.5-3.7c0.6-0.5,1.3-1,1.9-1.5c1.8-1.5,3.7-3,5.6-4.4c0.2-0.1,0.3-0.3,0.5-0.4c2-1.6,4.1-3,6.1-4.5
	c0.6-0.5,1.2-0.9,1.8-1.3c1.5-1.1,3-2.1,4.5-3.1c0.7-0.5,1.3-0.9,1.9-1.3c1.8-1.2,3.6-2.4,5.4-3.5c0.2-0.2,0.5-0.4,0.7-0.5
	c2-1.3,4.1-2.5,6.1-3.7c0.5-0.3,1.1-0.6,1.6-0.9c1.6-0.8,3.1-1.7,4.6-2.5c0.6-0.4,1.2-0.7,1.8-1c1.8-0.9,3.5-1.8,5.2-2.7
	c0.3-0.2,0.6-0.4,0.9-0.5c2.1-1,4.1-2,6.1-2.9c0.5-0.3,1-0.5,1.5-0.7c1.6-0.7,3.2-1.3,4.7-2c0.5-0.2,1.1-0.5,1.7-0.7
	c1.6-0.7,3.3-1.4,5-2c0.4-0.1,0.7-0.3,1-0.4c2-0.8,4-1.5,6-2.2c0.4-0.1,0.9-0.3,1.3-0.4c1.6-0.6,3.1-1.1,4.7-1.6
	c0.6-0.2,1.1-0.3,1.7-0.5c1.7-0.5,3.3-0.9,4.9-1.4c0.3-0.1,0.6-0.2,1-0.3c2-0.5,3.9-1,5.9-1.5c0.4-0.1,0.7-0.2,1.1-0.3
	c1.6-0.4,3.1-0.8,4.7-1.1c0.5-0.1,1.1-0.2,1.6-0.3c1.5-0.3,3.1-0.6,4.6-0.9c0.4-0.1,0.8-0.1,1.2-0.2c1.9-0.3,3.8-0.6,5.7-0.9
	c0.3,0,0.7-0.1,1-0.1c1.5-0.2,3.1-0.4,4.6-0.6c0.5-0.1,1.1-0.1,1.6-0.2c1.4-0.1,2.9-0.3,4.3-0.4c0.4,0,0.9-0.1,1.3-0.1
	c1.9-0.1,3.7-0.3,5.5-0.4c0.3,0,0.6,0,0.9,0c1.5-0.1,3-0.1,4.5-0.2c0.6,0,1.1,0,1.7,0c1.3-0.1,2.6-0.1,3.9-0.1c0.5,0,1,0,1.5,0
	c0.9,0,1.7,0,2.5,0c1.3,0.1,2.6,0.1,3.8,0.1c0.8,0,1.6,0.1,2.4,0.1c1.2,0.1,2.4,0.1,3.6,0.2c0.8,0,1.6,0,2.4,0.1
	c1.1,0.1,2.3,0.2,3.5,0.3c0.7,0.1,1.5,0.1,2.3,0.2c1.2,0.1,2.3,0.2,3.5,0.3c0.7,0.1,1.5,0.2,2.2,0.3c1.2,0.2,2.4,0.3,3.6,0.5
	c0.7,0.1,1.4,0.2,2.1,0.3c1.2,0.2,2.5,0.4,3.7,0.6c0.6,0.1,1.2,0.2,1.8,0.3c1.3,0.2,2.7,0.5,4,0.7c0.4,0.1,0.9,0.2,1.4,0.3
	c1.7,0.3,3.4,0.6,5,1c0.1,0.1,0.2,0.1,0.3,0.1c3.6,0.8,7.1,1.6,10.5,2.5c0.3,0.1,0.5,0.1,0.8,0.2c1.3,0.3,2.7,0.7,4.1,1.1
	c0.4,0.2,0.8,0.3,1.2,0.4c1.2,0.4,2.4,0.7,3.6,1.1c0.5,0.1,0.9,0.3,1.4,0.4c1.1,0.4,2.2,0.7,3.3,1.1c0.5,0.2,0.9,0.3,1.4,0.5
	c1.1,0.4,2.1,0.7,3.2,1.1c0.5,0.2,1,0.3,1.4,0.5c1,0.3,2.1,0.7,3.1,1.1c0.5,0.2,0.9,0.3,1.3,0.5c1,0.4,2.1,0.8,3.1,1.2
	c0.4,0.1,0.7,0.3,1.1,0.4c1.1,0.4,2.2,0.9,3.2,1.3c0.2,0.1,0.5,0.2,0.8,0.3c1.2,0.5,2.4,1,3.5,1.5c0.2,0.1,0.3,0.1,0.4,0.2
	c3.9,1.7,7.5,3.4,10.9,5.1c0.2,0.1,0.3,0.1,0.4,0.2c0.9,0.5,1.9,0.9,2.8,1.4c0.3,0.1,0.5,0.2,0.7,0.3c0.8,0.4,1.5,0.8,2.3,1.2
	c0.3,0.1,0.5,0.3,0.8,0.4c0.7,0.4,1.3,0.7,2,1.1c0.3,0.1,0.5,0.3,0.8,0.4c0.6,0.3,1.2,0.7,1.8,1c0.3,0.2,0.5,0.4,0.8,0.5
	c0.6,0.4,1.2,0.7,1.7,1c0.3,0.1,0.5,0.3,0.8,0.4c0.5,0.3,1,0.6,1.5,0.9c0.2,0.1,0.5,0.3,0.7,0.4c0.5,0.3,0.9,0.6,1.4,0.9
	c0.2,0.2,0.4,0.3,0.6,0.4c0.5,0.3,1,0.6,1.4,0.9c0.1,0.1,0.3,0.2,0.4,0.3c0.5,0.4,1,0.7,1.5,1c0,0.1,0.1,0.1,0.1,0.1
	c0.5,0.3,1,0.6,1.4,0.9c0.3,0.2,0.5,0.4,0.7,0.5c0.2,0.1,0.4,0.2,0.5,0.3l0.1,0.1c0.9,0.6,1.5,1,1.9,1.2c0.1,0,0.2,0,0.3,0
	c0.1,0.2,0,0.2-0.3,0c-58.3,8-125-25.9-125-25.9c-28.2,51.8-72.8,82.7-105.5,99.5c-0.1,0-0.2,0.1-0.3,0.1c-1.2,0.6-2.3,1.1-3.4,1.7
	c-0.3,0.2-0.7,0.3-1,0.5c-0.9,0.5-1.9,1-2.8,1.4c-0.3,0.1-0.5,0.2-0.7,0.3c-1,0.5-2.1,1-3.1,1.5c-0.3,0.2-0.7,0.3-1,0.5
	c-1,0.4-1.9,0.8-2.8,1.2c-0.3,0.2-0.5,0.3-0.8,0.4c-0.8,0.4-1.6,0.8-2.4,1.1c-0.3,0.1-0.7,0.3-1,0.4c-0.9,0.4-1.8,0.8-2.6,1.1
	c-0.3,0.1-0.5,0.2-0.8,0.3c-0.6,0.3-1.3,0.5-1.9,0.8c-0.3,0.1-0.6,0.2-0.9,0.3c-0.8,0.3-1.6,0.6-2.3,0.9c-0.1,0-0.2,0.1-0.3,0.1
	c-6.9,2.6-11.6,4-13.2,4.5c-0.1,0-0.3,0.1-0.4,0.1S210,187.8,210,187.8z M312.1,163.5c-1,0.1-2,0.3-2.9,0.4
	c-0.4,0.1-0.7,0.1-1.1,0.2c-1,0.1-1.9,0.2-2.9,0.4c-0.2,0-0.3,0.1-0.5,0.1c-3.1,0.5-6.1,1.1-9.1,1.6c-0.6,0.1-1.1,0.2-1.7,0.3
	c-0.5,0.1-1.1,0.2-1.7,0.3c-0.6,0.1-1.3,0.3-1.9,0.4c-0.5,0.1-1,0.2-1.5,0.3c-0.7,0.1-1.3,0.3-2,0.4c-0.5,0.1-0.9,0.2-1.4,0.3
	c-0.7,0.1-1.4,0.3-2,0.4c-0.5,0.1-0.9,0.2-1.3,0.3c-0.7,0.1-1.3,0.3-2,0.4c-0.4,0-0.7,0.1-1.1,0.2c-0.7,0.2-1.3,0.4-2,0.5
	c-0.3,0.1-0.6,0.1-0.9,0.2c-0.7,0.2-1.4,0.3-2,0.5c-0.2,0.1-0.5,0.1-0.7,0.2c-0.7,0.2-1.3,0.3-2,0.5c-0.1,0-0.3,0.1-0.5,0.1
	c-0.7,0.2-1.4,0.3-2,0.5c-0.1,0-0.3,0.1-0.4,0.1c-0.7,0.2-1.4,0.3-2,0.5h-0.1c-0.7,0.2-1.4,0.3-2,0.5c-3.6,1-5.7,1.6-5.7,1.6
	c37.5-18.5,75.1-61.5,74.9-61.4c22.2,23.9,27.7,48.5,27.7,48.5C345.8,160.1,328.3,161.3,312.1,163.5z M362.5,165.4l4.4,29.2
	c0,0-0.3,0.3-1,0.9c-0.1,0.1-0.3,0.3-0.4,0.4l-0.1,0.1c-0.1,0.1-0.2,0.2-0.3,0.3c-0.1,0.1-0.3,0.2-0.4,0.3c-0.1,0.1-0.2,0.2-0.3,0.3
	c-0.2,0.1-0.3,0.3-0.5,0.4c-0.1,0.1-0.3,0.2-0.4,0.3c-0.2,0.1-0.4,0.3-0.6,0.4c-0.1,0.1-0.3,0.2-0.4,0.3c-0.2,0.2-0.4,0.4-0.6,0.5
	c-0.1,0.1-0.3,0.2-0.4,0.3c-0.2,0.2-0.5,0.3-0.7,0.5c-0.2,0.1-0.3,0.2-0.5,0.3c-0.2,0.2-0.5,0.3-0.8,0.5c-0.2,0.1-0.3,0.2-0.5,0.3
	c-0.3,0.2-0.7,0.4-1,0.6c-0.1,0.1-0.2,0.1-0.3,0.2c-0.4,0.2-0.9,0.5-1.4,0.7c-0.1,0-0.2,0.1-0.3,0.1c-0.4,0.2-0.8,0.4-1.2,0.6
	c-0.1,0.1-0.3,0.1-0.5,0.2c-0.3,0.1-0.6,0.3-1,0.4c-0.2,0.1-0.4,0.1-0.6,0.2c-0.3,0.1-0.7,0.2-1,0.3c-0.2,0.1-0.5,0.1-0.7,0.2
	c-0.3,0.1-0.7,0.2-1,0.3c-0.2,0.1-0.4,0.1-0.7,0.2c-0.3,0.1-0.7,0.1-1,0.2c-0.3,0-0.5,0.1-0.8,0.1c-0.4,0-0.7,0.1-1.1,0.1
	c-0.3,0.1-0.5,0.1-0.8,0.1c-0.3,0-0.7,0-1.1,0c-0.2,0-0.5,0-0.7,0c-0.6,0-1.3,0-2-0.1c-0.2-0.1-0.3-0.1-0.5-0.1
	c-0.5-0.1-1.1-0.2-1.6-0.3c-0.2-0.1-0.5-0.1-0.7-0.2c-0.5-0.1-1-0.3-1.5-0.4c-0.2-0.1-0.5-0.1-0.7-0.2c-0.5-0.2-1.1-0.5-1.7-0.7
	c-0.1-0.1-0.3-0.1-0.4-0.2c-0.7-0.3-1.4-0.7-2.1-1.1c-0.2-0.1-0.4-0.3-0.6-0.4c-0.6-0.3-1.1-0.6-1.6-1c-0.2-0.1-0.5-0.3-0.7-0.5
	c-0.5-0.4-1-0.8-1.5-1.2c-0.3-0.2-0.5-0.4-0.7-0.6c-0.7-0.6-1.4-1.3-2.1-2.1c-0.7-0.8-1.3-1.5-1.9-2.2c-0.2-0.2-0.3-0.4-0.5-0.6
	c-0.4-0.4-0.7-0.9-1.1-1.4c-0.2-0.2-0.3-0.5-0.5-0.7c-0.3-0.4-0.6-0.9-0.9-1.3c-0.1-0.2-0.3-0.5-0.4-0.7c-0.3-0.5-0.5-1-0.8-1.4
	c-0.1-0.1-0.2-0.3-0.3-0.5c-0.3-0.6-0.6-1.2-0.9-1.8c0-0.1-0.1-0.1-0.1-0.2c-0.2-0.5-0.4-1-0.6-1.5c-0.1-0.2-0.1-0.4-0.2-0.6
	c-0.2-0.4-0.3-0.7-0.4-1.1c-0.1-0.2-0.1-0.4-0.2-0.6c0-0.3-0.1-0.7-0.2-1c0-0.2-0.1-0.4-0.1-0.6c-0.1-0.3-0.2-0.7-0.2-1
	c-0.1-0.1-0.1-0.3-0.1-0.4c-0.1-0.4-0.1-0.9-0.1-1.3c0-0.1,0-0.2,0-0.3c0-0.3,0-0.6,0-0.9c0-0.2,0-0.3,0-0.5s0.1-0.5,0.1-0.7
	c0-0.2,0.1-0.3,0.1-0.5c0-0.3,0-0.5,0.1-0.7c0-0.2,0.1-0.3,0.1-0.5c0.1-0.2,0.1-0.4,0.2-0.6c0-0.1,0.1-0.3,0.1-0.4
	c0.2-0.3,0.3-0.6,0.4-0.9c0.1-0.1,0.1-0.3,0.2-0.4c0-0.2,0.1-0.3,0.2-0.5l0.1-0.1c1.7-3.2,4.1-4.7,4.1-4.7L362.5,165.4z
	 M213.7,238.9c0,0-0.3-40.4-3.4-42.7l3.4-1.2l13-4.4l15.4-5.3c0,0,5.7,60.9,46.1,73.9c1.2,0.4,2.4,0.8,3.6,1.1
	c0.4,0.1,0.7,0.2,1.1,0.3c0.8,0.2,1.6,0.4,2.4,0.6c0.4,0.1,0.8,0.2,1.2,0.3c0.7,0.1,1.4,0.3,2.1,0.4c0.4,0,0.9,0.1,1.3,0.2
	c0.6,0.1,1.3,0.2,1.9,0.3c0.4,0.1,0.9,0.1,1.3,0.2c0.6,0.1,1.2,0.1,1.8,0.2c0.5,0,0.9,0.1,1.3,0.1c0.5,0,1.1,0.1,1.7,0.1
	c0.4,0.1,0.8,0.1,1.2,0.1c0.6,0.1,1.1,0.1,1.7,0.1c0.3,0,0.7,0,1.1,0c0.3,0,0.7,0,1,0c1.1,0,2.2,0,3.3-0.1c0.2,0,0.4,0,0.6,0
	c1.2-0.1,2.4-0.2,3.5-0.4c0.3,0,0.5-0.1,0.8-0.1c1-0.1,2-0.3,3-0.5c0.1-0.1,0.2-0.1,0.3-0.1c1-0.2,2-0.4,3-0.7
	c0.2-0.1,0.5-0.1,0.7-0.2c1-0.3,1.9-0.6,2.8-0.9c0.9-0.3,1.7-0.7,2.5-1c0.2,0,0.4-0.1,0.6-0.2c0.8-0.3,1.6-0.6,2.3-1
	c0.1,0,0.1-0.1,0.2-0.1c0.7-0.3,1.3-0.7,1.9-1c0.1,0,0.3-0.1,0.4-0.2c0.6-0.4,1.2-0.7,1.8-1.1c0.1-0.1,0.2-0.1,0.3-0.2
	c0.5-0.3,1-0.6,1.4-0.9c0.1-0.1,0.2-0.1,0.3-0.2c0.5-0.4,0.9-0.7,1.3-1c0.1-0.1,0.1-0.1,0.2-0.2c0.4-0.3,0.7-0.6,1-0.8l0.1-0.1
	c0.3-0.2,0.6-0.5,0.8-0.7c0.1,0,0.2-0.1,0.2-0.1c0.2-0.2,0.4-0.4,0.5-0.5c0.2-0.2,0.3-0.3,0.4-0.4c0.1-0.1,0.1-0.1,0.1-0.1
	c0.1-0.1,0.1-0.1,0.1-0.1s0,0,0,0.1c0,0.1,0,0.2-0.1,0.3c-0.1,0.1-0.1,0.3-0.2,0.4c0,0.1,0,0.1-0.1,0.3c-2,4.5-11,22.3-31.1,32.9
	c-3.7,2,0,0.2,0,0.2s-45.4,35.6-102.1,10.5c-0.5-0.2-0.7-5.8-0.7-13.3c0-0.8,0-1.5,0-2.3c0-0.1,0-0.1,0-0.1c0-14,0.6-39.9,0.6-40.1
	c0-0.1,0-0.2,0-0.2L213.7,238.9z M333.8,607.6h-52.6c0,0-13.3-98.3-12.8-135.7c0-1.1,0.1-2.2,0.1-3.3c0-0.3,0-0.7,0-1
	c0-0.8,0-1.5,0.1-2.3c0-0.4,0.1-0.8,0.1-1.2c0.1-0.8,0.1-1.5,0.2-2.3c0-0.4,0.1-0.8,0.1-1.2c0.1-0.8,0.2-1.7,0.3-2.6
	c0-0.3,0.1-0.5,0.1-0.8c0.2-1.2,0.3-2.3,0.5-3.5c0-0.2,0.1-0.5,0.1-0.7c0.1-0.9,0.2-1.8,0.4-2.7c0.1-0.4,0.1-0.7,0.2-1.1
	c0.2-0.8,0.3-1.6,0.5-2.4c0-0.4,0.1-0.8,0.2-1.2c0.1-0.9,0.3-1.7,0.5-2.5c0.1-0.4,0.1-0.7,0.2-1c0.6-2.3,1.1-4.6,1.8-6.8
	c0.1-0.2,0.2-0.5,0.3-0.8c0.3-0.8,0.5-1.6,0.8-2.4c0.1-0.3,0.2-0.7,0.3-1c0.3-0.8,0.5-1.6,0.8-2.3c0.1-0.3,0.2-0.6,0.3-0.9
	c0.3-0.8,0.7-1.7,1-2.5c0.1-0.2,0.1-0.4,0.2-0.6c0.4-1,0.8-2,1.3-3c0.1-0.1,0.2-0.2,0.2-0.3c0.4-0.9,0.8-1.7,1.2-2.5
	c0.1-0.2,0.3-0.4,0.4-0.7c0.4-0.6,0.7-1.3,1.1-1.9c0.2-0.3,0.3-0.5,0.5-0.8c0.4-0.7,0.8-1.3,1.2-1.9c0.1-0.2,0.3-0.4,0.4-0.6
	c1-1.6,2.2-3.1,3.4-4.4c0.1-0.1,0.3-0.3,0.4-0.4c0.4-0.5,0.9-0.9,1.4-1.4c0.2-0.1,0.4-0.3,0.6-0.5c0.5-0.4,0.9-0.8,1.4-1.2
	c0.2-0.2,0.4-0.3,0.6-0.5c0.5-0.4,1.1-0.8,1.6-1.1c0.1-0.1,0.3-0.2,0.4-0.3c0.7-0.4,1.4-0.8,2.1-1.1c0.1,0,0.2-0.1,0.3-0.1
	c0.6-0.2,1.3-0.5,1.9-0.7c0.2-0.1,0.5-0.1,0.7-0.2c0.5-0.2,1.1-0.3,1.6-0.4c0.3,0,0.5-0.1,0.8-0.1c0.6-0.1,1.1-0.2,1.7-0.2
	c0.2,0,0.5,0,0.7,0c0.8,0,1.5,0,2.3,0.1c0.1,0.1,0.3,0.1,0.4,0.1c0.7,0.1,1.4,0.2,2.1,0.4c0.2,0,0.4,0.1,0.6,0.1
	c0.9,0.2,1.7,0.5,2.5,0.8c0.2,0.1,0.3,0.1,0.5,0.2c0.7,0.3,1.5,0.6,2.2,1c0.2,0.1,0.4,0.2,0.6,0.3c0.8,0.5,1.7,0.9,2.6,1.5
	c0.2,0.1,0.3,0.2,0.5,0.3c0.4,0.2,0.8,0.5,1.2,0.8c0.5,0.4,1,0.7,1.5,1.1c0,0,7.1,58.7-11.3,58.4l-0.2-4.1l-1.5-29.7
	c0,0,0-0.1,0-0.2c0,0,0,0,0-0.1c0-0.1,0-0.3,0-0.5v-0.1c0-0.2-0.1-0.4-0.1-0.7c0-0.1,0-0.1,0-0.2c0-0.2,0-0.4-0.1-0.7
	c0-0.1,0-0.1,0-0.2c-0.1-0.2-0.2-0.5-0.3-0.8c0-0.1-0.1-0.1-0.1-0.2c-0.1-0.2-0.3-0.4-0.4-0.6l-0.1-0.1c-0.2-0.2-0.4-0.4-0.6-0.5
	c-0.1-0.1-0.1-0.1-0.2-0.1c-0.2-0.1-0.4-0.2-0.7-0.2c0,0-0.1,0-0.2,0c-0.2,0-0.3,0.1-0.5,0.1c-0.2,0-0.3,0.1-0.4,0.1
	c-0.2,0.1-0.4,0.2-0.6,0.3c-0.2,0.1-0.3,0.1-0.4,0.2c-0.2,0.2-0.5,0.4-0.8,0.6c-0.1,0.1-0.2,0.1-0.3,0.2c-0.5,0.3-0.9,0.7-1.4,1.2
	c0,0,0,0.1,0,0.2v0.1c-0.1,0.1-0.1,0.2-0.1,0.4c0,0.1,0,0.2,0,0.3c-0.1,0.1-0.1,0.3-0.1,0.5c-0.1,0.1-0.1,0.3-0.1,0.5
	c-0.1,0.2-0.1,0.4-0.1,0.7c-0.1,0.2-0.1,0.4-0.1,0.6c0,0.3-0.1,0.6-0.1,0.9c-0.1,0.2-0.1,0.5-0.1,0.8c0,0.4-0.1,0.7-0.1,1.1
	c-0.1,0.3-0.1,0.7-0.1,1c-0.1,0.5-0.1,0.9-0.1,1.3c-0.1,0.4-0.1,0.8-0.1,1.2c-0.1,0.4-0.1,0.9-0.1,1.4c0,0.4,0,0.8,0,1.3
	s0,1.1,0,1.6s0,1,0,1.5s0,1.1,0,1.7c0,0.6,0,1.1,0,1.7c0,0.6,0,1.2,0,1.9c0,0.7,0,1.3,0,1.9c0.1,0.7,0.1,1.4,0.1,2.1
	c0.1,0.6,0.1,1.3,0.1,2s0.1,1.5,0.1,2.2s0.1,1.5,0.1,2.2c0,0.8,0,1.6,0.1,2.4c0.1,0.7,0.1,1.5,0.2,2.3c0.1,0.8,0.1,1.7,0.2,2.6
	c0.1,0.8,0.1,1.7,0.2,2.5c0.1,0.9,0.2,1.9,0.3,2.8c0.1,0.9,0.2,1.7,0.3,2.6c0.1,1,0.2,2,0.3,3c0.1,0.9,0.2,1.8,0.3,2.7
	c0.1,1.1,0.3,2.2,0.4,3.3c0.2,0.9,0.3,1.8,0.4,2.7c0.2,1.2,0.4,2.6,0.6,3.9c0.2,0.8,0.3,1.6,0.4,2.4c0.4,2.1,0.7,4.3,1.1,6.6
	c0.1,0.8,0.3,1.7,0.4,2.5c0.2,1.5,0.5,3,0.8,4.5c0.2,1,0.4,2.1,0.6,3.1c0.2,1.4,0.5,2.8,0.8,4.2c0.2,1.2,0.5,2.3,0.7,3.5
	c0.3,1.4,0.6,2.8,0.9,4.2c0.2,1.2,0.5,2.5,0.8,3.7c0.3,1.4,0.7,2.9,1,4.3c0.3,1.3,0.6,2.6,0.9,3.9c0.4,1.5,0.7,2.9,1.1,4.4
	c0.4,1.4,0.7,2.7,1.1,4.1c0.4,1.5,0.8,3,1.2,4.5c0.4,1.4,0.8,2.8,1.2,4.2c0.4,1.5,0.9,3,1.3,4.6c0.4,1.4,0.9,2.9,1.3,4.4
	c0.5,1.6,1,3.2,1.5,4.8c0.4,1.5,0.9,3,1.4,4.5c0.5,1.7,1.1,3.3,1.6,5c0.5,1.6,1,3.1,1.5,4.7c0.5,1.7,1.1,3.4,1.7,5.1
	c0.6,1.6,1.1,3.2,2,4.3c2.1,6.1,4.4,12.4,6.9,18.9H333.8z M394.7,608.2H342h-0.8c0,0-2.4-7.8-5.7-18.9
	c-5.9-19.7-14.6-49.7-18.5-66.2c-0.4-2-0.8-3.7-1.1-5.2c-0.1,0-0.1-0.1-0.1-0.2c-0.2-1.2-0.4-2.2-0.5-3.1c-0.2-1.4-0.3-2.4-0.2-2.9
	l53.8,1l0.2,4.3l1.6,42.3C370.7,559.3,375.6,590.2,394.7,608.2z M393.5,587.3l-10.7-25.2l-3.6-66.2l14.3-9.3V587.3z M383.4,407.4
	c0.2,0,0.4,0,0.6,0c0.3,0,0.5,0,0.8,0s0.5,0,0.7,0s0.4,0,0.6,0s0.4,0.1,0.6,0.1s0.4,0.1,0.6,0.1c0.2,0.1,0.4,0.1,0.6,0.2
	c0.2,0.1,0.3,0.1,0.5,0.2c0.2,0,0.3,0.1,0.5,0.2c0.2,0,0.3,0.1,0.5,0.2s0.3,0.2,0.5,0.3c0.1,0.1,0.3,0.2,0.4,0.3
	c0.1,0.2,0.3,0.3,0.4,0.4c0.2,0.1,0.3,0.2,0.4,0.3c0.1,0.1,0.3,0.3,0.4,0.4c0.1,0.1,0.2,0.3,0.3,0.4c0.2,0.2,0.3,0.3,0.4,0.5
	c0.1,0.1,0.2,0.3,0.3,0.4c0.1,0.2,0.2,0.3,0.3,0.5c0,0.1,0.1,0.3,0.2,0.4c0.1,0.2,0.2,0.4,0.3,0.6c0.1,0.1,0.1,0.3,0.2,0.4
	c0.1,0.2,0.2,0.4,0.3,0.6c0.1,0.1,0.1,0.3,0.2,0.4c0,0.3,0.1,0.5,0.2,0.7c0,0.2,0.1,0.3,0.1,0.4c0.1,0.3,0.1,0.5,0.2,0.8v0.1
	c0.3,1.1,0.5,2.1,0.6,3.2c0,0.1,0,0.1,0,0.2c0,0.3,0.1,0.6,0.1,0.9c0,0.1,0,0.2,0,0.3c0.1,0.3,0.1,0.5,0.1,0.8c0,0.1,0,0.3,0,0.4
	c0,0.3,0,0.5,0,0.8c0,0.1,0,0.3,0,0.4c0,0.2,0,0.5,0,0.7c0,0.1,0,0.2-0.3,0.2c0,0.2,0,0.5,0,0.7c0,0.1,0,0.3,0,0.4
	c0,0.3,0,0.5,0,0.7s0,0.3,0,0.4c0,0.2,0,0.4,0,0.6c0,0.1,0,0.2,0,0.3c0,0.2,0,0.4,0,0.6c0,0.1,0,0.2,0,0.3c0,0.2,0,0.3,0,0.5
	c0,0.1,0,0.2,0,0.3c0,0.1,0,0.3,0,0.4s0,0.2,0,0.3c0,0.2,0,0.3,0,0.4c0,0.1,0,0.2,0,0.3c0,0.1,0,0.2,0,0.3c0,0.1,0,0.1,0,0.2
	c0,0.1,0,0.2,0,0.3c0,0.1,0,0.1,0,0.2c0,0.1,0,0.2,0,0.2v0.1c0,0.1,0,0.2,0,0.2l-13.1-24.3C382.4,407.5,382.9,407.4,383.4,407.4z
	 M373.7,416c0.4,1.3,0.7,2.5,1.2,3.8c0,0.1,0.1,0.1,0.1,0.2c1,2.7,2.3,5.4,3.8,8.1c0.3,0.7,0.7,1.3,1.1,2c0.1,0.2,0.1,0.3,0.2,0.4
	c0.3,0.5,0.7,1.1,1,1.6c0.1,0.2,0.2,0.3,0.3,0.5c0.3,0.5,0.6,1,0.9,1.5c0.1,0.3,0.3,0.5,0.4,0.7c0.3,0.4,0.6,0.9,0.9,1.3
	c0.2,0.2,0.3,0.5,0.5,0.7c0.3,0.4,0.6,0.8,0.9,1.2c0.1,0.2,0.3,0.5,0.5,0.7c0.3,0.4,0.6,0.8,0.9,1.2c0.2,0.3,0.4,0.5,0.6,0.8
	c0.2,0.4,0.5,0.7,0.8,1.1c0.2,0.3,0.4,0.5,0.6,0.8c0.2,0.4,0.5,0.7,0.8,1.1c0.2,0.3,0.4,0.5,0.6,0.8c0.3,0.3,0.5,0.7,0.8,1
	c0.2,0.3,0.4,0.5,0.6,0.8c0.3,0.4,0.5,0.7,0.8,1c0.2,0.3,0.4,0.5,0.6,0.8c0.3,0.3,0.5,0.6,0.8,0.9s0.5,0.5,0.7,0.8
	c0.2,0.2,0.5,0.5,0.7,0.8c0.3,0.3,0.5,0.6,0.7,0.8c0.2,0.3,0.5,0.5,0.7,0.8c0.2,0.2,0.4,0.5,0.6,0.7c0.2,0.3,0.5,0.6,0.7,0.8
	s0.4,0.5,0.6,0.7c0.3,0.2,0.5,0.5,0.7,0.7c0.2,0.3,0.4,0.5,0.6,0.7s0.4,0.4,0.6,0.6s0.4,0.4,0.6,0.6s0.4,0.4,0.6,0.6
	s0.3,0.4,0.5,0.6s0.4,0.4,0.6,0.6s0.4,0.3,0.5,0.5c0.2,0.2,0.3,0.3,0.5,0.5s0.4,0.4,0.5,0.5c0.2,0.2,0.3,0.3,0.5,0.5
	c0.1,0.1,0.3,0.3,0.4,0.4c0.2,0.2,0.3,0.4,0.5,0.5c0.1,0.1,0.2,0.2,0.3,0.3c0.2,0.2,0.3,0.3,0.4,0.4s0.2,0.2,0.3,0.3
	c0.1,0,0.2,0.1,0.3,0.2c0,0,0.1,0.1,0.2,0.2c0.1,0.1,0.1,0.1,0.2,0.2c0.1,0.1,0.1,0.2,0.2,0.2c0.1,0.1,0.1,0.1,0.1,0.1l0.1,0.1
	c-14.6,6.2-38.1,28.1-38.1,28.1s0,0.1,0,0.2c0.1,0.2,0.1,0.8,0.2,1.5c0.2,1.5,0.4,3.7,0.5,6c0.1,1.1,0.1,2.3,0.1,3.4
	c0,0.5,0,1.1,0,1.6v0.1c0,0.3,0,0.5,0,0.7c-0.2,2.7-0.7,4.6-2,4c-3.6-1.8-55.3-2.3-55.3-2.3c-0.1-0.9-0.3-1.6-0.4-2.4
	c0-0.1,0-0.2,0-0.3c-0.1-0.8-0.3-1.6-0.4-2.4c0-0.3-0.1-0.5-0.1-0.8c-0.2-0.8-0.3-1.5-0.4-2.3c0-0.2-0.1-0.5-0.1-0.7
	c-0.2-0.9-0.3-1.7-0.4-2.5c0-0.1,0-0.2,0-0.3c-0.2-0.9-0.3-1.8-0.4-2.6c0-0.3-0.1-0.5-0.1-0.7c0-0.6-0.1-1.1-0.2-1.7
	c0-0.4-0.1-0.8-0.1-1.2c0-0.3-0.1-0.7-0.1-1c-0.1-0.5-0.2-0.9-0.2-1.3c0-0.3-0.1-0.5-0.1-0.8c0-0.5-0.1-0.9-0.1-1.3
	c-0.1-0.2-0.1-0.4-0.1-0.6c0-0.4-0.1-0.8-0.1-1.2c-0.1-0.2-0.1-0.4-0.1-0.6c0-0.4-0.1-0.7-0.1-1.1c0-0.2,0-0.3,0-0.5
	c0-0.4-0.1-0.8-0.1-1.1c0-0.1,0-0.3,0-0.4c0-0.3-0.1-0.7-0.1-1c0-0.1,0-0.2,0-0.3c-0.1-0.4-0.1-0.7-0.1-1c0-0.1,0-0.2,0-0.3
	c0-0.3,0-0.6,0-0.9c0-0.1,0-0.1,0-0.2c0-0.3,0-0.5,0-0.8c0-0.1,0-0.1,0-0.2c0-0.3,0-0.6,0-0.8v-0.1c0-0.3,0-0.5,0-0.7
	c0-3.5,0.4-4.1,0.4-4.1l1.5,3.3c24.8-17.7,13.4-61.2,13.4-61.2l11.4,8.2l1-5.1C350.9,424.5,373.7,416,373.7,416z M334.6,409l0.4-1.9
	l3.5-19.1H367l4.8,21.2l0.4,2.1C358.4,419.5,334.6,409,334.6,409z M475.8,341c-0.4,0.2-0.8,0.5-1.2,0.8c-1.4,1.1-2.9,2.1-4.5,3.1
	s-3.2,2-4.8,3c-0.4,0.3-0.9,0.5-1.3,0.8c-1.3,0.8-2.6,1.5-4,2.3c-0.4,0.2-0.8,0.5-1.2,0.7c-1.7,1-3.4,1.9-5.2,2.8
	c-0.3,0.2-0.7,0.3-1,0.5c-1.4,0.8-3,1.5-4.5,2.2c-0.5,0.2-1.1,0.5-1.6,0.7c-1.6,0.8-3.2,1.5-4.9,2.2c-0.3,0.1-0.6,0.3-0.9,0.4
	c-1.9,0.8-3.9,1.5-5.9,2.3c-0.5,0.2-1,0.4-1.6,0.6c-1.6,0.6-3.2,1.1-4.8,1.7c-0.5,0.2-1.1,0.4-1.7,0.6c-2.1,0.7-4.2,1.4-6.4,2
	c-0.3,0.1-0.6,0.2-0.9,0.3c-1.9,0.5-3.8,1.1-5.8,1.6c-0.6,0.2-1.3,0.3-2,0.5c-1.8,0.4-3.7,0.9-5.6,1.3c-0.5,0.2-1,0.3-1.5,0.4
	c-2.4,0.5-4.8,1-7.2,1.5c-0.6,0.1-1.2,0.2-1.8,0.3c-2,0.4-3.9,0.7-5.9,1c-0.7,0.1-1.5,0.2-2.2,0.3c-2.5,0.4-5.1,0.8-7.8,1.1
	c-2.5,0.2-4.9,0.5-7.3,0.7c-0.7,0.1-1.5,0.1-2.2,0.2c-1.6,0.1-3.3,0.2-5,0.3c-0.9,0-1.8,0.1-2.7,0.1c-1.6,0.1-3.1,0.2-4.6,0.2
	c-1,0-1.9,0-2.9,0c-1.5,0-3.1,0-4.6,0c-0.7,0-1.5,0-2.2,0c-1.8-0.1-3.5-0.1-5.3-0.2c-0.6-0.1-1.1-0.1-1.7-0.1
	c-2.3-0.1-4.6-0.2-6.9-0.4c-0.5,0-1-0.1-1.5-0.1c-1.8-0.1-3.6-0.3-5.4-0.5c-0.8-0.1-1.5-0.2-2.3-0.3c-1.6-0.2-3.2-0.4-4.8-0.6
	c-0.8-0.1-1.5-0.2-2.2-0.3c-2.1-0.3-4.3-0.6-6.4-1c-0.1-0.1-0.3-0.1-0.4-0.1c-2.2-0.4-4.5-0.8-6.7-1.3c-0.7-0.2-1.4-0.3-2.1-0.5
	c-1.6-0.3-3.1-0.7-4.7-1.1c-0.8-0.2-1.5-0.4-2.3-0.6c-1.7-0.5-3.3-0.9-5-1.4c-0.6-0.2-1.1-0.3-1.7-0.5c-2.1-0.6-4.3-1.3-6.5-2
	c-0.5-0.1-1.1-0.3-1.6-0.5c-1.7-0.5-3.3-1.1-5-1.7c-0.7-0.3-1.5-0.5-2.2-0.8c-1.5-0.6-3.1-1.2-4.6-1.8c-0.7-0.3-1.3-0.5-2-0.8
	c-2.1-0.9-4.3-1.8-6.4-2.7c-16-7-32.5-16.5-46.9-29.3v-26v-2.3c0,0,69.8,31.6,127.1-31.4c0,0,5.9-4.9,12.7-14
	c0.5-0.7,1.1-1.5,1.6-2.2c0.1-0.1,0.1-0.2,0.2-0.3c0.5-0.7,0.9-1.4,1.4-2.1c0.1-0.1,0.1-0.2,0.2-0.3c0.5-0.8,1.1-1.7,1.6-2.5
	c0.1-0.1,0.1-0.2,0.2-0.3c0.5-0.7,0.9-1.5,1.4-2.3c0.1-0.2,0.2-0.3,0.3-0.5c0.5-0.9,1-1.9,1.5-2.8c0.1-0.1,0.1-0.2,0.2-0.3
	c0.4-0.8,0.9-1.7,1.3-2.6c0.1-0.2,0.2-0.4,0.3-0.6c0.5-1,0.9-2,1.4-3c0.1-0.1,0.1-0.1,0.1-0.2c0.5-1,0.9-2,1.3-3
	c0.1-0.2,0.2-0.5,0.3-0.7c0.9-2.2,1.7-4.4,2.4-6.7c0.1-0.2,0.2-0.5,0.3-0.8c0.4-1.1,0.7-2.2,1-3.3c0.1-0.1,0.1-0.2,0.1-0.3
	c0.3-1.2,0.6-2.4,0.9-3.6c0.1-0.3,0.1-0.6,0.2-0.9c0.2-1.1,0.4-2.2,0.6-3.3c0-0.2,0.1-0.4,0.1-0.6c0.2-1.3,0.4-2.6,0.6-3.9
	c0-0.3,0.1-0.7,0.1-1c0.1-1.1,0.2-2.2,0.3-3.3c0.1-0.3,0.1-0.5,0.1-0.8c0.1-1.4,0.2-2.7,0.2-4.1c0.8-24.5-7.6-54.6-35.6-89
	c0,0,12.8-13.8,22.4-33.5c0,0,34.8,18.9,59.1,21.5c0,0-20.1,46.7-4.4,82.9c0,0,21.8,90.1,124.9,71c0,0-0.3,1.6-1.2,4.8
	c0,0.1-0.1,0.2-0.1,0.3c-0.2,0.6-0.4,1.2-0.6,1.9v0.1c-0.3,0.7-0.6,1.6-0.9,2.5c-0.1,0.1-0.1,0.1-0.1,0.2c-0.3,0.8-0.6,1.8-1,2.8
	c0,0.1-0.1,0.1-0.1,0.2c-0.3,1-0.7,2.1-1.2,3.2c0,0.1-0.1,0.1-0.1,0.2c-0.5,1.1-1,2.3-1.5,3.5v0.1c-0.9,1.9-1.8,3.9-2.8,6
	c-1,2.1-2.1,4.3-3.3,6.5c-0.1,0-0.1,0.1-0.1,0.1c-0.8,1.4-1.6,2.9-2.5,4.4c-0.1,0.1-0.1,0.2-0.2,0.3c-0.9,1.4-1.8,2.9-2.7,4.4
	c-0.1,0.1-0.2,0.3-0.3,0.4c-1,1.5-2,3-3,4.5c-0.1,0.1-0.2,0.3-0.3,0.4c-1.1,1.5-2.2,3.1-3.3,4.6c-0.1,0.1-0.2,0.3-0.3,0.4
	c-1.2,1.6-2.4,3.2-3.7,4.8c-0.1,0-0.1,0.1-0.2,0.2c-4,5-8.5,10.1-13.6,15.1c-0.1,0.1-0.2,0.2-0.3,0.3c5.5-7.2,8.9-16.2,8.9-26
	c0-23.5-19-42.5-42.5-42.5c-8.5,0-16.5,2.5-23.2,6.9c-14.9-8.2-34.6,21.6-34.6,21.6c-0.6-7.3-10-24.6-10-24.6l-6.8,2.7
	c27.1,32.1,0,58.7,0,58.7l3.6,3.1c13-12.3,11.3-18.1,11.3-18.1c8.2,19.8,25.3,19.7,25.3,19.7c19.4,25.2,48.8,14.1,48.8,14.1
	c-2.4,0.1-4.8,0.2-7,0.2c5.2-0.9,10.1-2.8,14.5-5.4c-0.1,0.1-0.2,0.1-0.3,0.2c-1.4,1-2.8,2.1-4.2,3.2c-0.3,0.2-0.6,0.4-0.9,0.6
	C478.2,339.3,477,340.1,475.8,341z M415.5,299.7c0,0,1.6,3.3,4.3,3.9l4.7,15.6c0,0-7.8,1-15.2-13.3c0,0-7.9-10.8-1.8-17.7
	c6.1-6.9,15.4-20.6,26.1-22.3c0,0-10.7,13.9-10.7,17.7C422.9,283.6,411.7,288.2,415.5,299.7z M463.1,259.3
	c21.3,0,38.6,17.3,38.6,38.6s-17.3,38.6-38.6,38.6c-21.3,0-38.6-17.3-38.6-38.6C424.5,276.6,441.8,259.3,463.1,259.3z M561.2,531.7
	c-0.6,0.6-1.1,1.1-1.7,1.6c-0.2,0.2-0.4,0.3-0.6,0.5c-0.3,0.4-0.7,0.7-1.1,1c-0.3,0.2-0.5,0.3-0.7,0.5c-0.3,0.3-0.7,0.5-1,0.8
	c-0.2,0.2-0.5,0.3-0.7,0.5c-0.3,0.2-0.7,0.5-1,0.7c-0.2,0.2-0.5,0.4-0.7,0.5c-0.3,0.2-0.7,0.4-1,0.6c-0.3,0.1-0.5,0.3-0.8,0.4
	c-0.3,0.1-0.7,0.3-1,0.5c-0.3,0.2-0.5,0.3-0.8,0.4c-0.4,0.2-0.7,0.4-1,0.5c-0.3,0.1-0.5,0.2-0.8,0.3c-0.3,0.1-0.6,0.3-0.9,0.4
	s-0.6,0.2-0.9,0.3s-0.6,0.2-0.9,0.3s-0.6,0.2-0.9,0.3c-0.3,0-0.6,0.1-0.9,0.2c-0.3,0.1-0.6,0.1-0.9,0.2c-0.3,0.1-0.5,0.1-0.8,0.2
	c-0.4,0.1-0.7,0.1-1,0.2c-0.3,0-0.5,0.1-0.8,0.1c-0.3,0-0.7,0.1-1,0.1c-0.2,0-0.5,0.1-0.7,0.1c-0.3,0-0.7,0.1-1,0.1
	c-0.3,0.1-0.5,0.1-0.7,0.1c-0.4,0.1-0.7,0.1-1.1,0.1c-0.2,0-0.4,0-0.6,0c-0.4,0-0.7,0-1.1,0c-0.3,0-0.6,0-0.9,0
	c-16.9-0.2-32-10.7-38.4-26.4C473.9,465.7,481,350,481,350c103.6-66.2,69.8-175.4,69.8-175.4h15.7c0,49.9-38.9,247.2-42.3,301
	C520.8,529.5,561.1,531.7,561.2,531.7z"/>
</svg>
